{
.appVersion = "1043";
DisplayStrings = (
staaten
);
classes = (
{

glyphs = (
{
glyphname = A;
lastChange = "2017-07-15 16:47:07 +0000";
layers = (
{
anchors = (
{
name = bottom;
position = "{362, 0}";
},
{
name = ogonek;
position = "{718, 0}";
},
{
name = top;
position = "{362, 700}";
}
);
background = {
paths = (
{
closed = 1;
nodes = (
"552 700 LINE",
"176 700 LINE",
"9 0 LINE",
"255 0 LINE",
"349 470 LINE",
"364 470 LINE",
"462 0 LINE",
"718 0 LINE"
);
}
);
};
layerId = "BFFFD157-90D3-4B85-B99D-9A2F366F03CA";
paths = (
{
closed = 1;
nodes = (
"540 700 LINE",
"190 700 LINE",
"5 0 LINE",
"238 0 LINE",
"344 490 LINE",
"368 490 LINE",
"476 0 LINE",
"718 0 LINE"
);
},
{
closed = 1;
nodes = (
"147 271 LINE",
"139 86 LINE",
"581 86 LINE",
"585 271 LINE"
);
}
);
width = 723;
},
{
anchors = (
{
name = bottom;
position = "{314, 0}";
},
{
name = ogonek;
position = "{602, 0}";
},
{
name = top;
position = "{314, 700}";
}
);
hints = (
{
horizontal = 1;
origin = "{1, 1}";
target = "{1, 0}";
type = TTStem;
stem = 2;
},
{
horizontal = 1;
origin = "{0, 3}";
type = Anchor;
},
{
horizontal = 1;
origin = "{0, 6}";
type = Anchor;
},
{
horizontal = 1;
origin = "{0, 0}";
target = "{0, 5}";
type = TTStem;
stem = 2;
options = 4;
}
);
layerId = "3E7589AA-8194-470F-8E2F-13C1C581BE24";
paths = (
{
closed = 1;
nodes = (
"397 700 LINE",
"233 700 LINE",
"25 0 LINE",
"119 0 LINE",
"298 610 LINE",
"327 610 LINE",
"506 0 LINE",
"602 0 LINE"
);
},
{
closed = 1;
nodes = (
"135 269 LINE",
"133 178 LINE",
"495 178 LINE",
"499 269 LINE"
);
}
);
width = 627;
},
{
anchors = (
{
name = bottom;
position = "{307, 0}";
},
{
name = ogonek;
position = "{572, 0}";
},
{
name = top;
position = "{307, 700}";
}
);
layerId = "FA91A8E1-7324-47F6-AE85-AED49CFCD01C";
paths = (
{
closed = 1;
nodes = (
"321 703 LINE",
"293 703 LINE",
"40 0 LINE",
"48 0 LINE",
"298 695 LINE",
"316 695 LINE",
"562 0 LINE",
"572 0 LINE"
);
},
{
closed = 1;
nodes = (
"123 219 LINE",
"120 211 LINE",
"493 211 LINE",
"490 219 LINE"
);
}
);
width = 612;
}
);
leftKerningGroup = A;
rightKerningGroup = A;
unicode = 0041;
},
{
glyphname = Aringacute;
lastChange = "2017-04-22 14:42:25 +0000";
layers = (
{
background = {
components = (
{
name = Aacute;
}
);
guideLines = (
{
angle = 90;
position = "{288, 966}";
}
);
paths = (
{
closed = 1;
nodes = (
"587 0 LINE",
"325 712 LINE",
"277 712 LINE",
"15 0 LINE",
"73 0 LINE",
"135 173 LINE",
"467 173 LINE",
"529 0 LINE"
);
},
{
closed = 1;
nodes = (
"301 640 LINE",
"450 221 LINE",
"152 221 LINE"
);
},
{
closed = 1;
nodes = (
"415 924 OFFCURVE",
"364 975 OFFCURVE",
"301 975 CURVE SMOOTH",
"238 975 OFFCURVE",
"187 924 OFFCURVE",
"187 861 CURVE SMOOTH",
"187 798 OFFCURVE",
"238 746 OFFCURVE",
"301 746 CURVE SMOOTH",
"364 746 OFFCURVE",
"415 798 OFFCURVE",
"415 861 CURVE SMOOTH"
);
},
{
closed = 1;
nodes = (
"374 821 OFFCURVE",
"341 788 OFFCURVE",
"301 788 CURVE SMOOTH",
"261 788 OFFCURVE",
"228 821 OFFCURVE",
"228 861 CURVE SMOOTH",
"228 901 OFFCURVE",
"261 933 OFFCURVE",
"301 933 CURVE SMOOTH",
"341 933 OFFCURVE",
"374 901 OFFCURVE",
"374 861 CURVE SMOOTH"
);
},
{
closed = 1;
nodes = (
"418 1132 LINE",
"351 1132 LINE",
"254 985 LINE",
"312 985 LINE"
);
}
);
};
components = (
{
name = A;
},
{
name = ring;
transform = "{1, 0, 0, 1, 148, 220}";
},
{
name = acutecomb;
transform = "{1, 0, 0, 1, 187, 455}";
}
);
guideLines = (
{
angle = 90;
position = "{288, 966}";
}
);
layerId = "3E7589AA-8194-470F-8E2F-13C1C581BE24";
width = 627;
},
{
background = {
components = (
{
name = Aacute;
}
);
};
components = (
{
name = A;
},
{
name = ring;
transform = "{1, 0, 0, 1, 167, 210}";
},
{
name = acutecomb;
transform = "{1, 0, 0, 1, 201, 514}";
}
);
guideLines = (
{
angle = 90;
position = "{273, 1115}";
}
);
layerId = "BFFFD157-90D3-4B85-B99D-9A2F366F03CA";
width = 723;
},
{
components = (
{
name = A;
},
{
name = ring;
transform = "{1, 0, 0, 1, 180, 232}";
},
{
name = acutecomb;
transform = "{1, 0, 0, 1, 233, 429}";
}
);
layerId = "FA91A8E1-7324-47F6-AE85-AED49CFCD01C";
width = 612;
}
);
leftKerningGroup = A;
leftMetricsKey = A;
rightKerningGroup = A;
rightMetricsKey = A;
unicode = 01FA;
},
{
glyphname = AE;
lastChange = "2017-01-28 11:36:37 +0000";
layers = (
{
anchors = (
{
name = bottom;
position = "{524, 0}";
},
{
name = ogonek;
position = "{895, 0}";
},
{
name = top;
position = "{572, 700}";
}
);
hints = (
{
horizontal = 1;
place = "{-2147483648, -2147483648}";
type = TTStem;
options = 4;
},
{
horizontal = 1;
place = "{-2147483648, -2147483648}";
type = TTStem;
options = 4;
},
{
horizontal = 1;
place = "{-2147483648, -2147483648}";
type = TTStem;
options = 4;
},
{
horizontal = 1;
place = "{-2147483648, -2147483648}";
type = TTStem;
options = 4;
},
{
horizontal = 1;
place = "{-2147483648, -2147483648}";
type = TTStem;
options = 4;
},
{
horizontal = 1;
place = "{-2147483648, -2147483648}";
type = TTStem;
options = 4;
},
{
horizontal = 1;
place = "{-2147483648, -2147483648}";
type = TTStem;
options = 4;
},
{
horizontal = 1;
origin = "{3, 3}";
target = "{3, 2}";
type = TTStem;
stem = 2;
options = 4;
},
{
horizontal = 1;
origin = "{5, 2}";
target = "{5, 3}";
type = TTStem;
stem = 2;
},
{
horizontal = 1;
origin = "{4, 2}";
target = "{4, 3}";
type = TTStem;
stem = 2;
options = 4;
},
{
horizontal = 1;
origin = "{0, 3}";
type = Anchor;
},
{
horizontal = 1;
origin = "{1, 1}";
target = "{1, 0}";
type = TTStem;
stem = 2;
},
{
horizontal = 1;
origin = "{0, 1}";
target = "{0, 4}";
type = TTStem;
stem = 2;
options = 4;
}
);
layerId = "3E7589AA-8194-470F-8E2F-13C1C581BE24";
paths = (
{
closed = 1;
nodes = (
"526 700 LINE",
"362 700 LINE",
"30 0 LINE",
"124 0 LINE",
"411 610 LINE",
"534 610 LINE"
);
},
{
closed = 1;
nodes = (
"188 269 LINE",
"170 178 LINE",
"512 178 LINE",
"532 269 LINE"
);
},
{
closed = 1;
nodes = (
"572 700 LINE",
"479 700 LINE",
"479 0 LINE",
"572 0 LINE"
);
},
{
closed = 1;
nodes = (
"533 700 LINE",
"531 611 LINE",
"885 611 LINE",
"885 700 LINE"
);
},
{
closed = 1;
nodes = (
"533 89 LINE",
"531 0 LINE",
"895 0 LINE",
"895 89 LINE"
);
},
{
closed = 1;
nodes = (
"533 367 LINE",
"531 278 LINE",
"865 278 LINE",
"865 367 LINE"
);
}
);
width = 945;
},
{
anchors = (
{
name = bottom;
position = "{552, 0}";
},
{
name = ogonek;
position = "{879, 0}";
},
{
name = top;
position = "{545, 700}";
}
);
layerId = "BFFFD157-90D3-4B85-B99D-9A2F366F03CA";
paths = (
{
closed = 1;
nodes = (
"649 700 LINE",
"299 700 LINE",
"-10 0 LINE",
"223 0 LINE",
"409 470 LINE",
"653 470 LINE"
);
},
{
closed = 1;
nodes = (
"180 268 LINE",
"142 103 LINE",
"584 103 LINE",
"618 268 LINE"
);
},
{
closed = 1;
nodes = (
"669 700 LINE",
"444 700 LINE",
"444 0 LINE",
"669 0 LINE"
);
},
{
closed = 1;
nodes = (
"574 700 LINE",
"566 530 LINE",
"869 530 LINE",
"869 700 LINE"
);
},
{
closed = 1;
nodes = (
"574 170 LINE",
"566 0 LINE",
"879 0 LINE",
"879 170 LINE"
);
},
{
closed = 1;
nodes = (
"574 430 LINE",
"566 260 LINE",
"849 260 LINE",
"849 430 LINE"
);
}
);
width = 909;
},
{
anchors = (
{
name = bottom;
position = "{508, 0}";
},
{
name = ogonek;
position = "{881, 0}";
},
{
name = top;
position = "{599, 700}";
}
);
layerId = "FA91A8E1-7324-47F6-AE85-AED49CFCD01C";
paths = (
{
closed = 1;
nodes = (
"504 700 LINE",
"404 700 LINE",
"47 0 LINE",
"56 0 LINE",
"409 692 LINE",
"504 692 LINE"
);
},
{
closed = 1;
nodes = (
"164 219 LINE",
"159 211 LINE",
"504 211 LINE",
"505 219 LINE"
);
},
{
closed = 1;
nodes = (
"509 700 LINE",
"500 700 LINE",
"500 0 LINE",
"509 0 LINE"
);
},
{
closed = 1;
nodes = (
"506 700 LINE",
"506 692 LINE",
"871 692 LINE",
"871 700 LINE"
);
},
{
closed = 1;
nodes = (
"506 8 LINE",
"508 0 LINE",
"881 0 LINE",
"881 8 LINE"
);
},
{
closed = 1;
nodes = (
"505 330 LINE",
"505 322 LINE",
"851 322 LINE",
"851 330 LINE"
);
}
);
width = 942;
}
);
leftKerningGroup = AE;
rightKerningGroup = E;
rightMetricsKey = E;
unicode = 00C6;
},
{
glyphname = B;
lastChange = "2017-07-15 20:11:59 +0000";
layers = (
{
anchors = (
{
name = bottom;
position = "{310, 0}";
},
{
name = top;
position = "{290, 700}";
}
);
background = {
paths = (
{
closed = 1;
nodes = (
"265 700 LINE",
"40 700 LINE",
"40 0 LINE",
"265 0 LINE"
);
},
{
closed = 1;
nodes = (
"170 700 LINE",
"162 510 LINE",
"495 510 LINE",
"495 700 LINE"
);
},
{
closed = 1;
nodes = (
"170 170 LINE",
"162 0 LINE",
"505 0 LINE",
"505 170 LINE"
);
},
{
closed = 1;
nodes = (
"170 430 LINE",
"162 250 LINE",
"475 250 LINE",
"475 430 LINE"
);
}
);
};
layerId = "BFFFD157-90D3-4B85-B99D-9A2F366F03CA";
paths = (
{
closed = 1;
nodes = (
"254 635 LINE",
"40 696 LINE",
"40 6 LINE",
"254 53 LINE"
);
},
{
closed = 1;
nodes = (
"360 256 OFFCURVE",
"385 240 OFFCURVE",
"385 206 CURVE SMOOTH",
"385 178 OFFCURVE",
"368 157 OFFCURVE",
"310 157 CURVE SMOOTH",
"286 157 OFFCURVE",
"262 158 OFFCURVE",
"240 160 CURVE",
"40 6 LINE",
"130 -3 OFFCURVE",
"201 -8 OFFCURVE",
"272 -8 CURVE SMOOTH",
"485 -8 OFFCURVE",
"610 48 OFFCURVE",
"610 191 CURVE SMOOTH",
"610 320 OFFCURVE",
"508 357 OFFCURVE",
"409 378 CURVE",
"414 308 LINE",
"506 323 OFFCURVE",
"590 359 OFFCURVE",
"590 488 CURVE SMOOTH",
"590 625 OFFCURVE",
"492 707 OFFCURVE",
"260 707 CURVE SMOOTH",
"185 707 OFFCURVE",
"116 703 OFFCURVE",
"40 696 CURVE",
"245 521 LINE",
"264 524 OFFCURVE",
"284 525 OFFCURVE",
"298 525 CURVE SMOOTH",
"354 525 OFFCURVE",
"378 502 OFFCURVE",
"378 472 CURVE SMOOTH",
"378 441 OFFCURVE",
"359 419 OFFCURVE",
"317 419 CURVE SMOOTH",
"247 419 LINE",
"236 256 LINE",
"308 256 LINE SMOOTH"
);
}
);
width = 625;
},
{
anchors = (
{
name = bottom;
position = "{301, 0}";
},
{
name = top;
position = "{279, 700}";
}
);
background = {
paths = (
{
closed = 1;
nodes = (
"178 700 LINE",
"85 700 LINE",
"85 0 LINE",
"178 0 LINE"
);
},
{
closed = 1;
nodes = (
"139 700 LINE",
"137 610 LINE",
"511 610 LINE",
"511 700 LINE"
);
},
{
closed = 1;
nodes = (
"139 90 LINE",
"137 0 LINE",
"521 0 LINE",
"521 90 LINE"
);
},
{
closed = 1;
nodes = (
"139 367 LINE",
"137 277 LINE",
"491 277 LINE",
"491 367 LINE"
);
}
);
};
hints = (
{
horizontal = 1;
origin = "{1, 25}";
target = "{1, 32}";
type = TTStem;
stem = 2;
options = 4;
},
{
horizontal = 1;
origin = "{1, 40}";
target = "{1, 39}";
type = TTStem;
stem = 2;
},
{
horizontal = 1;
origin = "{1, 12}";
target = "{1, 5}";
type = TTStem;
stem = 2;
options = 4;
}
);
layerId = "3E7589AA-8194-470F-8E2F-13C1C581BE24";
paths = (
{
closed = 1;
nodes = (
"178 657 LINE",
"85 700 LINE",
"85 0 LINE",
"178 49 LINE"
);
},
{
closed = 1;
nodes = (
"409 278 OFFCURVE",
"463 243 OFFCURVE",
"463 176 CURVE SMOOTH",
"463 120 OFFCURVE",
"424 80 OFFCURVE",
"297 80 CURVE SMOOTH",
"245 80 OFFCURVE",
"192 82 OFFCURVE",
"146 88 CURVE",
"85 0 LINE",
"156 -7 OFFCURVE",
"227 -9 OFFCURVE",
"282 -9 CURVE SMOOTH",
"445 -9 OFFCURVE",
"555 44 OFFCURVE",
"555 177 CURVE SMOOTH",
"555 297 OFFCURVE",
"463 353 OFFCURVE",
"311 353 CURVE",
"311 306 LINE",
"463 306 OFFCURVE",
"517 402 OFFCURVE",
"517 496 CURVE SMOOTH",
"517 609 OFFCURVE",
"448 709 OFFCURVE",
"246 709 CURVE SMOOTH",
"197 709 OFFCURVE",
"138 705 OFFCURVE",
"85 700 CURVE",
"134 612 LINE",
"175 617 OFFCURVE",
"220 619 OFFCURVE",
"249 619 CURVE SMOOTH",
"371 619 OFFCURVE",
"425 578 OFFCURVE",
"425 487 CURVE SMOOTH",
"425 414 OFFCURVE",
"384 368 OFFCURVE",
"292 368 CURVE SMOOTH",
"139 368 LINE",
"137 278 LINE",
"294 278 LINE SMOOTH"
);
}
);
width = 593;
},
{
anchors = (
{
name = bottom;
position = "{307, 0}";
},
{
name = top;
position = "{286, 700}";
}
);
associatedMasterId = "3E7589AA-8194-470F-8E2F-13C1C581BE24";
background = {
paths = (
{
closed = 1;
nodes = (
"217 646 LINE",
"64 698 LINE",
"64 3 LINE",
"217 51 LINE"
);
},
{
closed = 1;
nodes = (
"386 264 OFFCURVE",
"425 238 OFFCURVE",
"425 188 CURVE SMOOTH",
"425 146 OFFCURVE",
"397 115 OFFCURVE",
"305 115 CURVE SMOOTH",
"267 115 OFFCURVE",
"228 117 OFFCURVE",
"194 121 CURVE",
"64 3 LINE",
"144 -5 OFFCURVE",
"215 -9 OFFCURVE",
"278 -9 CURVE SMOOTH",
"466 -9 OFFCURVE",
"584 46 OFFCURVE",
"584 184 CURVE SMOOTH",
"584 309 OFFCURVE",
"487 356 OFFCURVE",
"361 366 CURVE",
"364 308 LINE",
"486 315 OFFCURVE",
"555 381 OFFCURVE",
"555 492 CURVE SMOOTH",
"555 617 OFFCURVE",
"471 708 OFFCURVE",
"254 708 CURVE SMOOTH",
"192 708 OFFCURVE",
"128 704 OFFCURVE",
"64 698 CURVE",
"191 561 LINE",
"221 565 OFFCURVE",
"253 566 OFFCURVE",
"275 566 CURVE SMOOTH",
"364 566 OFFCURVE",
"403 534 OFFCURVE",
"403 473 CURVE SMOOTH",
"403 421 OFFCURVE",
"373 388 OFFCURVE",
"306 388 CURVE SMOOTH",
"194 388 LINE",
"188 264 LINE",
"302 264 LINE SMOOTH"
);
}
);
};
layerId = "7DB523F8-EDD9-40A9-A67F-E711496DD6FA";
name = "{155, 100}";
paths = (
{
closed = 1;
nodes = (
"217 646 LINE",
"63 699 LINE",
"63 2 LINE",
"217 50 LINE"
);
},
{
closed = 1;
nodes = (
"385 259 OFFCURVE",
"425 238 OFFCURVE",
"425 195 CURVE SMOOTH",
"425 159 OFFCURVE",
"397 132 OFFCURVE",
"304 132 CURVE SMOOTH",
"266 132 OFFCURVE",
"228 134 OFFCURVE",
"194 137 CURVE",
"63 2 LINE",
"144 -6 OFFCURVE",
"215 -10 OFFCURVE",
"278 -10 CURVE SMOOTH",
"466 -10 OFFCURVE",
"583 46 OFFCURVE",
"583 184 CURVE SMOOTH",
"583 309 OFFCURVE",
"486 356 OFFCURVE",
"361 366 CURVE",
"363 308 LINE",
"485 315 OFFCURVE",
"554 381 OFFCURVE",
"554 492 CURVE SMOOTH",
"554 617 OFFCURVE",
"471 709 OFFCURVE",
"254 709 CURVE SMOOTH",
"192 709 OFFCURVE",
"128 705 OFFCURVE",
"63 699 CURVE",
"190 557 LINE",
"220 560 OFFCURVE",
"253 562 OFFCURVE",
"274 562 CURVE SMOOTH",
"363 562 OFFCURVE",
"402 533 OFFCURVE",
"402 474 CURVE SMOOTH",
"402 428 OFFCURVE",
"372 399 OFFCURVE",
"305 399 CURVE SMOOTH",
"194 399 LINE",
"187 259 LINE",
"302 259 LINE SMOOTH"
);
}
);
width = 610;
},
{
anchors = (
{
name = bottom;
position = "{297, 0}";
},
{
name = top;
position = "{295, 700}";
}
);
layerId = "FA91A8E1-7324-47F6-AE85-AED49CFCD01C";
paths = (
{
closed = 1;
nodes = (
"117 688 LINE",
"109 693 LINE",
"109 9 LINE",
"117 12 LINE"
);
},
{
closed = 1;
nodes = (
"449 322 OFFCURVE",
"521 253 OFFCURVE",
"521 159 CURVE SMOOTH",
"521 49 OFFCURVE",
"428 2 OFFCURVE",
"275 2 CURVE SMOOTH",
"214 2 OFFCURVE",
"166 7 OFFCURVE",
"114 17 CURVE",
"109 9 LINE",
"166 0 OFFCURVE",
"207 -6 OFFCURVE",
"272 -6 CURVE SMOOTH",
"440 -6 OFFCURVE",
"529 47 OFFCURVE",
"529 160 CURVE SMOOTH",
"529 258 OFFCURVE",
"452 329 OFFCURVE",
"277 329 CURVE",
"277 324 LINE",
"427 324 OFFCURVE",
"488 403 OFFCURVE",
"488 517 CURVE SMOOTH",
"488 608 OFFCURVE",
"445 707 OFFCURVE",
"254 707 CURVE SMOOTH",
"213 707 OFFCURVE",
"159 703 OFFCURVE",
"109 693 CURVE",
"114 686 LINE",
"157 694 OFFCURVE",
"208 699 OFFCURVE",
"253 699 CURVE SMOOTH",
"439 699 OFFCURVE",
"480 603 OFFCURVE",
"480 515 CURVE SMOOTH",
"480 406 OFFCURVE",
"422 330 OFFCURVE",
"270 330 CURVE SMOOTH",
"114 330 LINE",
"114 322 LINE",
"269 322 LINE SMOOTH"
);
}
);
width = 589;
}
);
leftKerningGroup = H;
leftMetricsKey = H;
rightKerningGroup = B;
unicode = 0042;
},
{
glyphname = C;
lastChange = "2017-07-13 12:57:23 +0000";
layers = (
{
anchors = (
{
name = bottom;
position = "{329, 0}";
},
{
name = top;
position = "{339, 700}";
},
{
name = topright;
position = "{575, 700}";
}
);
background = {
paths = (
{
closed = 1;
nodes = (
"605 -15 OFFCURVE",
"743 114 OFFCURVE",
"743 354 CURVE SMOOTH",
"743 584 OFFCURVE",
"614 715 OFFCURVE",
"403 715 CURVE SMOOTH",
"187 715 OFFCURVE",
"50 585 OFFCURVE",
"50 342 CURVE SMOOTH",
"50 111 OFFCURVE",
"181 -15 OFFCURVE",
"391 -15 CURVE SMOOTH"
);
},
{
closed = 1;
nodes = (
"327 203 OFFCURVE",
"283 253 OFFCURVE",
"283 348 CURVE SMOOTH",
"283 444 OFFCURVE",
"328 488 OFFCURVE",
"396 488 CURVE SMOOTH",
"466 488 OFFCURVE",
"511 444 OFFCURVE",
"511 345 CURVE SMOOTH",
"511 250 OFFCURVE",
"468 203 OFFCURVE",
"399 203 CURVE SMOOTH"
);
}
);
};
layerId = "BFFFD157-90D3-4B85-B99D-9A2F366F03CA";
paths = (
{
closed = 1;
nodes = (
"519 228 LINE",
"489 215 OFFCURVE",
"449 206 OFFCURVE",
"405 206 CURVE SMOOTH",
"312 206 OFFCURVE",
"263 245 OFFCURVE",
"263 347 CURVE SMOOTH",
"263 443 OFFCURVE",
"311 483 OFFCURVE",
"397 483 CURVE SMOOTH",
"440 483 OFFCURVE",
"475 474 OFFCURVE",
"501 459 CURVE",
"555 667 LINE",
"512 696 OFFCURVE",
"452 715 OFFCURVE",
"371 715 CURVE SMOOTH",
"151 715 OFFCURVE",
"30 585 OFFCURVE",
"30 342 CURVE SMOOTH",
"30 111 OFFCURVE",
"143 -15 OFFCURVE",
"366 -15 CURVE SMOOTH",
"445 -15 OFFCURVE",
"509 3 OFFCURVE",
"555 26 CURVE"
);
}
);
width = 578;
},
{
anchors = (
{
name = bottom;
position = "{327, 0}";
},
{
name = top;
position = "{342, 700}";
},
{
name = topright;
position = "{561, 700}";
}
);
hints = (
{
horizontal = 1;
origin = "{0, 22}";
target = "{0, 3}";
type = TTStem;
stem = 2;
options = 4;
},
{
horizontal = 1;
origin = "{0, 16}";
target = "{0, 9}";
type = TTStem;
stem = 2;
options = 4;
}
);
layerId = "3E7589AA-8194-470F-8E2F-13C1C581BE24";
paths = (
{
closed = 1;
nodes = (
"515 107 LINE",
"467 88 OFFCURVE",
"410 80 OFFCURVE",
"367 80 CURVE SMOOTH",
"221 80 OFFCURVE",
"148 162 OFFCURVE",
"148 344 CURVE SMOOTH",
"148 533 OFFCURVE",
"222 620 OFFCURVE",
"369 620 CURVE SMOOTH",
"415 620 OFFCURVE",
"467 611 OFFCURVE",
"513 592 CURVE",
"536 678 LINE",
"493 698 OFFCURVE",
"435 711 OFFCURVE",
"372 711 CURVE SMOOTH",
"162 711 OFFCURVE",
"55 585 OFFCURVE",
"55 342 CURVE SMOOTH",
"55 111 OFFCURVE",
"156 -11 OFFCURVE",
"356 -11 CURVE SMOOTH",
"432 -11 OFFCURVE",
"495 5 OFFCURVE",
"538 26 CURVE"
);
}
);
width = 581;
},
{
anchors = (
{
name = bottom;
position = "{335, 0}";
},
{
name = top;
position = "{344, 700}";
},
{
name = topright;
position = "{562, 700}";
}
);
layerId = "FA91A8E1-7324-47F6-AE85-AED49CFCD01C";
paths = (
{
closed = 1;
nodes = (
"524 47 LINE",
"481 14 OFFCURVE",
"422 1 OFFCURVE",
"365 1 CURVE SMOOTH",
"186 1 OFFCURVE",
"91 118 OFFCURVE",
"91 342 CURVE SMOOTH",
"91 575 OFFCURVE",
"178 699 OFFCURVE",
"374 699 CURVE SMOOTH",
"429 699 OFFCURVE",
"472 689 OFFCURVE",
"514 664 CURVE",
"517 671 LINE",
"472 698 OFFCURVE",
"427 707 OFFCURVE",
"374 707 CURVE SMOOTH",
"174 707 OFFCURVE",
"83 581 OFFCURVE",
"83 342 CURVE SMOOTH",
"83 113 OFFCURVE",
"179 -7 OFFCURVE",
"365 -7 CURVE SMOOTH",
"425 -7 OFFCURVE",
"483 6 OFFCURVE",
"527 40 CURVE"
);
}
);
width = 582;
}
);
leftKerningGroup = O;
leftMetricsKey = O;
rightKerningGroup = C;
unicode = 0043;
},
{
glyphname = Ccircumflex;
lastChange = "2017-07-13 10:16:38 +0000";
layers = (
{
background = {
paths = (
{
closed = 1;
nodes = (
"515 202 LINE",
"494 103 OFFCURVE",
"422 42 OFFCURVE",
"326 42 CURVE SMOOTH",
"274 42 OFFCURVE",
"228 60 OFFCURVE",
"191 97 CURVE SMOOTH",
"140 148 OFFCURVE",
"136 206 OFFCURVE",
"136 356 CURVE SMOOTH",
"136 506 OFFCURVE",
"140 564 OFFCURVE",
"191 615 CURVE SMOOTH",
"228 652 OFFCURVE",
"274 670 OFFCURVE",
"326 670 CURVE SMOOTH",
"422 670 OFFCURVE",
"492 609 OFFCURVE",
"513 510 CURVE",
"568 510 LINE",
"544 638 OFFCURVE",
"454 718 OFFCURVE",
"326 718 CURVE SMOOTH",
"255 718 OFFCURVE",
"195 692 OFFCURVE",
"153 650 CURVE SMOOTH",
"87 584 OFFCURVE",
"82 529 OFFCURVE",
"82 356 CURVE SMOOTH",
"82 183 OFFCURVE",
"87 128 OFFCURVE",
"153 62 CURVE SMOOTH",
"195 20 OFFCURVE",
"255 -6 OFFCURVE",
"326 -6 CURVE SMOOTH",
"452 -6 OFFCURVE",
"544 74 OFFCURVE",
"568 202 CURVE"
);
},
{
closed = 1;
nodes = (
"476 780 LINE",
"353 927 LINE",
"299 927 LINE",
"176 780 LINE",
"233 780 LINE",
"326 889 LINE",
"419 780 LINE"
);
}
);
};
components = (
{
name = C;
},
{
name = circumflex;
transform = "{1, 0, 0, 1, 119, 220}";
}
);
layerId = "3E7589AA-8194-470F-8E2F-13C1C581BE24";
width = 581;
},
{
background = {
paths = (
{
closed = 1;
nodes = (
"411 226 LINE",
"400 186 OFFCURVE",
"378 150 OFFCURVE",
"320 150 CURVE SMOOTH",
"288 150 OFFCURVE",
"264 163 OFFCURVE",
"251 180 CURVE SMOOTH",
"235 201 OFFCURVE",
"224 226 OFFCURVE",
"224 356 CURVE SMOOTH",
"224 486 OFFCURVE",
"235 511 OFFCURVE",
"251 532 CURVE SMOOTH",
"264 549 OFFCURVE",
"288 562 OFFCURVE",
"320 562 CURVE SMOOTH",
"378 562 OFFCURVE",
"400 526 OFFCURVE",
"411 486 CURVE",
"589 486 LINE",
"563 643 OFFCURVE",
"455 718 OFFCURVE",
"320 718 CURVE SMOOTH",
"233 718 OFFCURVE",
"173 691 OFFCURVE",
"122 640 CURVE SMOOTH",
"49 567 OFFCURVE",
"49 476 OFFCURVE",
"49 356 CURVE SMOOTH",
"49 236 OFFCURVE",
"49 145 OFFCURVE",
"122 72 CURVE SMOOTH",
"173 21 OFFCURVE",
"233 -6 OFFCURVE",
"320 -6 CURVE SMOOTH",
"455 -6 OFFCURVE",
"563 69 OFFCURVE",
"589 226 CURVE"
);
},
{
closed = 1;
nodes = (
"520 782 LINE",
"384 961 LINE",
"254 961 LINE",
"118 782 LINE",
"240 782 LINE",
"319 865 LINE",
"398 782 LINE"
);
}
);
};
components = (
{
name = C;
},
{
name = circumflex;
transform = "{1, 0, 0, 1, 94, 210}";
}
);
layerId = "BFFFD157-90D3-4B85-B99D-9A2F366F03CA";
width = 578;
},
{
components = (
{
name = C;
},
{
name = circumflex;
transform = "{1, 0, 0, 1, 157, 232}";
}
);
layerId = "FA91A8E1-7324-47F6-AE85-AED49CFCD01C";
width = 582;
}
);
leftKerningGroup = O;
rightKerningGroup = C;
unicode = 0108;
},
{
glyphname = D;
lastChange = "2017-07-13 12:57:51 +0000";
layers = (
{
anchors = (
{
name = bottom;
position = "{318, 0}";
},
{
name = center;
position = "{348, 350}";
},
{
name = stroke;
position = "{165, 329}";
},
{
name = top;
position = "{318, 700}";
},
{
name = topright;
position = "{686, 700}";
}
);
background = {
paths = (
{
closed = 1;
nodes = (
"575 -15 OFFCURVE",
"713 114 OFFCURVE",
"713 354 CURVE SMOOTH",
"713 584 OFFCURVE",
"584 715 OFFCURVE",
"373 715 CURVE SMOOTH",
"157 715 OFFCURVE",
"20 585 OFFCURVE",
"20 342 CURVE SMOOTH",
"20 111 OFFCURVE",
"151 -15 OFFCURVE",
"361 -15 CURVE SMOOTH"
);
},
{
closed = 1;
nodes = (
"297 203 OFFCURVE",
"253 253 OFFCURVE",
"253 348 CURVE SMOOTH",
"253 444 OFFCURVE",
"298 488 OFFCURVE",
"366 488 CURVE SMOOTH",
"436 488 OFFCURVE",
"481 444 OFFCURVE",
"481 345 CURVE SMOOTH",
"481 250 OFFCURVE",
"438 203 OFFCURVE",
"369 203 CURVE SMOOTH"
);
}
);
};
layerId = "BFFFD157-90D3-4B85-B99D-9A2F366F03CA";
paths = (
{
closed = 1;
nodes = (
"265 686 LINE",
"40 694 LINE",
"40 7 LINE",
"265 20 LINE"
);
},
{
closed = 1;
nodes = (
"537 -8 OFFCURVE",
"672 108 OFFCURVE",
"672 349 CURVE SMOOTH",
"672 588 OFFCURVE",
"541 707 OFFCURVE",
"250 707 CURVE SMOOTH",
"186 707 OFFCURVE",
"103 701 OFFCURVE",
"40 694 CURVE",
"224 480 LINE",
"249 484 OFFCURVE",
"276 487 OFFCURVE",
"296 487 CURVE SMOOTH",
"395 487 OFFCURVE",
"442 439 OFFCURVE",
"442 338 CURVE SMOOTH",
"442 230 OFFCURVE",
"388 196 OFFCURVE",
"294 196 CURVE SMOOTH",
"271 196 OFFCURVE",
"247 198 OFFCURVE",
"221 203 CURVE",
"40 7 LINE",
"119 -2 OFFCURVE",
"186 -8 OFFCURVE",
"250 -8 CURVE SMOOTH"
);
}
);
width = 702;
},
{
anchors = (
{
name = bottom;
position = "{317, 0}";
},
{
name = center;
position = "{347, 350}";
},
{
name = stroke;
position = "{160, 319}";
},
{
name = top;
position = "{317, 700}";
},
{
name = topright;
position = "{678, 700}";
}
);
background = {
paths = (
{
closed = 1;
nodes = (
"564 -15 OFFCURVE",
"691 110 OFFCURVE",
"691 350 CURVE SMOOTH",
"691 580 OFFCURVE",
"573 712 OFFCURVE",
"377 712 CURVE SMOOTH",
"181 712 OFFCURVE",
"55 585 OFFCURVE",
"55 342 CURVE SMOOTH",
"55 111 OFFCURVE",
"175 -15 OFFCURVE",
"368 -15 CURVE SMOOTH"
);
},
{
closed = 1;
nodes = (
"224 75 OFFCURVE",
"148 169 OFFCURVE",
"148 349 CURVE SMOOTH",
"148 532 OFFCURVE",
"229 621 OFFCURVE",
"372 621 CURVE SMOOTH",
"518 621 OFFCURVE",
"598 529 OFFCURVE",
"598 343 CURVE SMOOTH",
"598 164 OFFCURVE",
"519 75 OFFCURVE",
"374 75 CURVE SMOOTH"
);
}
);
};
hints = (
{
horizontal = 1;
origin = "{1, 25}";
target = "{1, 18}";
type = TTStem;
stem = 2;
options = 4;
},
{
horizontal = 1;
origin = "{1, 5}";
target = "{1, 12}";
type = TTStem;
stem = 2;
options = 4;
}
);
layerId = "3E7589AA-8194-470F-8E2F-13C1C581BE24";
paths = (
{
closed = 1;
nodes = (
"178 669 LINE",
"85 693 LINE",
"85 7 LINE",
"178 34 LINE"
);
},
{
closed = 1;
nodes = (
"486 -6 OFFCURVE",
"638 104 OFFCURVE",
"638 352 CURVE SMOOTH",
"638 585 OFFCURVE",
"498 706 OFFCURVE",
"253 706 CURVE SMOOTH",
"211 706 OFFCURVE",
"148 702 OFFCURVE",
"85 693 CURVE",
"143 607 LINE",
"186 611 OFFCURVE",
"229 613 OFFCURVE",
"262 613 CURVE SMOOTH",
"466 613 OFFCURVE",
"545 505 OFFCURVE",
"545 342 CURVE SMOOTH",
"545 171 OFFCURVE",
"453 86 OFFCURVE",
"267 86 CURVE SMOOTH",
"231 86 OFFCURVE",
"184 89 OFFCURVE",
"138 94 CURVE",
"85 7 LINE",
"148 -2 OFFCURVE",
"211 -6 OFFCURVE",
"254 -6 CURVE SMOOTH"
);
}
);
width = 693;
},
{
anchors = (
{
name = bottom;
position = "{316, 0}";
},
{
name = center;
position = "{357, 350}";
},
{
name = stroke;
position = "{167, 331}";
},
{
name = top;
position = "{327, 700}";
},
{
name = topright;
position = "{693, 700}";
}
);
layerId = "FA91A8E1-7324-47F6-AE85-AED49CFCD01C";
paths = (
{
closed = 1;
nodes = (
"117 690 LINE",
"109 693 LINE",
"109 8 LINE",
"117 12 LINE"
);
},
{
closed = 1;
nodes = (
"499 -6 OFFCURVE",
"624 103 OFFCURVE",
"624 340 CURVE SMOOTH",
"624 585 OFFCURVE",
"497 706 OFFCURVE",
"275 706 CURVE SMOOTH",
"221 706 OFFCURVE",
"166 701 OFFCURVE",
"109 693 CURVE",
"114 685 LINE",
"167 693 OFFCURVE",
"223 698 OFFCURVE",
"275 698 CURVE SMOOTH",
"491 698 OFFCURVE",
"615 578 OFFCURVE",
"615 342 CURVE SMOOTH",
"615 107 OFFCURVE",
"493 2 OFFCURVE",
"279 2 CURVE SMOOTH",
"225 2 OFFCURVE",
"168 7 OFFCURVE",
"116 16 CURVE",
"109 8 LINE",
"166 -1 OFFCURVE",
"221 -6 OFFCURVE",
"280 -6 CURVE SMOOTH"
);
}
);
width = 707;
}
);
leftKerningGroup = H;
leftMetricsKey = H;
rightKerningGroup = O;
rightMetricsKey = O;
unicode = 0044;
},
{
glyphname = E;
lastChange = "2017-07-15 08:55:05 +0000";
layers = (
{
anchors = (
{
name = bottom;
position = "{251, 0}";
},
{
name = ogonek;
position = "{475, 0}";
},
{
name = top;
position = "{251, 700}";
},
{
name = topleft;
position = "{10, 700}";
}
);
layerId = "BFFFD157-90D3-4B85-B99D-9A2F366F03CA";
paths = (
{
closed = 1;
nodes = (
"265 700 LINE",
"40 700 LINE",
"40 0 LINE",
"265 0 LINE"
);
},
{
closed = 1;
nodes = (
"170 700 LINE",
"162 510 LINE",
"495 510 LINE",
"495 700 LINE"
);
},
{
closed = 1;
nodes = (
"170 170 LINE",
"162 0 LINE",
"505 0 LINE",
"505 170 LINE"
);
},
{
closed = 1;
nodes = (
"170 430 LINE",
"162 250 LINE",
"475 250 LINE",
"475 430 LINE"
);
}
);
width = 535;
},
{
anchors = (
{
name = bottom;
position = "{303, 0}";
},
{
name = ogonek;
position = "{501, 0}";
},
{
name = top;
position = "{303, 700}";
},
{
name = topleft;
position = "{15, 700}";
}
);
hints = (
{
horizontal = 1;
origin = "{0, 2}";
target = "{2, 0}";
type = TTStem;
stem = 2;
options = 4;
},
{
horizontal = 1;
origin = "{3, 0}";
target = "{3, 1}";
type = TTStem;
stem = 2;
},
{
horizontal = 1;
origin = "{0, 1}";
target = "{1, 1}";
type = TTStem;
stem = 2;
options = 4;
}
);
layerId = "3E7589AA-8194-470F-8E2F-13C1C581BE24";
paths = (
{
closed = 1;
nodes = (
"178 700 LINE",
"85 700 LINE",
"85 0 LINE",
"178 0 LINE"
);
},
{
closed = 1;
nodes = (
"139 700 LINE",
"137 610 LINE",
"511 610 LINE",
"511 700 LINE"
);
},
{
closed = 1;
nodes = (
"139 90 LINE",
"137 0 LINE",
"521 0 LINE",
"521 90 LINE"
);
},
{
closed = 1;
nodes = (
"139 367 LINE",
"137 277 LINE",
"491 277 LINE",
"491 367 LINE"
);
}
);
width = 571;
},
{
anchors = (
{
name = bottom;
position = "{276, 0}";
},
{
name = ogonek;
position = "{487, 0}";
},
{
name = top;
position = "{276, 700}";
},
{
name = topleft;
position = "{12, 700}";
}
);
associatedMasterId = "3E7589AA-8194-470F-8E2F-13C1C581BE24";
background = {
paths = (
{
closed = 1;
nodes = (
"221 700 LINE",
"62 700 LINE",
"62 0 LINE",
"221 0 LINE"
);
},
{
closed = 1;
nodes = (
"154 700 LINE",
"149 561 LINE",
"497 561 LINE",
"497 700 LINE"
);
},
{
closed = 1;
nodes = (
"154 130 LINE",
"149 0 LINE",
"507 0 LINE",
"507 130 LINE"
);
},
{
closed = 1;
nodes = (
"154 399 LINE",
"149 264 LINE",
"477 264 LINE",
"477 399 LINE"
);
}
);
};
hints = (
{
horizontal = 1;
place = "{0, 89}";
type = TTStem;
options = 4;
},
{
horizontal = 1;
place = "{278, 89}";
type = TTStem;
options = 4;
},
{
horizontal = 1;
place = "{700, -89}";
type = TTStem;
options = 4;
}
);
layerId = "C547734F-1E61-42F6-9333-BE0363325E41";
name = "{155, 100}";
paths = (
{
closed = 1;
nodes = (
"222 700 LINE",
"63 700 LINE",
"63 0 LINE",
"222 0 LINE"
);
},
{
closed = 1;
nodes = (
"155 700 LINE",
"150 546 LINE",
"504 546 LINE",
"504 700 LINE"
);
},
{
closed = 1;
nodes = (
"155 153 LINE",
"150 0 LINE",
"514 0 LINE",
"514 153 LINE"
);
},
{
closed = 1;
nodes = (
"155 407 LINE",
"150 260 LINE",
"484 260 LINE",
"484 407 LINE"
);
}
);
width = 554;
},
{
anchors = (
{
name = bottom;
position = "{301, 0}";
},
{
name = ogonek;
position = "{491, 0}";
},
{
name = top;
position = "{301, 700}";
},
{
name = topleft;
position = "{21, 700}";
}
);
layerId = "FA91A8E1-7324-47F6-AE85-AED49CFCD01C";
paths = (
{
closed = 1;
nodes = (
"117 700 LINE",
"109 700 LINE",
"109 0 LINE",
"117 0 LINE"
);
},
{
closed = 1;
nodes = (
"115 700 LINE",
"115 692 LINE",
"501 692 LINE",
"501 700 LINE"
);
},
{
closed = 1;
nodes = (
"115 8 LINE",
"115 0 LINE",
"511 0 LINE",
"511 8 LINE"
);
},
{
closed = 1;
nodes = (
"115 330 LINE",
"115 322 LINE",
"481 322 LINE",
"481 330 LINE"
);
}
);
width = 572;
}
);
leftKerningGroup = H;
leftMetricsKey = H;
rightKerningGroup = E;
unicode = 0045;
},
{
glyphname = Ebreve;
lastChange = "2017-06-22 10:19:40 +0000";
layers = (
{
background = {
paths = (
{
closed = 1;
nodes = (
"542 0 LINE",
"542 48 LINE",
"164 48 LINE",
"164 335 LINE",
"486 335 LINE",
"486 383 LINE",
"164 383 LINE",
"164 664 LINE",
"542 664 LINE",
"542 712 LINE",
"110 712 LINE",
"110 0 LINE"
);
},
{
closed = 1;
nodes = (
"434 927 LINE",
"426 871 OFFCURVE",
"383 837 OFFCURVE",
"314 837 CURVE SMOOTH",
"245 837 OFFCURVE",
"202 871 OFFCURVE",
"194 927 CURVE",
"149 927 LINE",
"158 842 OFFCURVE",
"206 792 OFFCURVE",
"314 792 CURVE SMOOTH",
"422 792 OFFCURVE",
"470 842 OFFCURVE",
"479 927 CURVE"
);
}
);
};
components = (
{
name = E;
},
{
name = breve;
transform = "{1, 0, 0, 1, 106, 220}";
}
);
layerId = "3E7589AA-8194-470F-8E2F-13C1C581BE24";
width = 571;
},
{
background = {
paths = (
{
closed = 1;
nodes = (
"556 0 LINE",
"556 156 LINE",
"247 156 LINE",
"247 281 LINE",
"511 281 LINE",
"511 437 LINE",
"247 437 LINE",
"247 556 LINE",
"556 556 LINE",
"556 712 LINE",
"72 712 LINE",
"72 0 LINE"
);
},
{
closed = 1;
nodes = (
"367 931 LINE",
"364 894 OFFCURVE",
"334 884 OFFCURVE",
"309 884 CURVE SMOOTH",
"284 884 OFFCURVE",
"254 894 OFFCURVE",
"251 931 CURVE",
"145 931 LINE",
"148 813 OFFCURVE",
"232 774 OFFCURVE",
"309 774 CURVE SMOOTH",
"386 774 OFFCURVE",
"470 813 OFFCURVE",
"473 931 CURVE"
);
}
);
};
components = (
{
name = E;
},
{
name = breve;
transform = "{1, 0, 0, 1, -3, 210}";
}
);
layerId = "BFFFD157-90D3-4B85-B99D-9A2F366F03CA";
width = 535;
},
{
components = (
{
name = E;
},
{
name = breve;
transform = "{1, 0, 0, 1, 127, 232}";
}
);
layerId = "FA91A8E1-7324-47F6-AE85-AED49CFCD01C";
width = 572;
}
);
leftKerningGroup = H;
rightKerningGroup = E;
unicode = 0114;
},
{
glyphname = F;
lastChange = "2017-04-23 11:49:23 +0000";
layers = (
{
anchors = (
{
name = bottom;
position = "{164, 0}";
},
{
name = top;
position = "{243, 700}";
}
);
background = {
paths = (
{
closed = 1;
nodes = (
"265 700 LINE",
"40 700 LINE",
"40 0 LINE",
"265 0 LINE"
);
},
{
closed = 1;
nodes = (
"170 700 LINE",
"162 530 LINE",
"465 530 LINE",
"465 700 LINE"
);
},
{
closed = 1;
nodes = (
"170 170 LINE",
"162 0 LINE",
"475 0 LINE",
"475 170 LINE"
);
},
{
closed = 1;
nodes = (
"170 430 LINE",
"162 260 LINE",
"445 260 LINE",
"445 430 LINE"
);
}
);
};
layerId = "BFFFD157-90D3-4B85-B99D-9A2F366F03CA";
paths = (
{
closed = 1;
nodes = (
"265 700 LINE",
"40 700 LINE",
"40 0 LINE",
"265 0 LINE"
);
},
{
closed = 1;
nodes = (
"170 700 LINE",
"162 490 LINE",
"488 490 LINE",
"488 700 LINE"
);
},
{
closed = 1;
nodes = (
"170 397 LINE",
"162 197 LINE",
"473 197 LINE",
"473 397 LINE"
);
}
);
width = 520;
},
{
anchors = (
{
name = bottom;
position = "{137, 0}";
},
{
name = top;
position = "{273, 700}";
}
);
background = {
paths = (
{
closed = 1;
nodes = (
"139 369 LINE",
"137 278 LINE",
"549 278 LINE",
"553 369 LINE"
);
}
);
};
hints = (
{
horizontal = 1;
origin = "{0, 2}";
type = Anchor;
},
{
horizontal = 1;
origin = "{2, 0}";
target = "{2, 1}";
type = TTStem;
stem = 2;
},
{
horizontal = 1;
origin = "{0, 1}";
target = "{1, 1}";
type = TTStem;
stem = 2;
options = 4;
}
);
layerId = "3E7589AA-8194-470F-8E2F-13C1C581BE24";
paths = (
{
closed = 1;
nodes = (
"178 700 LINE",
"85 700 LINE",
"85 0 LINE",
"178 0 LINE"
);
},
{
closed = 1;
nodes = (
"139 700 LINE",
"137 609 LINE",
"481 609 LINE",
"481 700 LINE"
);
},
{
closed = 1;
nodes = (
"139 369 LINE",
"137 278 LINE",
"461 278 LINE",
"461 369 LINE"
);
}
);
width = 521;
},
{
anchors = (
{
name = bottom;
position = "{115, 0}";
},
{
name = top;
position = "{280, 700}";
}
);
layerId = "FA91A8E1-7324-47F6-AE85-AED49CFCD01C";
paths = (
{
closed = 1;
nodes = (
"117 700 LINE",
"109 700 LINE",
"109 0 LINE",
"117 0 LINE"
);
},
{
closed = 1;
nodes = (
"116 700 LINE",
"115 692 LINE",
"495 692 LINE",
"495 700 LINE"
);
},
{
closed = 1;
nodes = (
"114 330 LINE",
"114 322 LINE",
"475 322 LINE",
"475 330 LINE"
);
}
);
width = 545;
}
);
leftKerningGroup = H;
leftMetricsKey = H;
rightKerningGroup = F;
unicode = 0046;
},
{
glyphname = G;
lastChange = "2017-07-15 09:13:44 +0000";
layers = (
{
anchors = (
{
name = bottom;
position = "{378, 0}";
},
{
name = top;
position = "{378, 700}";
},
{
name = topright;
position = "{671, 700}";
}
);
background = {
paths = (
{
closed = 1;
nodes = (
"275 700 LINE",
"50 700 LINE",
"50 0 LINE",
"275 0 LINE"
);
},
{
closed = 1;
nodes = (
"690 700 LINE",
"465 700 LINE",
"465 0 LINE",
"690 0 LINE"
);
},
{
closed = 1;
nodes = (
"180 423 LINE",
"172 208 LINE",
"614 208 LINE",
"618 423 LINE"
);
}
);
};
layerId = "BFFFD157-90D3-4B85-B99D-9A2F366F03CA";
paths = (
{
closed = 1;
nodes = (
"505 -15 OFFCURVE",
"590 6 OFFCURVE",
"656 34 CURVE",
"656 432 LINE",
"361 432 LINE",
"361 256 LINE",
"449 256 LINE",
"449 83 LINE",
"494 207 LINE",
"472 200 OFFCURVE",
"433 196 OFFCURVE",
"405 196 CURVE SMOOTH",
"302 196 OFFCURVE",
"263 249 OFFCURVE",
"263 343 CURVE SMOOTH",
"263 448 OFFCURVE",
"301 501 OFFCURVE",
"426 501 CURVE SMOOTH",
"496 501 OFFCURVE",
"545 484 OFFCURVE",
"583 464 CURVE",
"629 664 LINE",
"579 695 OFFCURVE",
"509 715 OFFCURVE",
"407 715 CURVE SMOOTH",
"167 715 OFFCURVE",
"30 595 OFFCURVE",
"30 342 CURVE SMOOTH",
"30 101 OFFCURVE",
"163 -15 OFFCURVE",
"397 -15 CURVE SMOOTH"
);
}
);
width = 691;
},
{
anchors = (
{
name = bottom;
position = "{372, 0}";
},
{
name = top;
position = "{372, 700}";
},
{
name = topright;
position = "{649, 700}";
}
);
background = {
paths = (
{
closed = 1;
nodes = (
"198 700 LINE",
"105 700 LINE",
"105 0 LINE",
"198 0 LINE"
);
},
{
closed = 1;
nodes = (
"605 700 LINE",
"512 700 LINE",
"512 0 LINE",
"605 0 LINE"
);
},
{
closed = 1;
nodes = (
"159 369 LINE",
"157 278 LINE",
"569 278 LINE",
"573 369 LINE"
);
}
);
};
hints = (
{
horizontal = 1;
origin = "{0, 30}";
target = "{0, 11}";
type = TTStem;
stem = 2;
options = 4;
},
{
horizontal = 1;
origin = "{0, 24}";
target = "{0, 17}";
type = TTStem;
stem = 2;
options = 4;
},
{
horizontal = 1;
origin = "{0, 4}";
target = "{0, 5}";
type = TTStem;
stem = 2;
}
);
layerId = "3E7589AA-8194-470F-8E2F-13C1C581BE24";
paths = (
{
closed = 1;
nodes = (
"494 -11 OFFCURVE",
"561 5 OFFCURVE",
"614 26 CURVE",
"614 369 LINE",
"366 369 LINE",
"366 278 LINE",
"521 278 LINE",
"521 51 LINE",
"565 102 LINE",
"518 85 OFFCURVE",
"474 80 OFFCURVE",
"413 80 CURVE SMOOTH",
"231 80 OFFCURVE",
"148 162 OFFCURVE",
"148 344 CURVE SMOOTH",
"148 533 OFFCURVE",
"232 619 OFFCURVE",
"405 619 CURVE SMOOTH",
"465 619 OFFCURVE",
"517 610 OFFCURVE",
"563 591 CURVE",
"586 678 LINE",
"543 698 OFFCURVE",
"485 711 OFFCURVE",
"408 711 CURVE SMOOTH",
"172 711 OFFCURVE",
"55 585 OFFCURVE",
"55 342 CURVE SMOOTH",
"55 111 OFFCURVE",
"166 -11 OFFCURVE",
"402 -11 CURVE SMOOTH"
);
}
);
width = 679;
},
{
anchors = (
{
name = bottom;
position = "{375, 0}";
},
{
name = top;
position = "{375, 700}";
},
{
name = topright;
position = "{660, 700}";
}
);
associatedMasterId = "3E7589AA-8194-470F-8E2F-13C1C581BE24";
background = {
paths = (
{
closed = 1;
nodes = (
"500 -13 OFFCURVE",
"576 6 OFFCURVE",
"635 30 CURVE",
"635 389 LINE",
"369 389 LINE",
"369 269 LINE",
"495 269 LINE",
"495 67 LINE",
"530 151 LINE",
"495 139 OFFCURVE",
"454 134 OFFCURVE",
"409 134 CURVE SMOOTH",
"267 134 OFFCURVE",
"206 202 OFFCURVE",
"206 344 CURVE SMOOTH",
"206 491 OFFCURVE",
"267 560 OFFCURVE",
"416 560 CURVE SMOOTH",
"481 560 OFFCURVE",
"531 547 OFFCURVE",
"573 528 CURVE",
"608 671 LINE",
"561 697 OFFCURVE",
"497 713 OFFCURVE",
"408 713 CURVE SMOOTH",
"170 713 OFFCURVE",
"43 590 OFFCURVE",
"43 342 CURVE SMOOTH",
"43 106 OFFCURVE",
"165 -13 OFFCURVE",
"400 -13 CURVE SMOOTH"
);
}
);
};
hints = (
{
horizontal = 1;
place = "{-11, 91}";
type = TTStem;
options = 4;
},
{
horizontal = 1;
place = "{278, 91}";
type = TTStem;
options = 4;
},
{
horizontal = 1;
place = "{711, -92}";
type = TTStem;
options = 4;
}
);
layerId = "90EAFF21-2A4C-4990-BD9B-8CA04631CB3B";
name = "{155, 100}";
paths = (
{
closed = 1;
nodes = (
"500 -13 OFFCURVE",
"576 6 OFFCURVE",
"636 30 CURVE",
"636 399 LINE",
"369 399 LINE",
"369 252 LINE",
"486 252 LINE",
"486 67 LINE",
"530 157 LINE",
"496 145 OFFCURVE",
"454 140 OFFCURVE",
"410 140 CURVE SMOOTH",
"267 140 OFFCURVE",
"206 208 OFFCURVE",
"206 344 CURVE SMOOTH",
"206 482 OFFCURVE",
"267 555 OFFCURVE",
"416 555 CURVE SMOOTH",
"481 555 OFFCURVE",
"532 542 OFFCURVE",
"574 523 CURVE",
"608 671 LINE",
"562 697 OFFCURVE",
"498 713 OFFCURVE",
"408 713 CURVE SMOOTH",
"170 713 OFFCURVE",
"43 590 OFFCURVE",
"43 342 CURVE SMOOTH",
"43 106 OFFCURVE",
"165 -13 OFFCURVE",
"400 -13 CURVE SMOOTH"
);
}
);
width = 684;
},
{
anchors = (
{
name = bottom;
position = "{372, 0}";
},
{
name = top;
position = "{372, 700}";
},
{
name = topright;
position = "{649, 700}";
}
);
associatedMasterId = "3E7589AA-8194-470F-8E2F-13C1C581BE24";
background = {
paths = (
{
closed = 1;
nodes = (
"198 700 LINE",
"105 700 LINE",
"105 0 LINE",
"198 0 LINE"
);
},
{
closed = 1;
nodes = (
"605 700 LINE",
"512 700 LINE",
"512 0 LINE",
"605 0 LINE"
);
},
{
closed = 1;
nodes = (
"159 369 LINE",
"157 278 LINE",
"569 278 LINE",
"573 369 LINE"
);
}
);
};
hints = (
{
horizontal = 1;
origin = "{0, 30}";
target = "{0, 11}";
type = TTStem;
options = 4;
},
{
horizontal = 1;
origin = "{0, 5}";
target = "{0, 4}";
type = TTStem;
options = 4;
},
{
horizontal = 1;
origin = "{0, 24}";
target = "{0, 17}";
type = TTStem;
options = 4;
}
);
layerId = "A72F423E-0F50-44D8-8D57-9C699762D334";
name = "Dec 1 16, 17:42";
paths = (
{
closed = 1;
nodes = (
"494 -11 OFFCURVE",
"561 5 OFFCURVE",
"614 26 CURVE",
"614 369 LINE",
"366 369 LINE",
"366 278 LINE",
"521 278 LINE",
"521 51 LINE",
"565 102 LINE",
"518 85 OFFCURVE",
"474 80 OFFCURVE",
"413 80 CURVE SMOOTH",
"231 80 OFFCURVE",
"148 162 OFFCURVE",
"148 344 CURVE SMOOTH",
"148 533 OFFCURVE",
"232 619 OFFCURVE",
"405 619 CURVE SMOOTH",
"465 619 OFFCURVE",
"517 610 OFFCURVE",
"563 591 CURVE",
"586 678 LINE",
"543 698 OFFCURVE",
"485 711 OFFCURVE",
"408 711 CURVE SMOOTH",
"172 711 OFFCURVE",
"55 585 OFFCURVE",
"55 342 CURVE SMOOTH",
"55 111 OFFCURVE",
"166 -11 OFFCURVE",
"402 -11 CURVE SMOOTH"
);
}
);
width = 674;
},
{
anchors = (
{
name = bottom;
position = "{365, 0}";
},
{
name = top;
position = "{359, 700}";
},
{
name = topright;
position = "{652, 700}";
}
);
layerId = "FA91A8E1-7324-47F6-AE85-AED49CFCD01C";
paths = (
{
closed = 1;
nodes = (
"471 -7 OFFCURVE",
"533 11 OFFCURVE",
"589 45 CURVE",
"589 330 LINE",
"373 330 LINE",
"373 322 LINE",
"581 322 LINE",
"581 43 LINE",
"586 52 LINE",
"532 19 OFFCURVE",
"466 1 OFFCURVE",
"390 1 CURVE SMOOTH",
"195 1 OFFCURVE",
"91 118 OFFCURVE",
"91 342 CURVE SMOOTH",
"91 575 OFFCURVE",
"184 699 OFFCURVE",
"388 699 CURVE SMOOTH",
"452 699 OFFCURVE",
"499 685 OFFCURVE",
"547 660 CURVE",
"549 668 LINE",
"500 695 OFFCURVE",
"451 707 OFFCURVE",
"388 707 CURVE SMOOTH",
"180 707 OFFCURVE",
"83 581 OFFCURVE",
"83 342 CURVE SMOOTH",
"83 113 OFFCURVE",
"189 -7 OFFCURVE",
"391 -7 CURVE SMOOTH"
);
}
);
width = 683;
}
);
leftKerningGroup = O;
leftMetricsKey = O;
rightKerningGroup = G;
unicode = 0047;
},
{
glyphname = Gcircumflex;
lastChange = "2016-12-21 10:47:59 +0000";
layers = (
{
background = {
paths = (
{
closed = 1;
nodes = (
"571 364 LINE",
"326 364 LINE",
"326 316 LINE",
"517 316 LINE",
"517 252 LINE SMOOTH",
"517 191 OFFCURVE",
"505 150 OFFCURVE",
"474 111 CURVE SMOOTH",
"437 66 OFFCURVE",
"382 42 OFFCURVE",
"326 42 CURVE SMOOTH",
"274 42 OFFCURVE",
"228 60 OFFCURVE",
"191 97 CURVE SMOOTH",
"140 148 OFFCURVE",
"136 206 OFFCURVE",
"136 356 CURVE SMOOTH",
"136 506 OFFCURVE",
"140 564 OFFCURVE",
"191 615 CURVE SMOOTH",
"228 652 OFFCURVE",
"274 670 OFFCURVE",
"326 670 CURVE SMOOTH",
"422 670 OFFCURVE",
"494 609 OFFCURVE",
"515 510 CURVE",
"569 510 LINE",
"548 635 OFFCURVE",
"450 718 OFFCURVE",
"326 718 CURVE SMOOTH",
"255 718 OFFCURVE",
"195 692 OFFCURVE",
"153 650 CURVE SMOOTH",
"87 584 OFFCURVE",
"82 529 OFFCURVE",
"82 356 CURVE SMOOTH",
"82 183 OFFCURVE",
"87 128 OFFCURVE",
"153 62 CURVE SMOOTH",
"195 20 OFFCURVE",
"255 -6 OFFCURVE",
"326 -6 CURVE SMOOTH",
"398 -6 OFFCURVE",
"467 25 OFFCURVE",
"513 76 CURVE SMOOTH",
"555 123 OFFCURVE",
"571 173 OFFCURVE",
"571 248 CURVE SMOOTH"
);
},
{
closed = 1;
nodes = (
"476 780 LINE",
"353 927 LINE",
"299 927 LINE",
"176 780 LINE",
"233 780 LINE",
"326 889 LINE",
"419 780 LINE"
);
}
);
};
components = (
{
name = G;
},
{
name = circumflex;
transform = "{1, 0, 0, 1, 149, 220}";
}
);
layerId = "3E7589AA-8194-470F-8E2F-13C1C581BE24";
width = 679;
},
{
background = {
paths = (
{
closed = 1;
nodes = (
"598 410 LINE",
"319 410 LINE",
"319 264 LINE",
"424 264 LINE",
"424 254 LINE SMOOTH",
"424 227 OFFCURVE",
"417 198 OFFCURVE",
"397 178 CURVE SMOOTH",
"381 161 OFFCURVE",
"356 150 OFFCURVE",
"319 150 CURVE SMOOTH",
"287 150 OFFCURVE",
"263 163 OFFCURVE",
"250 180 CURVE SMOOTH",
"234 201 OFFCURVE",
"224 226 OFFCURVE",
"224 356 CURVE SMOOTH",
"224 486 OFFCURVE",
"234 510 OFFCURVE",
"250 531 CURVE SMOOTH",
"263 548 OFFCURVE",
"287 562 OFFCURVE",
"319 562 CURVE SMOOTH",
"379 562 OFFCURVE",
"407 536 OFFCURVE",
"421 482 CURVE",
"597 482 LINE",
"580 599 OFFCURVE",
"502 718 OFFCURVE",
"319 718 CURVE SMOOTH",
"233 718 OFFCURVE",
"173 691 OFFCURVE",
"122 640 CURVE SMOOTH",
"49 567 OFFCURVE",
"49 476 OFFCURVE",
"49 356 CURVE SMOOTH",
"49 236 OFFCURVE",
"49 145 OFFCURVE",
"122 72 CURVE SMOOTH",
"173 21 OFFCURVE",
"233 -6 OFFCURVE",
"319 -6 CURVE SMOOTH",
"397 -6 OFFCURVE",
"465 11 OFFCURVE",
"526 74 CURVE SMOOTH",
"580 129 OFFCURVE",
"598 196 OFFCURVE",
"598 311 CURVE"
);
},
{
closed = 1;
nodes = (
"520 782 LINE",
"384 961 LINE",
"254 961 LINE",
"118 782 LINE",
"240 782 LINE",
"319 865 LINE",
"398 782 LINE"
);
}
);
};
components = (
{
name = G;
},
{
name = circumflex;
transform = "{1, 0, 0, 1, 133, 210}";
}
);
layerId = "BFFFD157-90D3-4B85-B99D-9A2F366F03CA";
width = 691;
},
{
components = (
{
name = G;
},
{
name = circumflex;
transform = "{1, 0, 0, 1, 172, 232}";
}
);
layerId = "FA91A8E1-7324-47F6-AE85-AED49CFCD01C";
width = 683;
}
);
leftKerningGroup = O;
rightKerningGroup = G;
unicode = 011C;
},
{
glyphname = H;
lastChange = "2017-06-22 10:10:46 +0000";
layers = (
{
anchors = (
{
name = bottom;
position = "{365, 0}";
},
{
name = stroke;
position = "{365, 557}";
},
{
name = top;
position = "{365, 700}";
},
{
name = topleft;
position = "{10, 700}";
}
);
layerId = "BFFFD157-90D3-4B85-B99D-9A2F366F03CA";
paths = (
{
closed = 1;
nodes = (
"265 700 LINE",
"40 700 LINE",
"40 0 LINE",
"265 0 LINE"
);
},
{
closed = 1;
nodes = (
"690 700 LINE",
"465 700 LINE",
"465 0 LINE",
"690 0 LINE"
);
},
{
closed = 1;
nodes = (
"256 427 LINE",
"256 208 LINE",
"472 208 LINE",
"472 427 LINE"
);
}
);
width = 730;
},
{
anchors = (
{
name = bottom;
position = "{355, 0}";
},
{
name = stroke;
position = "{355, 518}";
},
{
name = top;
position = "{355, 700}";
},
{
name = topleft;
position = "{15, 700}";
}
);
background = {
paths = (
{
closed = 1;
nodes = (
"178 700 LINE",
"85 700 LINE",
"85 0 LINE",
"178 0 LINE"
);
},
{
closed = 1;
nodes = (
"567 15 LINE",
"516 95 OFFCURVE",
"465 177 OFFCURVE",
"419 241 CURVE SMOOTH",
"380 295 OFFCURVE",
"342 333 OFFCURVE",
"298 356 CURVE",
"310 319 LINE",
"349 341 OFFCURVE",
"382 391 OFFCURVE",
"413 447 CURVE SMOOTH",
"452 518 OFFCURVE",
"491 604 OFFCURVE",
"526 687 CURVE",
"522 700 LINE",
"436 700 LINE",
"403 621 OFFCURVE",
"363 535 OFFCURVE",
"315 445 CURVE SMOOTH",
"281 381 OFFCURVE",
"268 366 OFFCURVE",
"227 366 CURVE SMOOTH",
"144 366 LINE",
"144 275 LINE",
"212 275 LINE SMOOTH",
"265 275 OFFCURVE",
"281 268 OFFCURVE",
"324 212 CURVE SMOOTH",
"374 146 OFFCURVE",
"425 66 OFFCURVE",
"466 0 CURVE",
"564 0 LINE"
);
}
);
};
hints = (
{
horizontal = 1;
origin = "{0, 3}";
type = Anchor;
},
{
horizontal = 1;
origin = "{1, 2}";
type = Anchor;
},
{
horizontal = 1;
origin = "{0, 0}";
type = Anchor;
},
{
horizontal = 1;
origin = "{1, 1}";
type = Anchor;
},
{
horizontal = 1;
origin = "{2, 3}";
target = "{2, 2}";
type = TTStem;
stem = 2;
}
);
layerId = "3E7589AA-8194-470F-8E2F-13C1C581BE24";
paths = (
{
closed = 1;
nodes = (
"178 700 LINE",
"85 700 LINE",
"85 0 LINE",
"178 0 LINE"
);
},
{
closed = 1;
nodes = (
"625 700 LINE",
"532 700 LINE",
"532 0 LINE",
"625 0 LINE"
);
},
{
closed = 1;
nodes = (
"138 366 LINE",
"138 275 LINE",
"533 275 LINE",
"533 366 LINE"
);
}
);
width = 710;
},
{
anchors = (
{
name = bottom;
position = "{331, 0}";
},
{
name = stroke;
position = "{331, 513}";
},
{
name = top;
position = "{331, 700}";
},
{
name = topleft;
position = "{22, 700}";
}
);
layerId = "FA91A8E1-7324-47F6-AE85-AED49CFCD01C";
paths = (
{
closed = 1;
nodes = (
"117 700 LINE",
"109 700 LINE",
"109 0 LINE",
"117 0 LINE"
);
},
{
closed = 1;
nodes = (
"551 700 LINE",
"543 700 LINE",
"543 0 LINE",
"551 0 LINE"
);
},
{
closed = 1;
nodes = (
"114 331 LINE",
"114 323 LINE",
"544 323 LINE",
"544 331 LINE"
);
}
);
width = 660;
}
);
leftKerningGroup = H;
rightKerningGroup = H;
unicode = 0048;
},
{
glyphname = Hcircumflex;
lastChange = "2016-12-21 10:47:59 +0000";
layers = (
{
background = {
paths = (
{
closed = 1;
nodes = (
"589 0 LINE",
"589 712 LINE",
"535 712 LINE",
"535 383 LINE",
"164 383 LINE",
"164 712 LINE",
"110 712 LINE",
"110 0 LINE",
"164 0 LINE",
"164 335 LINE",
"535 335 LINE",
"535 0 LINE"
);
},
{
closed = 1;
nodes = (
"500 780 LINE",
"377 927 LINE",
"323 927 LINE",
"200 780 LINE",
"257 780 LINE",
"350 889 LINE",
"443 780 LINE"
);
}
);
};
components = (
{
name = H;
},
{
name = circumflex;
transform = "{1, 0, 0, 1, 132, 220}";
}
);
layerId = "3E7589AA-8194-470F-8E2F-13C1C581BE24";
width = 710;
},
{
background = {
paths = (
{
closed = 1;
nodes = (
"608 0 LINE",
"608 712 LINE",
"433 712 LINE",
"433 438 LINE",
"247 438 LINE",
"247 712 LINE",
"72 712 LINE",
"72 0 LINE",
"247 0 LINE",
"247 282 LINE",
"433 282 LINE",
"433 0 LINE"
);
},
{
closed = 1;
nodes = (
"541 782 LINE",
"405 961 LINE",
"275 961 LINE",
"139 782 LINE",
"261 782 LINE",
"340 865 LINE",
"419 782 LINE"
);
}
);
};
components = (
{
name = H;
},
{
name = circumflex;
transform = "{1, 0, 0, 1, 120, 210}";
}
);
layerId = "BFFFD157-90D3-4B85-B99D-9A2F366F03CA";
width = 730;
},
{
components = (
{
name = H;
},
{
name = circumflex;
transform = "{1, 0, 0, 1, 144, 232}";
}
);
layerId = "FA91A8E1-7324-47F6-AE85-AED49CFCD01C";
width = 660;
}
);
leftKerningGroup = H;
rightKerningGroup = H;
unicode = 0124;
},
{
glyphname = I;
lastChange = "2017-01-26 20:11:11 +0000";
layers = (
{
anchors = (
{
name = bottom;
position = "{153, 0}";
},
{
name = ogonek;
position = "{265, 0}";
},
{
name = top;
position = "{153, 700}";
},
{
name = topleft;
position = "{5, 700}";
}
);
layerId = "BFFFD157-90D3-4B85-B99D-9A2F366F03CA";
paths = (
{
closed = 1;
nodes = (
"265 700 LINE",
"40 700 LINE",
"40 0 LINE",
"265 0 LINE"
);
}
);
width = 305;
},
{
anchors = (
{
name = bottom;
position = "{132, 0}";
},
{
name = ogonek;
position = "{178, 0}";
},
{
name = top;
position = "{132, 700}";
},
{
name = topleft;
position = "{6, 700}";
}
);
hints = (
{
horizontal = 1;
origin = "{0, 2}";
type = Anchor;
},
{
horizontal = 1;
origin = "{0, 1}";
type = Anchor;
}
);
layerId = "3E7589AA-8194-470F-8E2F-13C1C581BE24";
paths = (
{
closed = 1;
nodes = (
"178 700 LINE",
"85 700 LINE",
"85 0 LINE",
"178 0 LINE"
);
}
);
width = 263;
},
{
anchors = (
{
name = bottom;
position = "{114, 0}";
},
{
name = ogonek;
position = "{117, 0}";
},
{
name = top;
position = "{114, 700}";
},
{
name = topleft;
position = "{10, 700}";
}
);
layerId = "FA91A8E1-7324-47F6-AE85-AED49CFCD01C";
paths = (
{
closed = 1;
nodes = (
"117 700 LINE",
"109 700 LINE",
"109 0 LINE",
"117 0 LINE"
);
}
);
width = 226;
}
);
leftKerningGroup = H;
leftMetricsKey = H;
rightKerningGroup = H;
rightMetricsKey = H;
unicode = 0049;
},
{
glyphname = IJ;
lastChange = "2017-01-10 12:40:51 +0000";
layers = (
{
background = {
paths = (
{
closed = 1;
nodes = (
"164 0 LINE",
"164 712 LINE",
"110 712 LINE",
"110 0 LINE"
);
},
{
closed = 1;
nodes = (
"672 712 LINE",
"618 712 LINE",
"618 221 LINE SMOOTH",
"618 106 OFFCURVE",
"563 42 OFFCURVE",
"460 42 CURVE SMOOTH",
"397 42 OFFCURVE",
"368 65 OFFCURVE",
"341 92 CURVE",
"304 55 LINE",
"345 14 OFFCURVE",
"397 -6 OFFCURVE",
"460 -6 CURVE SMOOTH",
"589 -6 OFFCURVE",
"672 80 OFFCURVE",
"672 210 CURVE SMOOTH"
);
}
);
};
components = (
{
name = I;
},
{
name = J;
transform = "{1, 0, 0, 1, 263, 0}";
}
);
layerId = "3E7589AA-8194-470F-8E2F-13C1C581BE24";
width = 571;
},
{
background = {
paths = (
{
closed = 1;
nodes = (
"247 0 LINE",
"247 712 LINE",
"72 712 LINE",
"72 0 LINE"
);
},
{
closed = 1;
nodes = (
"773 712 LINE",
"598 712 LINE",
"598 248 LINE SMOOTH",
"598 180 OFFCURVE",
"559 150 OFFCURVE",
"505 150 CURVE SMOOTH",
"466 150 OFFCURVE",
"448 164 OFFCURVE",
"426 186 CURVE",
"311 72 LINE",
"369 14 OFFCURVE",
"422 -6 OFFCURVE",
"505 -6 CURVE SMOOTH",
"639 -6 OFFCURVE",
"773 75 OFFCURVE",
"773 244 CURVE"
);
}
);
};
components = (
{
name = I;
},
{
name = J;
transform = "{1, 0, 0, 1, 305, 0}";
}
);
layerId = "BFFFD157-90D3-4B85-B99D-9A2F366F03CA";
width = 654;
},
{
components = (
{
name = I;
},
{
name = J;
transform = "{1, 0, 0, 1, 226, 0}";
}
);
layerId = "FA91A8E1-7324-47F6-AE85-AED49CFCD01C";
width = 508;
}
);
leftKerningGroup = H;
rightKerningGroup = J;
unicode = 0132;
},
{
glyphname = Ibreve;
lastChange = "2016-12-21 11:10:03 +0000";
layers = (
{
background = {
paths = (
{
closed = 1;
nodes = (
"164 0 LINE",
"164 712 LINE",
"110 712 LINE",
"110 0 LINE"
);
},
{
closed = 1;
nodes = (
"257 927 LINE",
"249 871 OFFCURVE",
"206 837 OFFCURVE",
"137 837 CURVE SMOOTH",
"68 837 OFFCURVE",
"25 871 OFFCURVE",
"17 927 CURVE",
"-28 927 LINE",
"-19 842 OFFCURVE",
"29 792 OFFCURVE",
"137 792 CURVE SMOOTH",
"245 792 OFFCURVE",
"293 842 OFFCURVE",
"302 927 CURVE"
);
}
);
};
components = (
{
name = I;
},
{
name = brevecomb.narrow;
transform = "{1, 0, 0, 1, -45, 220}";
}
);
layerId = "3E7589AA-8194-470F-8E2F-13C1C581BE24";
width = 263;
},
{
background = {
paths = (
{
closed = 1;
nodes = (
"247 0 LINE",
"247 712 LINE",
"72 712 LINE",
"72 0 LINE"
);
},
{
closed = 1;
nodes = (
"219 931 LINE",
"216 894 OFFCURVE",
"186 884 OFFCURVE",
"161 884 CURVE SMOOTH",
"136 884 OFFCURVE",
"106 894 OFFCURVE",
"103 931 CURVE",
"-3 931 LINE",
"0 813 OFFCURVE",
"84 774 OFFCURVE",
"161 774 CURVE SMOOTH",
"238 774 OFFCURVE",
"322 813 OFFCURVE",
"325 931 CURVE"
);
}
);
};
components = (
{
name = I;
},
{
name = brevecomb.narrow;
transform = "{1, 0, 0, 1, -71, 210}";
}
);
layerId = "BFFFD157-90D3-4B85-B99D-9A2F366F03CA";
width = 305;
},
{
components = (
{
name = I;
},
{
name = brevecomb.narrow;
transform = "{1, 0, 0, 1, -40, 232}";
}
);
layerId = "FA91A8E1-7324-47F6-AE85-AED49CFCD01C";
width = 226;
}
);
leftKerningGroup = H;
rightKerningGroup = H;
unicode = 012C;
},
{
glyphname = J;
lastChange = "2017-07-13 09:26:06 +0000";
layers = (
{
anchors = (
{
name = bottom;
position = "{26, -212}";
},
{
name = top;
position = "{195, 700}";
}
);
layerId = "BFFFD157-90D3-4B85-B99D-9A2F366F03CA";
paths = (
{
closed = 1;
nodes = (
"305 700 LINE",
"80 700 LINE",
"80 97 LINE SMOOTH",
"80 25 OFFCURVE",
"57 -7 OFFCURVE",
"-36 -25 CURVE",
"26 -212 LINE",
"233 -177 OFFCURVE",
"305 -65 OFFCURVE",
"305 100 CURVE SMOOTH"
);
}
);
width = 349;
},
{
anchors = (
{
name = bottom;
position = "{19, -209}";
},
{
name = top;
position = "{170, 700}";
}
);
hints = (
{
horizontal = 1;
origin = "{0, 6}";
type = Anchor;
},
{
horizontal = 1;
origin = "{0, 1}";
type = Anchor;
}
);
layerId = "3E7589AA-8194-470F-8E2F-13C1C581BE24";
paths = (
{
closed = 1;
nodes = (
"214 700 LINE",
"121 700 LINE",
"121 70 LINE SMOOTH",
"121 -52 OFFCURVE",
"79 -83 OFFCURVE",
"-18 -124 CURVE",
"19 -209 LINE",
"144 -155 OFFCURVE",
"214 -90 OFFCURVE",
"214 70 CURVE SMOOTH"
);
}
);
width = 308;
},
{
anchors = (
{
name = bottom;
position = "{17, -208}";
},
{
name = top;
position = "{160, 700}";
}
);
layerId = "FA91A8E1-7324-47F6-AE85-AED49CFCD01C";
paths = (
{
closed = 1;
nodes = (
"162 700 LINE",
"154 700 LINE",
"154 41 LINE SMOOTH",
"154 -105 OFFCURVE",
"84 -170 OFFCURVE",
"13 -200 CURVE",
"17 -207 LINE",
"90 -176 OFFCURVE",
"162 -109 OFFCURVE",
"162 44 CURVE SMOOTH"
);
}
);
width = 282;
}
);
leftKerningGroup = J;
rightKerningGroup = J;
rightMetricsKey = "=H*1.1";
unicode = 004A;
},
{
glyphname = Jcircumflex;
lastChange = "2016-12-21 11:26:32 +0000";
layers = (
{
background = {
paths = (
{
closed = 1;
nodes = (
"398 712 LINE",
"344 712 LINE",
"344 221 LINE SMOOTH",
"344 106 OFFCURVE",
"289 42 OFFCURVE",
"186 42 CURVE SMOOTH",
"123 42 OFFCURVE",
"94 65 OFFCURVE",
"67 92 CURVE",
"30 55 LINE",
"71 14 OFFCURVE",
"123 -6 OFFCURVE",
"186 -6 CURVE SMOOTH",
"315 -6 OFFCURVE",
"398 80 OFFCURVE",
"398 210 CURVE SMOOTH"
);
},
{
closed = 1;
nodes = (
"521 780 LINE",
"398 927 LINE",
"344 927 LINE",
"221 780 LINE",
"278 780 LINE",
"371 889 LINE",
"464 780 LINE"
);
}
);
};
components = (
{
name = J;
},
{
name = circumflexcomb.narrow;
transform = "{1, 0, 0, 1, -22, 220}";
}
);
layerId = "3E7589AA-8194-470F-8E2F-13C1C581BE24";
width = 308;
},
{
background = {
paths = (
{
closed = 1;
nodes = (
"454 712 LINE",
"279 712 LINE",
"279 248 LINE SMOOTH",
"279 180 OFFCURVE",
"240 150 OFFCURVE",
"186 150 CURVE SMOOTH",
"147 150 OFFCURVE",
"129 164 OFFCURVE",
"107 186 CURVE",
"-8 72 LINE",
"50 14 OFFCURVE",
"103 -6 OFFCURVE",
"186 -6 CURVE SMOOTH",
"320 -6 OFFCURVE",
"454 75 OFFCURVE",
"454 244 CURVE"
);
},
{
closed = 1;
nodes = (
"567 782 LINE",
"431 961 LINE",
"301 961 LINE",
"165 782 LINE",
"287 782 LINE",
"366 865 LINE",
"445 782 LINE"
);
}
);
};
components = (
{
name = J;
},
{
name = circumflexcomb.narrow;
transform = "{1, 0, 0, 1, -15, 210}";
}
);
layerId = "BFFFD157-90D3-4B85-B99D-9A2F366F03CA";
width = 349;
},
{
components = (
{
name = J;
},
{
name = circumflexcomb.narrow;
transform = "{1, 0, 0, 1, -6, 232}";
}
);
layerId = "FA91A8E1-7324-47F6-AE85-AED49CFCD01C";
width = 282;
}
);
leftKerningGroup = J;
rightKerningGroup = J;
unicode = 0134;
},
{
glyphname = K;
lastChange = "2017-07-15 10:54:26 +0000";
layers = (
{
anchors = (
{
name = bottom;
position = "{326, 0}";
},
{
name = top;
position = "{336, 700}";
}
);
background = {
paths = (
{
closed = 1;
nodes = (
"265 700 LINE",
"40 700 LINE",
"40 0 LINE",
"265 0 LINE"
);
},
{
closed = 1;
nodes = (
"691 14 LINE",
"652 88 OFFCURVE",
"616 153 OFFCURVE",
"572 227 CURVE SMOOTH",
"534 292 OFFCURVE",
"491 358 OFFCURVE",
"397 394 CURVE",
"391 252 LINE",
"482 316 OFFCURVE",
"522 377 OFFCURVE",
"557 450 CURVE SMOOTH",
"595 529 OFFCURVE",
"627 606 OFFCURVE",
"656 684 CURVE",
"651 700 LINE",
"419 700 LINE",
"400 634 OFFCURVE",
"372 553 OFFCURVE",
"342 477 CURVE SMOOTH",
"320 422 OFFCURVE",
"314 413 OFFCURVE",
"280 413 CURVE SMOOTH",
"176 413 LINE",
"176 188 LINE",
"280 188 LINE SMOOTH",
"311 188 OFFCURVE",
"323 182 OFFCURVE",
"343 149 CURVE SMOOTH",
"376 94 OFFCURVE",
"401 48 OFFCURVE",
"424 0 CURVE",
"688 0 LINE"
);
}
);
};
layerId = "BFFFD157-90D3-4B85-B99D-9A2F366F03CA";
paths = (
{
closed = 1;
nodes = (
"265 700 LINE",
"40 700 LINE",
"40 0 LINE",
"265 0 LINE"
);
},
{
closed = 1;
nodes = (
"716 0 LINE",
"496 353 LINE",
"691 700 LINE",
"428 700 LINE",
"281 418 LINE",
"225 418 LINE",
"244 66 LINE",
"321 183 LINE",
"337 183 LINE",
"436 0 LINE"
);
}
);
width = 706;
},
{
anchors = (
{
name = bottom;
position = "{299, 0}";
},
{
name = top;
position = "{299, 700}";
}
);
background = {
paths = (
{
closed = 1;
nodes = (
"178 700 LINE",
"85 700 LINE",
"85 0 LINE",
"178 0 LINE"
);
},
{
closed = 1;
nodes = (
"589 0 LINE",
"328 378 LINE",
"564 700 LINE",
"456 700 LINE",
"191 328 LINE",
"146 328 LINE",
"152 143 LINE",
"263 289 LINE",
"277 289 LINE",
"467 0 LINE"
);
}
);
};
hints = (
{
horizontal = 1;
origin = "{0, 1}";
type = Anchor;
},
{
horizontal = 1;
origin = "{0, 2}";
type = Anchor;
},
{
horizontal = 1;
origin = "{1, 9}";
type = Anchor;
},
{
horizontal = 1;
origin = "{1, 3}";
type = Anchor;
}
);
layerId = "3E7589AA-8194-470F-8E2F-13C1C581BE24";
paths = (
{
closed = 1;
nodes = (
"178 700 LINE",
"85 700 LINE",
"85 0 LINE",
"178 0 LINE"
);
},
{
closed = 1;
nodes = (
"589 0 LINE",
"333 375 LINE",
"564 700 LINE",
"456 700 LINE",
"191 328 LINE",
"146 328 LINE",
"152 143 LINE",
"263 289 LINE",
"277 289 LINE",
"467 0 LINE"
);
}
);
width = 609;
},
{
anchors = (
{
name = bottom;
position = "{283, 0}";
},
{
name = top;
position = "{277, 700}";
}
);
layerId = "FA91A8E1-7324-47F6-AE85-AED49CFCD01C";
paths = (
{
closed = 1;
nodes = (
"117 700 LINE",
"109 700 LINE",
"109 0 LINE",
"117 0 LINE"
);
},
{
closed = 1;
nodes = (
"553 0 LINE",
"259 343 LINE",
"513 700 LINE",
"504 700 LINE",
"122 165 LINE",
"113 165 LINE",
"115 142 LINE",
"252 334 LINE",
"256 334 LINE",
"541 0 LINE"
);
}
);
width = 583;
}
);
leftKerningGroup = H;
leftMetricsKey = H;
rightKerningGroup = K;
unicode = 004B;
},
{
glyphname = L;
lastChange = "2017-07-15 09:01:35 +0000";
layers = (
{
anchors = (
{
name = bottom;
position = "{265, 0}";
},
{
name = center;
position = "{255, 350}";
},
{
name = top;
position = "{172, 700}";
},
{
name = topright;
position = "{285, 490}";
}
);
layerId = "BFFFD157-90D3-4B85-B99D-9A2F366F03CA";
paths = (
{
closed = 1;
nodes = (
"265 700 LINE",
"40 700 LINE",
"40 0 LINE",
"265 0 LINE"
);
},
{
closed = 1;
nodes = (
"170 215 LINE",
"162 0 LINE",
"495 0 LINE",
"495 215 LINE"
);
}
);
width = 520;
},
{
anchors = (
{
name = bottom;
position = "{286, 0}";
},
{
name = center;
position = "{256, 350}";
},
{
name = top;
position = "{165, 700}";
},
{
name = topright;
position = "{198, 480}";
}
);
hints = (
{
horizontal = 1;
origin = "{0, 1}";
type = Anchor;
},
{
horizontal = 1;
origin = "{1, 2}";
target = "{1, 3}";
type = TTStem;
stem = 2;
options = 4;
}
);
layerId = "3E7589AA-8194-470F-8E2F-13C1C581BE24";
paths = (
{
closed = 1;
nodes = (
"178 700 LINE",
"85 700 LINE",
"85 0 LINE",
"178 0 LINE"
);
},
{
closed = 1;
nodes = (
"139 91 LINE",
"137 0 LINE",
"491 0 LINE",
"491 91 LINE"
);
}
);
width = 527;
},
{
anchors = (
{
name = bottom;
position = "{272, 0}";
},
{
name = center;
position = "{252, 350}";
},
{
name = top;
position = "{134, 700}";
},
{
name = topright;
position = "{138, 468}";
}
);
layerId = "FA91A8E1-7324-47F6-AE85-AED49CFCD01C";
paths = (
{
closed = 1;
nodes = (
"117 700 LINE",
"109 700 LINE",
"109 0 LINE",
"117 0 LINE"
);
},
{
closed = 1;
nodes = (
"114 8 LINE",
"114 0 LINE",
"480 0 LINE",
"480 8 LINE"
);
}
);
width = 523;
}
);
leftKerningGroup = H;
leftMetricsKey = H;
rightKerningGroup = L;
unicode = 004C;
},
{
glyphname = Lslash;
lastChange = "2017-07-13 12:59:18 +0000";
layers = (
{
components = (
{
name = L;
transform = "{1, 0, 0, 1, 20, 0}";
}
);
layerId = "3E7589AA-8194-470F-8E2F-13C1C581BE24";
paths = (
{
closed = 1;
nodes = (
"372 424 LINE",
"29 357 LINE",
"29 277 LINE",
"372 342 LINE"
);
}
);
width = 557;
},
{
components = (
{
name = L;
transform = "{1, 0, 0, 1, 20, 0}";
}
);
layerId = "BFFFD157-90D3-4B85-B99D-9A2F366F03CA";
paths = (
{
closed = 1;
nodes = (
"448 472 LINE",
"13 414 LINE",
"13 249 LINE",
"448 304 LINE"
);
}
);
width = 540;
},
{
components = (
{
name = L;
transform = "{1, 0, 0, 1, 42, 0}";
}
);
layerId = "FA91A8E1-7324-47F6-AE85-AED49CFCD01C";
paths = (
{
closed = 1;
nodes = (
"345 347 LINE",
"62 282 LINE",
"62 274 LINE",
"345 339 LINE"
);
}
);
width = 565;
}
);
rightKerningGroup = L;
rightMetricsKey = L;
unicode = 0141;
},
{
glyphname = M;
lastChange = "2017-07-13 13:08:26 +0000";
layers = (
{
anchors = (
{
name = bottom;
position = "{499, 0}";
},
{
name = top;
position = "{499, 700}";
}
);
layerId = "BFFFD157-90D3-4B85-B99D-9A2F366F03CA";
paths = (
{
closed = 1;
nodes = (
"892 700 LINE",
"582 700 LINE",
"511 343 LINE",
"490 343 LINE",
"403 700 LINE",
"99 700 LINE",
"32 0 LINE",
"255 0 LINE",
"277 364 LINE",
"300 364 LINE",
"379 10 LINE",
"597 10 LINE",
"671 364 LINE",
"694 364 LINE",
"720 0 LINE",
"966 0 LINE"
);
}
);
width = 998;
},
{
anchors = (
{
name = bottom;
position = "{455, 0}";
},
{
name = top;
position = "{455, 700}";
}
);
background = {
paths = (
{
closed = 1;
nodes = (
"897 0 LINE",
"743 700 LINE",
"593 700 LINE",
"448 155 LINE",
"442 155 LINE",
"303 700 LINE",
"153 700 LINE",
"0 0 LINE",
"96 0 LINE",
"220 607 LINE",
"241 607 LINE",
"394 10 LINE",
"502 10 LINE",
"660 607 LINE",
"681 607 LINE",
"803 0 LINE"
);
}
);
};
hints = (
{
horizontal = 1;
origin = "{0, 6}";
type = Anchor;
},
{
horizontal = 1;
origin = "{0, 5}";
target = "{0, 8}";
type = TTStem;
options = 4;
},
{
horizontal = 1;
origin = "{0, 10}";
target = "{0, 3}";
type = TTStem;
options = 4;
},
{
horizontal = 1;
origin = "{0, 14}";
type = Anchor;
},
{
horizontal = 1;
origin = "{0, 5}";
target = "{0, 1}";
type = Align;
options = 4;
},
{
horizontal = 1;
origin = "{0, 8}";
target = "{0, 12}";
type = Align;
options = 4;
}
);
layerId = "3E7589AA-8194-470F-8E2F-13C1C581BE24";
paths = (
{
closed = 1;
nodes = (
"772 700 LINE",
"628 700 LINE",
"460 126 LINE",
"454 126 LINE",
"281 700 LINE",
"136 700 LINE",
"68 0 LINE",
"157 0 LINE",
"211 588 LINE",
"227 588 LINE",
"401 10 LINE",
"505 10 LINE",
"675 588 LINE",
"691 588 LINE",
"753 0 LINE",
"842 0 LINE"
);
}
);
width = 910;
},
{
anchors = (
{
name = bottom;
position = "{432, 0}";
},
{
name = top;
position = "{433, 700}";
}
);
layerId = "FA91A8E1-7324-47F6-AE85-AED49CFCD01C";
paths = (
{
closed = 1;
nodes = (
"688 700 LINE",
"670 700 LINE",
"433 15 LINE",
"431 15 LINE",
"195 700 LINE",
"177 700 LINE",
"87 0 LINE",
"94 0 LINE",
"184 691 LINE",
"190 691 LINE",
"426 3 LINE",
"437 3 LINE",
"675 691 LINE",
"681 691 LINE",
"773 0 LINE",
"780 0 LINE"
);
}
);
width = 867;
}
);
leftKerningGroup = M;
leftMetricsKey = "=H*.8";
rightKerningGroup = M;
rightMetricsKey = "=H*.8";
unicode = 004D;
},
{
glyphname = N;
lastChange = "2017-04-23 11:54:54 +0000";
layers = (
{
anchors = (
{
name = bottom;
position = "{360, 0}";
},
{
name = top;
position = "{360, 700}";
},
{
name = topright;
position = "{710, 700}";
}
);
background = {
paths = (
{
closed = 1;
nodes = (
"465 393 LINE",
"225 700 LINE",
"40 700 LINE",
"40 0 LINE",
"255 0 LINE",
"255 298 LINE",
"495 0 LINE",
"680 0 LINE",
"680 700 LINE",
"465 700 LINE"
);
}
);
};
layerId = "BFFFD157-90D3-4B85-B99D-9A2F366F03CA";
paths = (
{
closed = 1;
nodes = (
"465 284 LINE",
"536 305 LINE",
"225 700 LINE",
"40 700 LINE",
"40 0 LINE",
"255 0 LINE",
"255 407 LINE",
"183 385 LINE",
"495 0 LINE",
"680 0 LINE",
"680 700 LINE",
"465 700 LINE"
);
}
);
width = 720;
},
{
anchors = (
{
name = bottom;
position = "{355, 0}";
},
{
name = top;
position = "{355, 700}";
},
{
name = topright;
position = "{695, 700}";
}
);
hints = (
{
horizontal = 1;
origin = "{0, 4}";
type = Anchor;
},
{
horizontal = 1;
origin = "{0, 3}";
type = Anchor;
},
{
horizontal = 1;
origin = "{0, 3}";
target = "{0, 11}";
type = Align;
options = 4;
},
{
horizontal = 1;
origin = "{0, 4}";
target = "{0, 8}";
type = Align;
options = 4;
}
);
layerId = "3E7589AA-8194-470F-8E2F-13C1C581BE24";
paths = (
{
closed = 1;
nodes = (
"535 137 LINE",
"558 144 LINE",
"165 700 LINE",
"85 700 LINE",
"85 0 LINE",
"175 0 LINE",
"175 565 LINE",
"152 558 LINE",
"545 0 LINE",
"625 0 LINE",
"625 700 LINE",
"535 700 LINE"
);
}
);
width = 710;
},
{
anchors = (
{
name = bottom;
position = "{340, 0}";
},
{
name = top;
position = "{340, 700}";
},
{
name = topright;
position = "{661, 700}";
}
);
layerId = "FA91A8E1-7324-47F6-AE85-AED49CFCD01C";
paths = (
{
closed = 1;
nodes = (
"563 17 LINE",
"565 17 LINE",
"115 700 LINE",
"109 700 LINE",
"109 0 LINE",
"117 0 LINE",
"117 684 LINE",
"115 684 LINE",
"566 0 LINE",
"571 0 LINE",
"571 700 LINE",
"563 700 LINE"
);
}
);
width = 680;
}
);
leftKerningGroup = H;
leftMetricsKey = H;
rightKerningGroup = H;
rightMetricsKey = H;
unicode = 004E;
},
{
glyphname = Eng;
lastChange = "2017-07-13 09:26:18 +0000";
layers = (
{
anchors = (
{
name = bottom;
position = "{355, 0}";
},
{
name = top;
position = "{355, 700}";
},
{
name = topright;
position = "{695, 700}";
}
);
hints = (
{
horizontal = 1;
origin = "{0, 2}";
type = Anchor;
},
{
horizontal = 1;
origin = "{0, 2}";
target = "{0, 9}";
type = Align;
options = 4;
},
{
horizontal = 1;
origin = "{0, 3}";
type = Anchor;
},
{
horizontal = 1;
origin = "{1, 6}";
type = Anchor;
}
);
layerId = "3E7589AA-8194-470F-8E2F-13C1C581BE24";
paths = (
{
closed = 1;
nodes = (
"535 177 LINE",
"165 700 LINE",
"85 700 LINE",
"85 0 LINE",
"175 0 LINE",
"175 525 LINE",
"545 0 LINE",
"625 93 LINE",
"625 700 LINE",
"535 700 LINE"
);
},
{
closed = 1;
nodes = (
"625 113 LINE",
"532 113 LINE",
"532 70 LINE SMOOTH",
"532 -52 OFFCURVE",
"490 -83 OFFCURVE",
"392 -119 CURVE",
"430 -209 LINE",
"555 -155 OFFCURVE",
"625 -90 OFFCURVE",
"625 70 CURVE SMOOTH"
);
}
);
width = 710;
},
{
anchors = (
{
name = bottom;
position = "{360, 0}";
},
{
name = top;
position = "{360, 700}";
},
{
name = topright;
position = "{710, 700}";
}
);
layerId = "BFFFD157-90D3-4B85-B99D-9A2F366F03CA";
paths = (
{
closed = 1;
nodes = (
"465 393 LINE",
"225 700 LINE",
"40 700 LINE",
"40 0 LINE",
"255 0 LINE",
"255 298 LINE",
"495 0 LINE",
"680 148 LINE",
"680 700 LINE",
"465 700 LINE"
);
},
{
closed = 1;
nodes = (
"680 222 LINE",
"455 229 LINE",
"455 97 LINE SMOOTH",
"455 25 OFFCURVE",
"432 -7 OFFCURVE",
"339 -25 CURVE",
"401 -212 LINE",
"608 -177 OFFCURVE",
"680 -65 OFFCURVE",
"680 100 CURVE SMOOTH"
);
}
);
width = 720;
},
{
anchors = (
{
name = bottom;
position = "{355, 0}";
},
{
name = top;
position = "{355, 700}";
},
{
name = topright;
position = "{695, 700}";
}
);
layerId = "FA91A8E1-7324-47F6-AE85-AED49CFCD01C";
paths = (
{
closed = 1;
nodes = (
"564 18 LINE",
"115 700 LINE",
"109 700 LINE",
"109 0 LINE",
"117 0 LINE",
"117 681 LINE",
"566 0 LINE",
"572 57 LINE",
"571 700 LINE",
"563 700 LINE"
);
},
{
closed = 1;
nodes = (
"572 79 LINE",
"564 79 LINE",
"564 41 LINE SMOOTH",
"564 -104 OFFCURVE",
"494 -170 OFFCURVE",
"423 -200 CURVE",
"427 -207 LINE",
"500 -176 OFFCURVE",
"572 -108 OFFCURVE",
"572 44 CURVE SMOOTH"
);
}
);
width = 681;
}
);
leftKerningGroup = H;
leftMetricsKey = N;
rightKerningGroup = J;
rightMetricsKey = N;
unicode = 014A;
},
{
glyphname = O;
lastChange = "2017-07-13 13:10:17 +0000";
layers = (
{
anchors = (
{
name = bottom;
position = "{376, 0}";
},
{
name = center;
position = "{376, 350}";
},
{
name = horn;
position = "{610, 630}";
},
{
name = ogonek;
position = "{499, 10}";
},
{
name = top;
position = "{376, 700}";
},
{
name = topleft;
position = "{15, 700}";
},
{
name = topright;
position = "{737, 700}";
}
);
background = {
paths = (
{
closed = 1;
nodes = (
"457 212 OFFCURVE",
"431 170 OFFCURVE",
"369 170 CURVE SMOOTH",
"310 170 OFFCURVE",
"283 212 OFFCURVE",
"283 320 CURVE SMOOTH",
"283 376 OFFCURVE",
"288 446 OFFCURVE",
"297 482 CURVE",
"316 489 OFFCURVE",
"345 494 OFFCURVE",
"373 494 CURVE SMOOTH",
"403 494 OFFCURVE",
"429 488 OFFCURVE",
"448 481 CURVE",
"453 451 OFFCURVE",
"457 386 OFFCURVE",
"457 328 CURVE SMOOTH"
);
},
{
closed = 1;
nodes = (
"684 379 CURVE SMOOTH",
"684 479 OFFCURVE",
"668 592 OFFCURVE",
"640 667 CURVE",
"566 697 OFFCURVE",
"499 710 OFFCURVE",
"394 710 CURVE SMOOTH",
"178 710 OFFCURVE",
"57 601 OFFCURVE",
"57 322 CURVE SMOOTH",
"57 92 OFFCURVE",
"173 -10 OFFCURVE",
"363 -10 CURVE SMOOTH",
"592 -10 OFFCURVE",
"684 97 OFFCURVE"
);
}
);
};
layerId = "BFFFD157-90D3-4B85-B99D-9A2F366F03CA";
paths = (
{
closed = 1;
nodes = (
"585 -15 OFFCURVE",
"723 114 OFFCURVE",
"723 354 CURVE SMOOTH",
"723 584 OFFCURVE",
"594 715 OFFCURVE",
"383 715 CURVE SMOOTH",
"167 715 OFFCURVE",
"30 585 OFFCURVE",
"30 342 CURVE SMOOTH",
"30 111 OFFCURVE",
"161 -15 OFFCURVE",
"371 -15 CURVE SMOOTH"
);
},
{
closed = 1;
nodes = (
"305 199 OFFCURVE",
"266 251 OFFCURVE",
"266 348 CURVE SMOOTH",
"266 446 OFFCURVE",
"305 492 OFFCURVE",
"376 492 CURVE SMOOTH",
"450 492 OFFCURVE",
"488 446 OFFCURVE",
"488 345 CURVE SMOOTH",
"488 248 OFFCURVE",
"450 199 OFFCURVE",
"379 199 CURVE SMOOTH"
);
}
);
width = 753;
},
{
anchors = (
{
name = bottom;
position = "{373, 0}";
},
{
name = center;
position = "{373, 350}";
},
{
name = horn;
position = "{589, 630}";
},
{
name = ogonek;
position = "{459, 0}";
},
{
name = top;
position = "{373, 700}";
},
{
name = topleft;
position = "{15, 700}";
},
{
name = topright;
position = "{731, 700}";
}
);
hints = (
{
horizontal = 1;
origin = "{0, 11}";
target = "{1, 11}";
type = TTStem;
stem = 2;
options = 4;
},
{
horizontal = 1;
origin = "{0, 5}";
target = "{1, 5}";
type = TTStem;
stem = 2;
options = 4;
}
);
layerId = "3E7589AA-8194-470F-8E2F-13C1C581BE24";
paths = (
{
closed = 1;
nodes = (
"564 -12 OFFCURVE",
"691 113 OFFCURVE",
"691 350 CURVE SMOOTH",
"691 580 OFFCURVE",
"573 712 OFFCURVE",
"377 712 CURVE SMOOTH",
"181 712 OFFCURVE",
"55 585 OFFCURVE",
"55 342 CURVE SMOOTH",
"55 114 OFFCURVE",
"175 -12 OFFCURVE",
"368 -12 CURVE SMOOTH"
);
},
{
closed = 1;
nodes = (
"224 78 OFFCURVE",
"148 172 OFFCURVE",
"148 349 CURVE SMOOTH",
"148 532 OFFCURVE",
"229 621 OFFCURVE",
"372 621 CURVE SMOOTH",
"518 621 OFFCURVE",
"598 529 OFFCURVE",
"598 343 CURVE SMOOTH",
"598 167 OFFCURVE",
"519 78 OFFCURVE",
"374 78 CURVE SMOOTH"
);
}
);
width = 746;
},
{
anchors = (
{
name = bottom;
position = "{374, 0}";
},
{
name = center;
position = "{374, 350}";
},
{
name = horn;
position = "{573, 630}";
},
{
name = ogonek;
position = "{450, 0}";
},
{
name = top;
position = "{374, 700}";
},
{
name = topleft;
position = "{15, 700}";
},
{
name = topright;
position = "{733, 700}";
}
);
layerId = "FA91A8E1-7324-47F6-AE85-AED49CFCD01C";
paths = (
{
closed = 1;
nodes = (
"544 -7 OFFCURVE",
"665 105 OFFCURVE",
"665 348 CURVE SMOOTH",
"665 588 OFFCURVE",
"549 707 OFFCURVE",
"376 707 CURVE SMOOTH",
"203 707 OFFCURVE",
"83 585 OFFCURVE",
"83 349 CURVE SMOOTH",
"83 110 OFFCURVE",
"202 -7 OFFCURVE",
"375 -7 CURVE SMOOTH"
);
},
{
closed = 1;
nodes = (
"207 1 OFFCURVE",
"91 115 OFFCURVE",
"91 348 CURVE SMOOTH",
"91 583 OFFCURVE",
"208 699 OFFCURVE",
"377 699 CURVE SMOOTH",
"544 699 OFFCURVE",
"657 583 OFFCURVE",
"657 349 CURVE SMOOTH",
"657 108 OFFCURVE",
"539 1 OFFCURVE",
"374 1 CURVE SMOOTH"
);
}
);
width = 748;
}
);
leftKerningGroup = O;
rightKerningGroup = O;
unicode = 004F;
},
{
glyphname = Obreve;
lastChange = "2016-12-02 12:12:12 +0000";
layers = (
{
background = {
paths = (
{
closed = 1;
nodes = (
"570 529 OFFCURVE",
"565 584 OFFCURVE",
"499 650 CURVE SMOOTH",
"457 692 OFFCURVE",
"397 718 OFFCURVE",
"326 718 CURVE SMOOTH",
"255 718 OFFCURVE",
"195 692 OFFCURVE",
"153 650 CURVE SMOOTH",
"87 584 OFFCURVE",
"82 529 OFFCURVE",
"82 356 CURVE SMOOTH",
"82 183 OFFCURVE",
"87 128 OFFCURVE",
"153 62 CURVE SMOOTH",
"195 20 OFFCURVE",
"255 -6 OFFCURVE",
"326 -6 CURVE SMOOTH",
"397 -6 OFFCURVE",
"457 20 OFFCURVE",
"499 62 CURVE SMOOTH",
"565 128 OFFCURVE",
"570 183 OFFCURVE",
"570 356 CURVE SMOOTH"
);
},
{
closed = 1;
nodes = (
"516 206 OFFCURVE",
"512 148 OFFCURVE",
"461 97 CURVE SMOOTH",
"424 60 OFFCURVE",
"378 42 OFFCURVE",
"326 42 CURVE SMOOTH",
"274 42 OFFCURVE",
"228 60 OFFCURVE",
"191 97 CURVE SMOOTH",
"140 148 OFFCURVE",
"136 206 OFFCURVE",
"136 356 CURVE SMOOTH",
"136 506 OFFCURVE",
"140 564 OFFCURVE",
"191 615 CURVE SMOOTH",
"228 652 OFFCURVE",
"274 670 OFFCURVE",
"326 670 CURVE SMOOTH",
"378 670 OFFCURVE",
"424 652 OFFCURVE",
"461 615 CURVE SMOOTH",
"512 564 OFFCURVE",
"516 506 OFFCURVE",
"516 356 CURVE SMOOTH"
);
},
{
closed = 1;
nodes = (
"446 927 LINE",
"438 871 OFFCURVE",
"395 837 OFFCURVE",
"326 837 CURVE SMOOTH",
"257 837 OFFCURVE",
"214 871 OFFCURVE",
"206 927 CURVE",
"161 927 LINE",
"170 842 OFFCURVE",
"218 792 OFFCURVE",
"326 792 CURVE SMOOTH",
"434 792 OFFCURVE",
"482 842 OFFCURVE",
"491 927 CURVE"
);
}
);
};
components = (
{
name = O;
},
{
name = breve;
transform = "{1, 0, 0, 1, 176, 220}";
}
);
layerId = "3E7589AA-8194-470F-8E2F-13C1C581BE24";
width = 746;
},
{
background = {
paths = (
{
closed = 1;
nodes = (
"591 476 OFFCURVE",
"591 567 OFFCURVE",
"518 640 CURVE SMOOTH",
"467 691 OFFCURVE",
"407 718 OFFCURVE",
"320 718 CURVE SMOOTH",
"233 718 OFFCURVE",
"173 691 OFFCURVE",
"122 640 CURVE SMOOTH",
"49 567 OFFCURVE",
"49 476 OFFCURVE",
"49 356 CURVE SMOOTH",
"49 236 OFFCURVE",
"49 145 OFFCURVE",
"122 72 CURVE SMOOTH",
"173 21 OFFCURVE",
"233 -6 OFFCURVE",
"320 -6 CURVE SMOOTH",
"407 -6 OFFCURVE",
"467 21 OFFCURVE",
"518 72 CURVE SMOOTH",
"591 145 OFFCURVE",
"591 236 OFFCURVE",
"591 356 CURVE SMOOTH"
);
},
{
closed = 1;
nodes = (
"416 226 OFFCURVE",
"406 203 OFFCURVE",
"390 182 CURVE SMOOTH",
"377 165 OFFCURVE",
"352 150 OFFCURVE",
"320 150 CURVE SMOOTH",
"288 150 OFFCURVE",
"263 165 OFFCURVE",
"250 182 CURVE SMOOTH",
"234 203 OFFCURVE",
"224 226 OFFCURVE",
"224 356 CURVE SMOOTH",
"224 486 OFFCURVE",
"234 510 OFFCURVE",
"250 531 CURVE SMOOTH",
"263 548 OFFCURVE",
"288 562 OFFCURVE",
"320 562 CURVE SMOOTH",
"352 562 OFFCURVE",
"377 548 OFFCURVE",
"390 531 CURVE SMOOTH",
"406 510 OFFCURVE",
"416 486 OFFCURVE",
"416 356 CURVE SMOOTH"
);
},
{
closed = 1;
nodes = (
"379 931 LINE",
"376 894 OFFCURVE",
"346 884 OFFCURVE",
"321 884 CURVE SMOOTH",
"296 884 OFFCURVE",
"266 894 OFFCURVE",
"263 931 CURVE",
"157 931 LINE",
"160 813 OFFCURVE",
"244 774 OFFCURVE",
"321 774 CURVE SMOOTH",
"398 774 OFFCURVE",
"482 813 OFFCURVE",
"485 931 CURVE"
);
}
);
};
components = (
{
name = O;
},
{
name = breve;
transform = "{1, 0, 0, 1, 122, 210}";
}
);
layerId = "BFFFD157-90D3-4B85-B99D-9A2F366F03CA";
width = 753;
},
{
components = (
{
name = O;
},
{
name = breve;
transform = "{1, 0, 0, 1, 200, 232}";
}
);
layerId = "FA91A8E1-7324-47F6-AE85-AED49CFCD01C";
width = 748;
}
);
leftKerningGroup = O;
leftMetricsKey = auto;
rightKerningGroup = O;
rightMetricsKey = auto;
unicode = 014E;
},
{
glyphname = Oslashacute;
lastChange = "2017-04-22 14:42:25 +0000";
layers = (
{
background = {
paths = (
{
closed = 1;
nodes = (
"570 529 OFFCURVE",
"566 584 OFFCURVE",
"495 654 CURVE",
"544 756 LINE",
"491 756 LINE",
"456 683 LINE",
"420 705 OFFCURVE",
"375 718 OFFCURVE",
"326 718 CURVE SMOOTH",
"255 718 OFFCURVE",
"195 692 OFFCURVE",
"153 650 CURVE SMOOTH",
"87 584 OFFCURVE",
"82 529 OFFCURVE",
"82 356 CURVE SMOOTH",
"82 183 OFFCURVE",
"86 127 OFFCURVE",
"157 58 CURVE",
"108 -44 LINE",
"161 -44 LINE",
"196 29 LINE",
"233 7 OFFCURVE",
"276 -6 OFFCURVE",
"326 -6 CURVE SMOOTH",
"397 -6 OFFCURVE",
"457 20 OFFCURVE",
"499 62 CURVE SMOOTH",
"565 128 OFFCURVE",
"570 183 OFFCURVE",
"570 356 CURVE SMOOTH"
);
},
{
closed = 1;
nodes = (
"181 108 LINE",
"139 156 OFFCURVE",
"136 216 OFFCURVE",
"136 356 CURVE SMOOTH",
"136 506 OFFCURVE",
"140 564 OFFCURVE",
"191 615 CURVE SMOOTH",
"228 652 OFFCURVE",
"274 670 OFFCURVE",
"326 670 CURVE SMOOTH",
"366 670 OFFCURVE",
"402 659 OFFCURVE",
"434 637 CURVE"
);
},
{
closed = 1;
nodes = (
"516 206 OFFCURVE",
"512 148 OFFCURVE",
"461 97 CURVE SMOOTH",
"424 60 OFFCURVE",
"378 42 OFFCURVE",
"326 42 CURVE SMOOTH",
"285 42 OFFCURVE",
"250 53 OFFCURVE",
"218 75 CURVE",
"471 604 LINE",
"512 555 OFFCURVE",
"516 495 OFFCURVE",
"516 356 CURVE SMOOTH"
);
},
{
closed = 1;
nodes = (
"443 927 LINE",
"376 927 LINE",
"279 780 LINE",
"337 780 LINE"
);
}
);
};
components = (
{
name = Oslash;
},
{
name = acute;
transform = "{1, 0, 0, 1, 255, 232}";
}
);
layerId = "3E7589AA-8194-470F-8E2F-13C1C581BE24";
width = 746;
},
{
background = {
paths = (
{
closed = 1;
nodes = (
"591 476 OFFCURVE",
"591 567 OFFCURVE",
"516 642 CURVE",
"570 756 LINE",
"452 756 LINE",
"425 700 LINE",
"395 712 OFFCURVE",
"360 718 OFFCURVE",
"320 718 CURVE SMOOTH",
"233 718 OFFCURVE",
"173 691 OFFCURVE",
"122 640 CURVE SMOOTH",
"49 567 OFFCURVE",
"49 476 OFFCURVE",
"49 356 CURVE SMOOTH",
"49 236 OFFCURVE",
"49 145 OFFCURVE",
"125 69 CURVE",
"70 -44 LINE",
"188 -44 LINE",
"215 12 LINE",
"245 0 OFFCURVE",
"280 -6 OFFCURVE",
"320 -6 CURVE SMOOTH",
"407 -6 OFFCURVE",
"467 21 OFFCURVE",
"518 72 CURVE SMOOTH",
"591 145 OFFCURVE",
"591 236 OFFCURVE",
"591 356 CURVE SMOOTH"
);
},
{
closed = 1;
nodes = (
"416 226 OFFCURVE",
"406 203 OFFCURVE",
"390 182 CURVE SMOOTH",
"377 165 OFFCURVE",
"352 150 OFFCURVE",
"320 150 CURVE SMOOTH",
"303 150 OFFCURVE",
"288 154 OFFCURVE",
"276 161 CURVE",
"413 449 LINE",
"415 426 OFFCURVE",
"416 396 OFFCURVE",
"416 356 CURVE SMOOTH"
);
},
{
closed = 1;
nodes = (
"227 263 LINE",
"225 286 OFFCURVE",
"224 316 OFFCURVE",
"224 356 CURVE SMOOTH",
"224 486 OFFCURVE",
"234 510 OFFCURVE",
"250 531 CURVE SMOOTH",
"263 548 OFFCURVE",
"288 562 OFFCURVE",
"320 562 CURVE SMOOTH",
"337 562 OFFCURVE",
"352 558 OFFCURVE",
"364 552 CURVE"
);
},
{
closed = 1;
nodes = (
"471 962 LINE",
"318 962 LINE",
"253 782 LINE",
"370 782 LINE"
);
}
);
};
components = (
{
name = Oslash;
},
{
name = acute;
transform = "{1, 0, 0, 1, 167, 225}";
}
);
layerId = "BFFFD157-90D3-4B85-B99D-9A2F366F03CA";
width = 753;
},
{
components = (
{
name = Oslash;
},
{
name = acute;
transform = "{1, 0, 0, 1, 313, 243}";
}
);
layerId = "FA91A8E1-7324-47F6-AE85-AED49CFCD01C";
width = 748;
}
);
leftKerningGroup = O;
rightKerningGroup = O;
unicode = 01FE;
},
{
glyphname = P;
lastChange = "2017-07-15 10:23:38 +0000";
layers = (
{
anchors = (
{
name = bottom;
position = "{159, 0}";
},
{
name = top;
position = "{283, 700}";
}
);
background = {
paths = (
{
closed = 1;
nodes = (
"562 700 LINE",
"188 700 LINE",
"10 0 LINE",
"236 0 LINE",
"343 490 LINE",
"372 490 LINE",
"481 0 LINE",
"737 0 LINE"
);
},
{
closed = 1;
nodes = (
"159 298 LINE",
"151 113 LINE",
"593 113 LINE",
"597 298 LINE"
);
}
);
};
layerId = "BFFFD157-90D3-4B85-B99D-9A2F366F03CA";
paths = (
{
closed = 1;
nodes = (
"265 635 LINE",
"40 700 LINE",
"40 0 LINE",
"265 0 LINE"
);
},
{
closed = 1;
nodes = (
"509 131 OFFCURVE",
"607 249 OFFCURVE",
"607 420 CURVE SMOOTH",
"607 591 OFFCURVE",
"511 708 OFFCURVE",
"248 708 CURVE SMOOTH",
"204 708 OFFCURVE",
"120 706 OFFCURVE",
"40 700 CURVE",
"217 488 LINE",
"246 495 OFFCURVE",
"280 498 OFFCURVE",
"302 498 CURVE SMOOTH",
"366 498 OFFCURVE",
"389 462 OFFCURVE",
"389 410 CURVE SMOOTH",
"389 359 OFFCURVE",
"364 330 OFFCURVE",
"302 330 CURVE SMOOTH",
"273 330 OFFCURVE",
"243 333 OFFCURVE",
"214 338 CURVE",
"179 139 LINE",
"221 134 OFFCURVE",
"264 131 OFFCURVE",
"306 131 CURVE SMOOTH"
);
}
);
width = 625;
},
{
anchors = (
{
name = bottom;
position = "{133, 0}";
},
{
name = top;
position = "{274, 700}";
}
);
hints = (
{
horizontal = 1;
origin = "{0, 2}";
type = Anchor;
},
{
horizontal = 1;
origin = "{1, 25}";
target = "{1, 18}";
type = TTStem;
stem = 2;
},
{
horizontal = 1;
origin = "{1, 5}";
target = "{1, 12}";
type = TTStem;
stem = 2;
options = 4;
}
);
layerId = "3E7589AA-8194-470F-8E2F-13C1C581BE24";
paths = (
{
closed = 1;
nodes = (
"178 656 LINE",
"85 700 LINE",
"85 0 LINE",
"178 0 LINE"
);
},
{
closed = 1;
nodes = (
"454 217 OFFCURVE",
"538 317 OFFCURVE",
"538 464 CURVE SMOOTH",
"538 603 OFFCURVE",
"459 708 OFFCURVE",
"234 708 CURVE SMOOTH",
"201 708 OFFCURVE",
"148 706 OFFCURVE",
"85 700 CURVE",
"138 610 LINE",
"176 615 OFFCURVE",
"210 616 OFFCURVE",
"230 616 CURVE SMOOTH",
"387 616 OFFCURVE",
"445 556 OFFCURVE",
"445 459 CURVE SMOOTH",
"445 362 OFFCURVE",
"390 309 OFFCURVE",
"255 309 CURVE SMOOTH",
"223 309 OFFCURVE",
"181 311 OFFCURVE",
"139 317 CURVE",
"137 225 LINE",
"176 219 OFFCURVE",
"215 217 OFFCURVE",
"254 217 CURVE SMOOTH"
);
}
);
width = 571;
},
{
anchors = (
{
name = bottom;
position = "{112, 0}";
},
{
name = top;
position = "{270, 700}";
}
);
layerId = "FA91A8E1-7324-47F6-AE85-AED49CFCD01C";
paths = (
{
closed = 1;
nodes = (
"117 696 LINE",
"109 699 LINE",
"109 0 LINE",
"118 0 LINE"
);
},
{
closed = 1;
nodes = (
"404 258 OFFCURVE",
"510 320 OFFCURVE",
"510 480 CURVE SMOOTH",
"510 630 OFFCURVE",
"412 706 OFFCURVE",
"230 706 CURVE SMOOTH",
"195 706 OFFCURVE",
"156 704 OFFCURVE",
"109 699 CURVE",
"112 691 LINE",
"157 696 OFFCURVE",
"194 698 OFFCURVE",
"230 698 CURVE SMOOTH",
"408 698 OFFCURVE",
"502 621 OFFCURVE",
"502 480 CURVE SMOOTH",
"502 328 OFFCURVE",
"401 266 OFFCURVE",
"228 266 CURVE SMOOTH",
"189 266 OFFCURVE",
"150 268 OFFCURVE",
"114 273 CURVE",
"114 265 LINE",
"152 260 OFFCURVE",
"186 258 OFFCURVE",
"228 258 CURVE SMOOTH"
);
}
);
width = 560;
}
);
leftKerningGroup = H;
leftMetricsKey = H;
rightKerningGroup = P;
rightMetricsKey = "=O*.6";
unicode = 0050;
},
{
glyphname = Thorn;
lastChange = "2017-01-28 11:40:28 +0000";
layers = (
{
hints = (
{
horizontal = 1;
origin = "{0, 0}";
type = Anchor;
},
{
horizontal = 1;
origin = "{0, 3}";
type = Anchor;
},
{
horizontal = 1;
origin = "{1, 5}";
target = "{1, 12}";
type = TTStem;
stem = 2;
},
{
horizontal = 1;
origin = "{1, 25}";
target = "{1, 18}";
type = TTStem;
stem = 2;
}
);
layerId = "3E7589AA-8194-470F-8E2F-13C1C581BE24";
paths = (
{
closed = 1;
nodes = (
"178 700 LINE",
"85 700 LINE",
"85 0 LINE",
"178 0 LINE"
);
},
{
closed = 1;
nodes = (
"454 115 OFFCURVE",
"538 222 OFFCURVE",
"538 362 CURVE SMOOTH",
"538 496 OFFCURVE",
"459 600 OFFCURVE",
"234 600 CURVE SMOOTH",
"194 600 OFFCURVE",
"151 595 OFFCURVE",
"88 582 CURVE",
"138 502 LINE",
"176 507 OFFCURVE",
"210 508 OFFCURVE",
"235 508 CURVE SMOOTH",
"387 508 OFFCURVE",
"447 453 OFFCURVE",
"447 357 CURVE SMOOTH",
"447 259 OFFCURVE",
"390 205 OFFCURVE",
"255 205 CURVE SMOOTH",
"223 205 OFFCURVE",
"181 207 OFFCURVE",
"139 213 CURVE",
"137 123 LINE",
"176 117 OFFCURVE",
"215 115 OFFCURVE",
"254 115 CURVE SMOOTH"
);
}
);
width = 571;
},
{
layerId = "BFFFD157-90D3-4B85-B99D-9A2F366F03CA";
paths = (
{
closed = 1;
nodes = (
"265 700 LINE",
"40 700 LINE",
"40 0 LINE",
"265 0 LINE"
);
},
{
closed = 1;
nodes = (
"509 74 OFFCURVE",
"605 179 OFFCURVE",
"605 350 CURVE SMOOTH",
"605 519 OFFCURVE",
"531 632 OFFCURVE",
"323 632 CURVE SMOOTH",
"278 632 OFFCURVE",
"222 623 OFFCURVE",
"159 610 CURVE",
"217 398 LINE",
"246 405 OFFCURVE",
"280 408 OFFCURVE",
"302 408 CURVE SMOOTH",
"366 408 OFFCURVE",
"392 383 OFFCURVE",
"392 337 CURVE SMOOTH",
"392 290 OFFCURVE",
"364 267 OFFCURVE",
"302 267 CURVE SMOOTH",
"273 267 OFFCURVE",
"243 270 OFFCURVE",
"214 275 CURVE",
"179 82 LINE",
"221 77 OFFCURVE",
"264 74 OFFCURVE",
"306 74 CURVE SMOOTH"
);
}
);
width = 623;
},
{
layerId = "FA91A8E1-7324-47F6-AE85-AED49CFCD01C";
paths = (
{
closed = 1;
nodes = (
"117 700 LINE",
"109 700 LINE",
"109 0 LINE",
"117 0 LINE"
);
},
{
closed = 1;
nodes = (
"404 135 OFFCURVE",
"510 197 OFFCURVE",
"510 356 CURVE SMOOTH",
"510 508 OFFCURVE",
"412 580 OFFCURVE",
"230 580 CURVE SMOOTH",
"196 580 OFFCURVE",
"160 578 OFFCURVE",
"113 573 CURVE",
"115 565 LINE",
"160 569 OFFCURVE",
"194 572 OFFCURVE",
"230 572 CURVE SMOOTH",
"408 572 OFFCURVE",
"502 499 OFFCURVE",
"502 356 CURVE SMOOTH",
"502 204 OFFCURVE",
"401 143 OFFCURVE",
"228 143 CURVE SMOOTH",
"189 143 OFFCURVE",
"145 145 OFFCURVE",
"114 150 CURVE",
"114 142 LINE",
"151 137 OFFCURVE",
"191 135 OFFCURVE",
"228 135 CURVE SMOOTH"
);
}
);
width = 560;
}
);
leftKerningGroup = H;
leftMetricsKey = H;
rightKerningGroup = Thorn;
rightMetricsKey = P;
unicode = 00DE;
},
{
glyphname = Q;
lastChange = "2017-07-13 13:00:50 +0000";
layers = (
{
anchors = (
{
name = bottom;
position = "{376, 0}";
},
{
name = top;
position = "{376, 700}";
}
);
background = {
paths = (
{
closed = 1;
nodes = (
"585 -15 OFFCURVE",
"723 114 OFFCURVE",
"723 354 CURVE SMOOTH",
"723 584 OFFCURVE",
"594 715 OFFCURVE",
"383 715 CURVE SMOOTH",
"167 715 OFFCURVE",
"30 585 OFFCURVE",
"30 342 CURVE SMOOTH",
"30 111 OFFCURVE",
"161 -15 OFFCURVE",
"371 -15 CURVE SMOOTH"
);
},
{
closed = 1;
nodes = (
"305 196 OFFCURVE",
"266 248 OFFCURVE",
"266 348 CURVE SMOOTH",
"266 449 OFFCURVE",
"305 495 OFFCURVE",
"376 495 CURVE SMOOTH",
"450 495 OFFCURVE",
"488 449 OFFCURVE",
"488 345 CURVE SMOOTH",
"488 245 OFFCURVE",
"450 196 OFFCURVE",
"379 196 CURVE SMOOTH"
);
}
);
};
layerId = "BFFFD157-90D3-4B85-B99D-9A2F366F03CA";
paths = (
{
closed = 1;
nodes = (
"723 584 OFFCURVE",
"594 715 OFFCURVE",
"383 715 CURVE SMOOTH",
"167 715 OFFCURVE",
"30 585 OFFCURVE",
"30 342 CURVE SMOOTH",
"30 100 OFFCURVE",
"171 -10 OFFCURVE",
"358 -15 CURVE",
"334 30 LINE",
"326 -141 LINE",
"452 -185 OFFCURVE",
"570 -203 OFFCURVE",
"706 -212 CURVE",
"723 -3 LINE",
"662 -3 OFFCURVE",
"586 0 OFFCURVE",
"517 10 CURVE",
"518 25 LINE",
"645 68 OFFCURVE",
"723 175 OFFCURVE",
"723 354 CURVE SMOOTH"
);
},
{
closed = 1;
nodes = (
"266 451 OFFCURVE",
"308 495 OFFCURVE",
"376 495 CURVE SMOOTH",
"446 495 OFFCURVE",
"488 451 OFFCURVE",
"488 345 CURVE SMOOTH",
"488 243 OFFCURVE",
"448 196 OFFCURVE",
"379 196 CURVE SMOOTH",
"307 196 OFFCURVE",
"266 247 OFFCURVE",
"266 348 CURVE SMOOTH"
);
}
);
width = 753;
},
{
anchors = (
{
name = bottom;
position = "{373, 0}";
},
{
name = top;
position = "{373, 700}";
}
);
background = {
paths = (
{
closed = 1;
nodes = (
"564 -15 OFFCURVE",
"691 110 OFFCURVE",
"691 350 CURVE SMOOTH",
"691 580 OFFCURVE",
"573 712 OFFCURVE",
"377 712 CURVE SMOOTH",
"181 712 OFFCURVE",
"55 585 OFFCURVE",
"55 342 CURVE SMOOTH",
"55 111 OFFCURVE",
"175 -15 OFFCURVE",
"368 -15 CURVE SMOOTH"
);
},
{
closed = 1;
nodes = (
"224 75 OFFCURVE",
"148 169 OFFCURVE",
"148 349 CURVE SMOOTH",
"148 532 OFFCURVE",
"229 621 OFFCURVE",
"372 621 CURVE SMOOTH",
"518 621 OFFCURVE",
"598 529 OFFCURVE",
"598 343 CURVE SMOOTH",
"598 164 OFFCURVE",
"519 75 OFFCURVE",
"374 75 CURVE SMOOTH"
);
}
);
};
hints = (
{
horizontal = 1;
origin = "{0, 14}";
target = "{0, 13}";
type = TTStem;
stem = -1;
options = 4;
},
{
horizontal = 1;
origin = "{0, 18}";
type = Anchor;
options = 4;
},
{
horizontal = 1;
origin = "{0, 2}";
target = "{1, 2}";
type = TTStem;
stem = 2;
options = 4;
},
{
horizontal = 1;
origin = "{0, 18}";
target = "{1, 8}";
type = TTStem;
stem = 2;
options = 4;
}
);
layerId = "3E7589AA-8194-470F-8E2F-13C1C581BE24";
paths = (
{
closed = 1;
nodes = (
"691 580 OFFCURVE",
"573 712 OFFCURVE",
"377 712 CURVE SMOOTH",
"181 712 OFFCURVE",
"55 585 OFFCURVE",
"55 342 CURVE SMOOTH",
"55 110 OFFCURVE",
"175 -15 OFFCURVE",
"369 -15 CURVE",
"342 31 LINE",
"329 -88 LINE",
"434 -116 OFFCURVE",
"558 -130 OFFCURVE",
"675 -137 CURVE",
"684 -39 LINE",
"605 -39 OFFCURVE",
"509 -33 OFFCURVE",
"428 -20 CURVE",
"429 -8 LINE",
"590 17 OFFCURVE",
"691 136 OFFCURVE",
"691 350 CURVE SMOOTH"
);
},
{
closed = 1;
nodes = (
"148 532 OFFCURVE",
"229 621 OFFCURVE",
"372 621 CURVE SMOOTH",
"518 621 OFFCURVE",
"598 529 OFFCURVE",
"598 343 CURVE SMOOTH",
"598 164 OFFCURVE",
"519 75 OFFCURVE",
"374 75 CURVE SMOOTH",
"224 75 OFFCURVE",
"148 169 OFFCURVE",
"148 349 CURVE SMOOTH"
);
}
);
width = 746;
},
{
anchors = (
{
name = bottom;
position = "{374, 0}";
},
{
name = top;
position = "{374, 700}";
}
);
layerId = "FA91A8E1-7324-47F6-AE85-AED49CFCD01C";
paths = (
{
closed = 1;
nodes = (
"665 588 OFFCURVE",
"549 707 OFFCURVE",
"376 707 CURVE SMOOTH",
"203 707 OFFCURVE",
"83 585 OFFCURVE",
"83 349 CURVE SMOOTH",
"83 122 OFFCURVE",
"186 15 OFFCURVE",
"333 -5 CURVE",
"322 2 LINE",
"320 -5 LINE",
"443 -61 OFFCURVE",
"555 -83 OFFCURVE",
"663 -89 CURVE",
"663 -81 LINE",
"557 -76 OFFCURVE",
"447 -51 OFFCURVE",
"346 -7 CURVE",
"346 -6 LINE",
"561 -19 OFFCURVE",
"665 123 OFFCURVE",
"665 348 CURVE SMOOTH"
);
},
{
closed = 1;
nodes = (
"91 583 OFFCURVE",
"208 699 OFFCURVE",
"377 699 CURVE SMOOTH",
"544 699 OFFCURVE",
"657 583 OFFCURVE",
"657 349 CURVE SMOOTH",
"657 106 OFFCURVE",
"539 1 OFFCURVE",
"374 1 CURVE SMOOTH",
"207 1 OFFCURVE",
"91 113 OFFCURVE",
"91 348 CURVE SMOOTH"
);
}
);
width = 748;
}
);
leftKerningGroup = O;
leftMetricsKey = O;
rightKerningGroup = O;
rightMetricsKey = O;
unicode = 0051;
},
{
glyphname = R;
lastChange = "2017-07-15 09:11:07 +0000";
layers = (
{
anchors = (
{
name = bottom;
position = "{315, 0}";
},
{
name = top;
position = "{286, 700}";
}
);
background = {
paths = (
{
closed = 1;
nodes = (
"254 635 LINE",
"40 696 LINE",
"40 6 LINE",
"254 53 LINE"
);
},
{
closed = 1;
nodes = (
"360 256 OFFCURVE",
"385 240 OFFCURVE",
"385 206 CURVE SMOOTH",
"385 178 OFFCURVE",
"368 157 OFFCURVE",
"310 157 CURVE SMOOTH",
"286 157 OFFCURVE",
"262 158 OFFCURVE",
"240 160 CURVE",
"40 6 LINE",
"130 -3 OFFCURVE",
"201 -8 OFFCURVE",
"272 -8 CURVE SMOOTH",
"485 -8 OFFCURVE",
"610 48 OFFCURVE",
"610 191 CURVE SMOOTH",
"610 320 OFFCURVE",
"508 357 OFFCURVE",
"409 378 CURVE",
"414 308 LINE",
"506 323 OFFCURVE",
"590 359 OFFCURVE",
"590 488 CURVE SMOOTH",
"590 625 OFFCURVE",
"492 707 OFFCURVE",
"260 707 CURVE SMOOTH",
"185 707 OFFCURVE",
"116 703 OFFCURVE",
"40 696 CURVE",
"245 521 LINE",
"264 524 OFFCURVE",
"284 525 OFFCURVE",
"298 525 CURVE SMOOTH",
"354 525 OFFCURVE",
"378 502 OFFCURVE",
"378 472 CURVE SMOOTH",
"378 441 OFFCURVE",
"359 419 OFFCURVE",
"317 419 CURVE SMOOTH",
"247 419 LINE",
"236 256 LINE",
"308 256 LINE SMOOTH"
);
}
);
};
layerId = "BFFFD157-90D3-4B85-B99D-9A2F366F03CA";
paths = (
{
closed = 1;
nodes = (
"265 635 LINE",
"40 696 LINE",
"40 0 LINE",
"265 0 LINE"
);
},
{
closed = 1;
nodes = (
"394 202 LINE",
"547 238 OFFCURVE",
"609 328 OFFCURVE",
"609 442 CURVE SMOOTH",
"609 600 OFFCURVE",
"513 708 OFFCURVE",
"256 708 CURVE SMOOTH",
"176 708 OFFCURVE",
"119 704 OFFCURVE",
"40 696 CURVE",
"202 497 LINE",
"233 503 OFFCURVE",
"269 506 OFFCURVE",
"293 506 CURVE SMOOTH",
"362 506 OFFCURVE",
"390 475 OFFCURVE",
"390 429 CURVE SMOOTH",
"390 381 OFFCURVE",
"360 351 OFFCURVE",
"293 351 CURVE SMOOTH",
"192 351 LINE",
"192 181 LINE",
"309 181 LINE"
);
},
{
closed = 1;
nodes = (
"651 0 LINE",
"485 297 LINE",
"273 210 LINE",
"379 0 LINE"
);
}
);
width = 651;
},
{
anchors = (
{
name = bottom;
position = "{299, 0}";
},
{
name = top;
position = "{284, 700}";
}
);
background = {
paths = (
{
closed = 1;
nodes = (
"178 657 LINE",
"85 700 LINE",
"85 0 LINE",
"178 49 LINE"
);
},
{
closed = 1;
nodes = (
"409 278 OFFCURVE",
"463 243 OFFCURVE",
"463 176 CURVE SMOOTH",
"463 120 OFFCURVE",
"424 80 OFFCURVE",
"297 80 CURVE SMOOTH",
"245 80 OFFCURVE",
"192 82 OFFCURVE",
"146 88 CURVE",
"85 0 LINE",
"156 -7 OFFCURVE",
"227 -9 OFFCURVE",
"282 -9 CURVE SMOOTH",
"445 -9 OFFCURVE",
"555 44 OFFCURVE",
"555 177 CURVE SMOOTH",
"555 297 OFFCURVE",
"463 353 OFFCURVE",
"311 353 CURVE",
"311 306 LINE",
"463 306 OFFCURVE",
"517 402 OFFCURVE",
"517 496 CURVE SMOOTH",
"517 609 OFFCURVE",
"448 709 OFFCURVE",
"246 709 CURVE SMOOTH",
"197 709 OFFCURVE",
"138 705 OFFCURVE",
"85 700 CURVE",
"134 612 LINE",
"175 617 OFFCURVE",
"220 619 OFFCURVE",
"249 619 CURVE SMOOTH",
"371 619 OFFCURVE",
"425 578 OFFCURVE",
"425 487 CURVE SMOOTH",
"425 414 OFFCURVE",
"384 368 OFFCURVE",
"292 368 CURVE SMOOTH",
"139 368 LINE",
"137 278 LINE",
"294 278 LINE SMOOTH"
);
}
);
};
hints = (
{
horizontal = 1;
origin = "{1, 6}";
target = "{1, 13}";
type = TTStem;
stem = 2;
options = 4;
},
{
horizontal = 1;
origin = "{0, 3}";
type = Anchor;
},
{
horizontal = 1;
origin = "{2, 3}";
type = Anchor;
},
{
horizontal = 1;
origin = "{1, 21}";
target = "{1, 20}";
type = TTStem;
stem = 2;
}
);
layerId = "3E7589AA-8194-470F-8E2F-13C1C581BE24";
paths = (
{
closed = 1;
nodes = (
"178 654 LINE",
"85 698 LINE",
"85 0 LINE",
"178 0 LINE"
);
},
{
closed = 1;
nodes = (
"350 243 LINE",
"471 268 OFFCURVE",
"528 342 OFFCURVE",
"528 465 CURVE SMOOTH",
"528 612 OFFCURVE",
"449 708 OFFCURVE",
"234 708 CURVE SMOOTH",
"201 708 OFFCURVE",
"148 705 OFFCURVE",
"85 698 CURVE",
"144 608 LINE",
"188 613 OFFCURVE",
"224 615 OFFCURVE",
"243 615 CURVE SMOOTH",
"383 615 OFFCURVE",
"437 554 OFFCURVE",
"437 461 CURVE SMOOTH",
"437 367 OFFCURVE",
"380 321 OFFCURVE",
"265 321 CURVE SMOOTH",
"171 321 LINE",
"171 229 LINE",
"292 229 LINE"
);
},
{
closed = 1;
nodes = (
"554 0 LINE",
"333 300 LINE",
"253 248 LINE",
"434 0 LINE"
);
}
);
width = 594;
},
{
anchors = (
{
name = bottom;
position = "{299, 0}";
},
{
name = top;
position = "{284, 700}";
}
);
associatedMasterId = "3E7589AA-8194-470F-8E2F-13C1C581BE24";
background = {
paths = (
{
closed = 1;
nodes = (
"198 645 LINE",
"78 693 LINE",
"78 0 LINE",
"198 0 LINE"
);
},
{
closed = 1;
nodes = (
"446 206 OFFCURVE",
"544 305 OFFCURVE",
"544 452 CURVE SMOOTH",
"544 603 OFFCURVE",
"460 701 OFFCURVE",
"237 701 CURVE SMOOTH",
"201 701 OFFCURVE",
"143 699 OFFCURVE",
"78 693 CURVE",
"161 577 LINE",
"201 582 OFFCURVE",
"235 583 OFFCURVE",
"256 583 CURVE SMOOTH",
"379 583 OFFCURVE",
"426 529 OFFCURVE",
"426 447 CURVE SMOOTH",
"426 363 OFFCURVE",
"376 314 OFFCURVE",
"273 314 CURVE SMOOTH",
"155 314 LINE",
"143 206 LINE",
"241 206 LINE SMOOTH"
);
},
{
closed = 1;
nodes = (
"565 13 LINE",
"384 296 LINE",
"282 245 LINE",
"432 0 LINE",
"561 0 LINE"
);
}
);
};
hints = (
{
horizontal = 1;
origin = "{1, 20}";
target = "{1, 19}";
type = TTStem;
options = 4;
},
{
horizontal = 1;
origin = "{1, 5}";
target = "{1, 12}";
type = TTStem;
options = 4;
},
{
horizontal = 1;
origin = "{0, 2}";
type = Anchor;
options = 4;
},
{
horizontal = 1;
origin = "{2, 3}";
type = Anchor;
options = 4;
}
);
layerId = "DDB93410-9C84-4C18-B83C-39466418BBC6";
name = "Nov 17 16, 13:55";
paths = (
{
closed = 1;
nodes = (
"178 652 LINE",
"85 696 LINE",
"85 0 LINE",
"178 0 LINE"
);
},
{
closed = 1;
nodes = (
"430 220 OFFCURVE",
"528 312 OFFCURVE",
"528 469 CURVE SMOOTH",
"528 611 OFFCURVE",
"449 704 OFFCURVE",
"234 704 CURVE SMOOTH",
"201 704 OFFCURVE",
"148 702 OFFCURVE",
"85 696 CURVE",
"144 606 LINE",
"188 611 OFFCURVE",
"224 612 OFFCURVE",
"243 612 CURVE SMOOTH",
"383 612 OFFCURVE",
"437 552 OFFCURVE",
"437 459 CURVE SMOOTH",
"437 365 OFFCURVE",
"380 311 OFFCURVE",
"265 311 CURVE SMOOTH",
"139 311 LINE",
"137 220 LINE",
"224 220 LINE SMOOTH"
);
},
{
closed = 1;
nodes = (
"554 0 LINE",
"363 300 LINE",
"286 248 LINE",
"441 0 LINE"
);
}
);
width = 586;
},
{
anchors = (
{
name = bottom;
position = "{275, 0}";
},
{
name = top;
position = "{277, 700}";
}
);
layerId = "FA91A8E1-7324-47F6-AE85-AED49CFCD01C";
paths = (
{
closed = 1;
nodes = (
"117 696 LINE",
"109 699 LINE",
"109 0 LINE",
"117 0 LINE"
);
},
{
closed = 1;
nodes = (
"262 268 LINE",
"398 280 OFFCURVE",
"488 349 OFFCURVE",
"488 490 CURVE SMOOTH",
"488 624 OFFCURVE",
"407 706 OFFCURVE",
"230 706 CURVE SMOOTH",
"200 706 OFFCURVE",
"161 704 OFFCURVE",
"109 699 CURVE",
"113 691 LINE",
"162 696 OFFCURVE",
"197 698 OFFCURVE",
"229 698 CURVE SMOOTH",
"402 698 OFFCURVE",
"480 619 OFFCURVE",
"480 489 CURVE SMOOTH",
"480 354 OFFCURVE",
"391 275 OFFCURVE",
"228 275 CURVE SMOOTH",
"115 275 LINE",
"115 267 LINE",
"260 267 LINE"
);
},
{
closed = 1;
nodes = (
"517 0 LINE",
"262 273 LINE",
"254 270 LINE",
"504 0 LINE"
);
}
);
width = 567;
},
{
anchors = (
{
name = bottom;
position = "{307, 0}";
},
{
name = top;
position = "{285, 700}";
}
);
associatedMasterId = "3E7589AA-8194-470F-8E2F-13C1C581BE24";
background = {
paths = (
{
closed = 1;
nodes = (
"178 652 LINE",
"85 696 LINE",
"85 0 LINE",
"178 0 LINE"
);
},
{
closed = 1;
nodes = (
"430 230 OFFCURVE",
"528 313 OFFCURVE",
"528 470 CURVE SMOOTH",
"528 612 OFFCURVE",
"449 705 OFFCURVE",
"234 705 CURVE SMOOTH",
"201 705 OFFCURVE",
"148 702 OFFCURVE",
"85 696 CURVE",
"144 606 LINE",
"188 611 OFFCURVE",
"224 612 OFFCURVE",
"243 612 CURVE SMOOTH",
"383 612 OFFCURVE",
"437 554 OFFCURVE",
"437 461 CURVE SMOOTH",
"437 367 OFFCURVE",
"380 321 OFFCURVE",
"265 321 CURVE SMOOTH",
"139 321 LINE",
"137 230 LINE",
"224 230 LINE SMOOTH"
);
},
{
closed = 1;
nodes = (
"554 0 LINE",
"333 300 LINE",
"258 248 LINE",
"439 0 LINE"
);
}
);
};
hints = (
{
horizontal = 1;
origin = "{1, 6}";
target = "{1, 13}";
type = TTStem;
stem = 2;
options = 4;
},
{
horizontal = 1;
origin = "{0, 3}";
type = Anchor;
},
{
horizontal = 1;
origin = "{2, 3}";
type = Anchor;
},
{
horizontal = 1;
origin = "{1, 21}";
target = "{1, 20}";
type = TTStem;
stem = 2;
}
);
layerId = "A991E79A-D1A0-4489-92E6-50DEF21D7271";
name = "{155, 100}";
paths = (
{
closed = 1;
nodes = (
"222 644 LINE",
"63 695 LINE",
"63 0 LINE",
"222 0 LINE"
);
},
{
closed = 1;
nodes = (
"378 213 LINE",
"526 246 OFFCURVE",
"572 349 OFFCURVE",
"572 460 CURVE SMOOTH",
"572 616 OFFCURVE",
"476 707 OFFCURVE",
"250 707 CURVE SMOOTH",
"189 707 OFFCURVE",
"129 703 OFFCURVE",
"63 695 CURVE",
"173 546 LINE",
"211 551 OFFCURVE",
"247 553 OFFCURVE",
"268 553 CURVE SMOOTH",
"373 553 OFFCURVE",
"414 514 OFFCURVE",
"414 444 CURVE SMOOTH",
"414 373 OFFCURVE",
"370 336 OFFCURVE",
"279 336 CURVE SMOOTH",
"182 336 LINE",
"182 187 LINE",
"301 187 LINE"
);
},
{
closed = 1;
nodes = (
"603 0 LINE",
"404 299 LINE",
"262 229 LINE",
"407 0 LINE"
);
}
);
width = 623;
}
);
leftKerningGroup = H;
leftMetricsKey = H;
rightKerningGroup = R;
unicode = 0052;
},
{
glyphname = S;
lastChange = "2017-07-13 13:01:54 +0000";
layers = (
{
anchors = (
{
name = bottom;
position = "{267, 0}";
},
{
name = top;
position = "{317, 700}";
},
{
name = topright;
position = "{534, 700}";
}
);
background = {
paths = (
{
closed = 1;
nodes = (
"439 636 LINE",
"214 636 LINE",
"214 10 LINE",
"439 10 LINE"
);
},
{
closed = 1;
nodes = (
"30 710 LINE",
"30 495 LINE",
"622 495 LINE",
"622 710 LINE"
);
}
);
};
layerId = "BFFFD157-90D3-4B85-B99D-9A2F366F03CA";
paths = (
{
closed = 1;
nodes = (
"473 694 OFFCURVE",
"399 713 OFFCURVE",
"319 713 CURVE SMOOTH",
"103 713 OFFCURVE",
"34 607 OFFCURVE",
"34 476 CURVE SMOOTH",
"34 380 OFFCURVE",
"71 324 OFFCURVE",
"138 286 CURVE SMOOTH",
"178 264 OFFCURVE",
"216 250 OFFCURVE",
"253 234 CURVE SMOOTH",
"296 215 OFFCURVE",
"307 208 OFFCURVE",
"307 198 CURVE SMOOTH",
"307 188 OFFCURVE",
"293 186 OFFCURVE",
"266 186 CURVE SMOOTH",
"188 186 OFFCURVE",
"118 205 OFFCURVE",
"53 230 CURVE",
"34 29 LINE",
"103 0 OFFCURVE",
"190 -15 OFFCURVE",
"267 -15 CURVE SMOOTH",
"455 -15 OFFCURVE",
"534 62 OFFCURVE",
"534 202 CURVE SMOOTH",
"534 324 OFFCURVE",
"473 371 OFFCURVE",
"409 400 CURVE SMOOTH",
"378 414 OFFCURVE",
"346 426 OFFCURVE",
"307 442 CURVE SMOOTH",
"274 455 OFFCURVE",
"259 460 OFFCURVE",
"259 478 CURVE SMOOTH",
"259 497 OFFCURVE",
"286 503 OFFCURVE",
"323 503 CURVE SMOOTH",
"382 503 OFFCURVE",
"440 486 OFFCURVE",
"489 466 CURVE",
"521 669 LINE"
);
}
);
width = 554;
},
{
anchors = (
{
name = bottom;
position = "{266, 0}";
},
{
name = top;
position = "{299, 700}";
},
{
name = topright;
position = "{531, 700}";
}
);
hints = (
{
horizontal = 1;
origin = "{0, 24}";
target = "{0, 17}";
type = TTStem;
stem = 2;
options = 4;
},
{
horizontal = 1;
origin = "{0, 2}";
target = "{0, 39}";
type = TTStem;
stem = 2;
options = 4;
},
{
horizontal = 1;
origin = "{0, 17}";
target = "{0, 2}";
other1 = "{0, 33}";
type = Interpolate;
},
{
horizontal = 1;
origin = "{0, 24}";
target = "{0, 39}";
other1 = "{0, 8}";
type = Interpolate;
}
);
layerId = "3E7589AA-8194-470F-8E2F-13C1C581BE24";
paths = (
{
closed = 1;
nodes = (
"427 697 OFFCURVE",
"369 709 OFFCURVE",
"300 709 CURVE SMOOTH",
"135 709 OFFCURVE",
"69 617 OFFCURVE",
"69 502 CURVE SMOOTH",
"69 390 OFFCURVE",
"130 345 OFFCURVE",
"198 318 CURVE SMOOTH",
"239 302 OFFCURVE",
"285 286 OFFCURVE",
"330 266 CURVE SMOOTH",
"391 238 OFFCURVE",
"403 202 OFFCURVE",
"403 170 CURVE SMOOTH",
"403 104 OFFCURVE",
"349 80 OFFCURVE",
"273 80 CURVE SMOOTH",
"192 80 OFFCURVE",
"131 102 OFFCURVE",
"79 132 CURVE",
"55 40 LINE",
"114 5 OFFCURVE",
"190 -11 OFFCURVE",
"266 -11 CURVE SMOOTH",
"412 -11 OFFCURVE",
"496 50 OFFCURVE",
"496 174 CURVE SMOOTH",
"496 259 OFFCURVE",
"458 317 OFFCURVE",
"362 354 CURVE SMOOTH",
"322 369 OFFCURVE",
"277 385 OFFCURVE",
"245 398 CURVE SMOOTH",
"179 425 OFFCURVE",
"160 461 OFFCURVE",
"160 508 CURVE SMOOTH",
"160 592 OFFCURVE",
"219 617 OFFCURVE",
"299 617 CURVE SMOOTH",
"356 617 OFFCURVE",
"410 605 OFFCURVE",
"453 582 CURVE",
"481 668 LINE"
);
}
);
width = 551;
},
{
anchors = (
{
name = bottom;
position = "{267, 0}";
},
{
name = top;
position = "{308, 700}";
},
{
name = topright;
position = "{533, 700}";
}
);
associatedMasterId = "3E7589AA-8194-470F-8E2F-13C1C581BE24";
background = {
paths = (
{
closed = 1;
nodes = (
"450 696 OFFCURVE",
"384 711 OFFCURVE",
"310 711 CURVE SMOOTH",
"119 711 OFFCURVE",
"52 612 OFFCURVE",
"52 491 CURVE SMOOTH",
"52 382 OFFCURVE",
"106 332 OFFCURVE",
"168 302 CURVE SMOOTH",
"209 283 OFFCURVE",
"251 268 OFFCURVE",
"292 250 CURVE SMOOTH",
"344 227 OFFCURVE",
"355 205 OFFCURVE",
"355 183 CURVE SMOOTH",
"355 145 OFFCURVE",
"320 131 OFFCURVE",
"263 131 CURVE SMOOTH",
"190 131 OFFCURVE",
"125 151 OFFCURVE",
"66 179 CURVE",
"45 35 LINE",
"109 3 OFFCURVE",
"190 -12 OFFCURVE",
"267 -12 CURVE SMOOTH",
"434 -12 OFFCURVE",
"515 56 OFFCURVE",
"515 188 CURVE SMOOTH",
"515 292 OFFCURVE",
"466 343 OFFCURVE",
"386 376 CURVE SMOOTH",
"350 390 OFFCURVE",
"312 404 OFFCURVE",
"276 419 CURVE SMOOTH",
"227 439 OFFCURVE",
"210 461 OFFCURVE",
"210 493 CURVE SMOOTH",
"210 545 OFFCURVE",
"253 560 OFFCURVE",
"311 560 CURVE SMOOTH",
"369 560 OFFCURVE",
"425 546 OFFCURVE",
"471 524 CURVE",
"501 669 LINE"
);
}
);
};
hints = (
{
horizontal = 1;
place = "{-11, 91}";
type = TTStem;
options = 4;
},
{
horizontal = 1;
place = "{709, -92}";
type = TTStem;
options = 4;
},
{
horizontal = 1;
place = "{398, 150}";
type = Interpolate;
},
{
horizontal = 1;
place = "{318, 150}";
type = Interpolate;
}
);
layerId = "06557522-36DB-480E-A152-CEF94291F906";
name = "{155, 100}";
paths = (
{
closed = 1;
nodes = (
"452 693 OFFCURVE",
"384 711 OFFCURVE",
"310 711 CURVE SMOOTH",
"119 711 OFFCURVE",
"52 602 OFFCURVE",
"52 483 CURVE SMOOTH",
"52 374 OFFCURVE",
"106 327 OFFCURVE",
"173 296 CURVE SMOOTH",
"209 279 OFFCURVE",
"251 263 OFFCURVE",
"295 245 CURVE SMOOTH",
"344 225 OFFCURVE",
"355 209 OFFCURVE",
"355 187 CURVE SMOOTH",
"355 146 OFFCURVE",
"313 140 OFFCURVE",
"260 140 CURVE SMOOTH",
"190 140 OFFCURVE",
"125 156 OFFCURVE",
"66 185 CURVE",
"45 35 LINE",
"109 3 OFFCURVE",
"190 -12 OFFCURVE",
"267 -12 CURVE SMOOTH",
"434 -12 OFFCURVE",
"515 54 OFFCURVE",
"515 184 CURVE SMOOTH",
"515 285 OFFCURVE",
"465 340 OFFCURVE",
"389 373 CURVE SMOOTH",
"348 391 OFFCURVE",
"312 403 OFFCURVE",
"271 420 CURVE SMOOTH",
"230 437 OFFCURVE",
"210 455 OFFCURVE",
"210 489 CURVE SMOOTH",
"210 537 OFFCURVE",
"253 553 OFFCURVE",
"313 553 CURVE SMOOTH",
"369 553 OFFCURVE",
"425 537 OFFCURVE",
"472 512 CURVE",
"502 663 LINE"
);
}
);
width = 553;
},
{
anchors = (
{
name = bottom;
position = "{256, 0}";
},
{
name = top;
position = "{283, 700}";
},
{
name = topright;
position = "{508, 700}";
}
);
layerId = "FA91A8E1-7324-47F6-AE85-AED49CFCD01C";
paths = (
{
closed = 1;
nodes = (
"406 685 OFFCURVE",
"355 707 OFFCURVE",
"284 707 CURVE SMOOTH",
"169 707 OFFCURVE",
"81 650 OFFCURVE",
"81 524 CURVE SMOOTH",
"81 438 OFFCURVE",
"124 384 OFFCURVE",
"197 353 CURVE SMOOTH",
"243 334 OFFCURVE",
"306 313 OFFCURVE",
"353 290 CURVE SMOOTH",
"418 259 OFFCURVE",
"446 210 OFFCURVE",
"446 149 CURVE SMOOTH",
"446 45 OFFCURVE",
"370 1 OFFCURVE",
"256 1 CURVE SMOOTH",
"186 1 OFFCURVE",
"125 15 OFFCURVE",
"74 42 CURVE",
"71 35 LINE",
"117 8 OFFCURVE",
"183 -7 OFFCURVE",
"257 -7 CURVE SMOOTH",
"372 -7 OFFCURVE",
"454 38 OFFCURVE",
"454 149 CURVE SMOOTH",
"454 214 OFFCURVE",
"426 264 OFFCURVE",
"356 298 CURVE SMOOTH",
"305 323 OFFCURVE",
"243 343 OFFCURVE",
"201 361 CURVE SMOOTH",
"129 392 OFFCURVE",
"89 442 OFFCURVE",
"89 524 CURVE SMOOTH",
"89 641 OFFCURVE",
"169 699 OFFCURVE",
"285 699 CURVE SMOOTH",
"350 699 OFFCURVE",
"400 680 OFFCURVE",
"434 656 CURVE",
"438 663 LINE"
);
}
);
width = 528;
}
);
leftKerningGroup = S;
rightKerningGroup = S;
unicode = 0053;
},
{
glyphname = Scircumflex;
lastChange = "2016-12-21 10:47:59 +0000";
layers = (
{
background = {
paths = (
{
closed = 1;
nodes = (
"528 249 OFFCURVE",
"505 295 OFFCURVE",
"467 328 CURVE SMOOTH",
"434 356 OFFCURVE",
"406 367 OFFCURVE",
"340 377 CURVE SMOOTH",
"257 390 LINE SMOOTH",
"217 396 OFFCURVE",
"180 410 OFFCURVE",
"155 431 CURVE SMOOTH",
"130 452 OFFCURVE",
"119 484 OFFCURVE",
"119 525 CURVE SMOOTH",
"119 616 OFFCURVE",
"180 672 OFFCURVE",
"284 672 CURVE SMOOTH",
"368 672 OFFCURVE",
"415 646 OFFCURVE",
"457 606 CURVE",
"492 641 LINE",
"431 694 OFFCURVE",
"375 718 OFFCURVE",
"287 718 CURVE SMOOTH",
"150 718 OFFCURVE",
"66 642 OFFCURVE",
"66 523 CURVE SMOOTH",
"66 466 OFFCURVE",
"85 422 OFFCURVE",
"122 391 CURVE SMOOTH",
"153 364 OFFCURVE",
"195 348 OFFCURVE",
"249 340 CURVE SMOOTH",
"332 327 LINE SMOOTH",
"389 318 OFFCURVE",
"410 311 OFFCURVE",
"435 289 CURVE SMOOTH",
"462 266 OFFCURVE",
"474 232 OFFCURVE",
"474 189 CURVE SMOOTH",
"474 96 OFFCURVE",
"404 42 OFFCURVE",
"291 42 CURVE SMOOTH",
"206 42 OFFCURVE",
"153 62 OFFCURVE",
"89 126 CURVE",
"51 88 LINE",
"116 23 OFFCURVE",
"183 -6 OFFCURVE",
"288 -6 CURVE SMOOTH",
"437 -6 OFFCURVE",
"528 71 OFFCURVE",
"528 191 CURVE SMOOTH"
);
},
{
closed = 1;
nodes = (
"441 780 LINE",
"318 927 LINE",
"264 927 LINE",
"141 780 LINE",
"198 780 LINE",
"291 889 LINE",
"384 780 LINE"
);
}
);
};
components = (
{
name = S;
},
{
name = circumflex;
transform = "{1, 0, 0, 1, 76, 220}";
}
);
layerId = "3E7589AA-8194-470F-8E2F-13C1C581BE24";
width = 551;
},
{
background = {
paths = (
{
closed = 1;
nodes = (
"550 284 OFFCURVE",
"535 337 OFFCURVE",
"497 374 CURVE SMOOTH",
"467 404 OFFCURVE",
"421 424 OFFCURVE",
"357 433 CURVE SMOOTH",
"271 445 LINE SMOOTH",
"246 448 OFFCURVE",
"231 457 OFFCURVE",
"222 466 CURVE SMOOTH",
"211 477 OFFCURVE",
"208 490 OFFCURVE",
"208 499 CURVE SMOOTH",
"208 530 OFFCURVE",
"233 565 OFFCURVE",
"294 565 CURVE SMOOTH",
"351 565 OFFCURVE",
"392 560 OFFCURVE",
"429 523 CURVE",
"539 633 LINE",
"478 694 OFFCURVE",
"401 718 OFFCURVE",
"299 718 CURVE SMOOTH",
"137 718 OFFCURVE",
"39 623 OFFCURVE",
"39 493 CURVE SMOOTH",
"39 432 OFFCURVE",
"55 384 OFFCURVE",
"88 350 CURVE SMOOTH",
"120 317 OFFCURVE",
"168 296 OFFCURVE",
"231 287 CURVE SMOOTH",
"317 275 LINE SMOOTH",
"340 272 OFFCURVE",
"355 265 OFFCURVE",
"364 256 CURVE SMOOTH",
"374 245 OFFCURVE",
"378 231 OFFCURVE",
"378 214 CURVE SMOOTH",
"378 173 OFFCURVE",
"345 150 OFFCURVE",
"276 150 CURVE SMOOTH",
"219 150 OFFCURVE",
"154 163 OFFCURVE",
"117 200 CURVE",
"5 88 LINE",
"77 14 OFFCURVE",
"166 -6 OFFCURVE",
"275 -6 CURVE SMOOTH",
"425 -6 OFFCURVE",
"550 73 OFFCURVE",
"550 218 CURVE SMOOTH"
);
},
{
closed = 1;
nodes = (
"498 782 LINE",
"362 961 LINE",
"232 961 LINE",
"96 782 LINE",
"218 782 LINE",
"297 865 LINE",
"376 782 LINE"
);
}
);
};
components = (
{
name = S;
},
{
name = circumflex;
transform = "{1, 0, 0, 1, 72, 210}";
}
);
layerId = "BFFFD157-90D3-4B85-B99D-9A2F366F03CA";
width = 554;
},
{
components = (
{
name = S;
},
{
name = circumflex;
transform = "{1, 0, 0, 1, 96, 232}";
}
);
layerId = "FA91A8E1-7324-47F6-AE85-AED49CFCD01C";
width = 528;
}
);
leftKerningGroup = S;
rightKerningGroup = S;
unicode = 015C;
},
{
glyphname = Germandbls;
lastChange = "2017-07-13 13:54:46 +0000";
layers = (
{
background = {
paths = (
{
closed = 1;
nodes = (
"178 700 LINE",
"85 700 LINE",
"85 0 LINE",
"178 0 LINE"
);
},
{
closed = 1;
nodes = (
"625 700 LINE",
"532 700 LINE",
"532 0 LINE",
"625 0 LINE"
);
},
{
closed = 1;
nodes = (
"138 369 LINE",
"138 278 LINE",
"591 278 LINE",
"591 369 LINE"
);
}
);
};
hints = (
{
horizontal = 1;
origin = "{0, 34}";
target = "{0, 1}";
type = TTStem;
stem = 2;
options = 4;
},
{
horizontal = 1;
origin = "{0, 35}";
type = Anchor;
},
{
horizontal = 1;
origin = "{0, 21}";
target = "{0, 14}";
type = TTStem;
stem = 2;
options = 4;
}
);
layerId = "3E7589AA-8194-470F-8E2F-13C1C581BE24";
paths = (
{
closed = 1;
nodes = (
"178 0 LINE",
"178 609 LINE",
"508 609 LINE",
"485 652 LINE",
"320 369 LINE",
"320 308 LINE",
"376 299 OFFCURVE",
"430 286 OFFCURVE",
"470 268 CURVE SMOOTH",
"536 238 OFFCURVE",
"548 200 OFFCURVE",
"548 168 CURVE SMOOTH",
"548 114 OFFCURVE",
"514 79 OFFCURVE",
"441 79 CURVE SMOOTH",
"392 79 OFFCURVE",
"336 95 OFFCURVE",
"284 125 CURVE",
"260 37 LINE",
"319 2 OFFCURVE",
"383 -11 OFFCURVE",
"440 -11 CURVE SMOOTH",
"563 -11 OFFCURVE",
"641 48 OFFCURVE",
"641 164 CURVE SMOOTH",
"641 250 OFFCURVE",
"597 318 OFFCURVE",
"501 356 CURVE SMOOTH",
"466 370 OFFCURVE",
"429 380 OFFCURVE",
"391 386 CURVE",
"405 344 LINE",
"569 616 LINE",
"569 700 LINE",
"85 700 LINE",
"85 0 LINE"
);
}
);
width = 685;
},
{
background = {
paths = (
{
closed = 1;
nodes = (
"265 700 LINE",
"40 700 LINE",
"40 0 LINE",
"265 0 LINE"
);
},
{
closed = 1;
nodes = (
"690 700 LINE",
"465 700 LINE",
"465 0 LINE",
"690 0 LINE"
);
},
{
closed = 1;
nodes = (
"170 423 LINE",
"162 208 LINE",
"614 208 LINE",
"618 423 LINE"
);
}
);
};
layerId = "BFFFD157-90D3-4B85-B99D-9A2F366F03CA";
paths = (
{
closed = 1;
nodes = (
"265 0 LINE",
"265 503 LINE",
"442 503 LINE",
"415 562 LINE",
"313 387 LINE",
"313 268 LINE",
"367 264 OFFCURVE",
"409 256 OFFCURVE",
"436 245 CURVE SMOOTH",
"465 233 OFFCURVE",
"472 220 OFFCURVE",
"472 206 CURVE SMOOTH",
"472 185 OFFCURVE",
"455 179 OFFCURVE",
"427 179 CURVE SMOOTH",
"393 179 OFFCURVE",
"353 189 OFFCURVE",
"313 206 CURVE",
"299 15 LINE",
"351 -4 OFFCURVE",
"406 -13 OFFCURVE",
"461 -13 CURVE SMOOTH",
"598 -13 OFFCURVE",
"681 62 OFFCURVE",
"681 192 CURVE SMOOTH",
"681 309 OFFCURVE",
"626 359 OFFCURVE",
"578 387 CURVE SMOOTH",
"551 403 OFFCURVE",
"531 411 OFFCURVE",
"494 424 CURVE",
"499 345 LINE",
"612 526 LINE",
"612 700 LINE",
"40 700 LINE",
"40 0 LINE"
);
}
);
width = 689;
},
{
layerId = "FA91A8E1-7324-47F6-AE85-AED49CFCD01C";
paths = (
{
closed = 1;
nodes = (
"117 0 LINE",
"117 692 LINE",
"540 692 LINE",
"540 696 LINE",
"320 358 LINE",
"320 351 LINE",
"383 339 OFFCURVE",
"418 330 OFFCURVE",
"457 314 CURVE SMOOTH",
"549 274 OFFCURVE",
"570 218 OFFCURVE",
"570 157 CURVE SMOOTH",
"570 51 OFFCURVE",
"499 1 OFFCURVE",
"378 1 CURVE SMOOTH",
"343 1 OFFCURVE",
"294 3 OFFCURVE",
"237 20 CURVE",
"236 12 LINE",
"294 -4 OFFCURVE",
"341 -7 OFFCURVE",
"378 -7 CURVE SMOOTH",
"503 -7 OFFCURVE",
"579 46 OFFCURVE",
"579 158 CURVE SMOOTH",
"579 222 OFFCURVE",
"554 282 OFFCURVE",
"461 321 CURVE SMOOTH",
"423 337 OFFCURVE",
"384 347 OFFCURVE",
"326 359 CURVE",
"326 353 LINE",
"548 694 LINE",
"548 700 LINE",
"109 700 LINE",
"109 0 LINE"
);
}
);
width = 637;
},
{
associatedMasterId = "3E7589AA-8194-470F-8E2F-13C1C581BE24";
background = {
paths = (
{
closed = 1;
nodes = (
"178 700 LINE",
"85 700 LINE",
"85 0 LINE",
"178 0 LINE"
);
},
{
closed = 1;
nodes = (
"625 700 LINE",
"532 700 LINE",
"532 0 LINE",
"625 0 LINE"
);
},
{
closed = 1;
nodes = (
"138 369 LINE",
"138 278 LINE",
"591 278 LINE",
"591 369 LINE"
);
}
);
};
layerId = "0633E26C-5A58-4829-A25D-25D3CB143AE7";
name = "{155, 100}";
paths = (
{
closed = 1;
nodes = (
"222 0 LINE",
"222 556 LINE",
"475 556 LINE",
"430 607 LINE",
"317 398 LINE",
"317 258 LINE",
"372 254 OFFCURVE",
"420 245 OFFCURVE",
"454 234 CURVE SMOOTH",
"499 219 OFFCURVE",
"508 200 OFFCURVE",
"508 183 CURVE SMOOTH",
"508 157 OFFCURVE",
"485 139 OFFCURVE",
"437 139 CURVE SMOOTH",
"393 139 OFFCURVE",
"345 151 OFFCURVE",
"299 173 CURVE",
"280 26 LINE",
"335 -1 OFFCURVE",
"395 -12 OFFCURVE",
"451 -12 CURVE SMOOTH",
"581 -12 OFFCURVE",
"661 61 OFFCURVE",
"661 184 CURVE SMOOTH",
"661 286 OFFCURVE",
"610 336 OFFCURVE",
"544 366 CURVE SMOOTH",
"509 382 OFFCURVE",
"475 389 OFFCURVE",
"438 394 CURVE",
"452 345 LINE",
"591 571 LINE",
"591 700 LINE",
"63 700 LINE",
"63 0 LINE"
);
}
);
width = 689;
}
);
leftMetricsKey = H;
unicode = 1E9E;
},
{
glyphname = Schwa;
lastChange = "2017-07-13 09:27:56 +0000";
layers = (
{
background = {
paths = (
{
closed = 1;
nodes = (
"180 5 OFFCURVE",
"243 -11 OFFCURVE",
"319 -11 CURVE SMOOTH",
"519 -11 OFFCURVE",
"620 111 OFFCURVE",
"620 342 CURVE SMOOTH",
"620 585 OFFCURVE",
"513 711 OFFCURVE",
"303 711 CURVE SMOOTH",
"240 711 OFFCURVE",
"182 698 OFFCURVE",
"139 678 CURVE",
"162 592 LINE",
"208 611 OFFCURVE",
"260 620 OFFCURVE",
"306 620 CURVE SMOOTH",
"453 620 OFFCURVE",
"527 533 OFFCURVE",
"527 344 CURVE SMOOTH",
"527 162 OFFCURVE",
"454 80 OFFCURVE",
"308 80 CURVE SMOOTH",
"265 80 OFFCURVE",
"208 88 OFFCURVE",
"160 107 CURVE",
"137 26 LINE"
);
}
);
};
hints = (
{
horizontal = 1;
origin = "{0, 16}";
target = "{0, 23}";
type = TTStem;
stem = 2;
options = 4;
},
{
horizontal = 1;
origin = "{0, 10}";
target = "{0, 29}";
type = TTStem;
stem = 2;
options = 4;
},
{
horizontal = 1;
origin = "{0, 1}";
target = "{0, 2}";
type = TTStem;
stem = 2;
options = 4;
}
);
layerId = "3E7589AA-8194-470F-8E2F-13C1C581BE24";
paths = (
{
closed = 1;
nodes = (
"110 278 LINE",
"571 278 LINE",
"569 367 LINE",
"37 367 LINE",
"103 480 LINE",
"74 397 OFFCURVE",
"65 336 OFFCURVE",
"65 284 CURVE SMOOTH",
"65 118 OFFCURVE",
"132 -11 OFFCURVE",
"328 -11 CURVE SMOOTH",
"522 -11 OFFCURVE",
"620 122 OFFCURVE",
"620 355 CURVE SMOOTH",
"620 608 OFFCURVE",
"505 710 OFFCURVE",
"300 710 CURVE SMOOTH",
"219 710 OFFCURVE",
"142 694 OFFCURVE",
"69 663 CURVE",
"88 577 LINE",
"152 603 OFFCURVE",
"231 618 OFFCURVE",
"301 618 CURVE SMOOTH",
"441 618 OFFCURVE",
"528 559 OFFCURVE",
"528 344 CURVE SMOOTH",
"528 182 OFFCURVE",
"476 82 OFFCURVE",
"336 82 CURVE SMOOTH",
"215 82 OFFCURVE",
"158 155 OFFCURVE",
"158 266 CURVE SMOOTH",
"158 286 OFFCURVE",
"160 309 OFFCURVE",
"166 333 CURVE"
);
}
);
width = 675;
},
{
background = {
paths = (
{
closed = 1;
nodes = (
"175 1 OFFCURVE",
"249 -15 OFFCURVE",
"325 -15 CURVE SMOOTH",
"551 -15 OFFCURVE",
"664 111 OFFCURVE",
"664 342 CURVE SMOOTH",
"664 585 OFFCURVE",
"547 715 OFFCURVE",
"315 715 CURVE SMOOTH",
"242 715 OFFCURVE",
"172 700 OFFCURVE",
"119 668 CURVE",
"187 466 LINE",
"213 480 OFFCURVE",
"249 490 OFFCURVE",
"292 490 CURVE SMOOTH",
"383 490 OFFCURVE",
"431 451 OFFCURVE",
"431 347 CURVE SMOOTH",
"431 242 OFFCURVE",
"382 204 OFFCURVE",
"287 204 CURVE SMOOTH",
"239 204 OFFCURVE",
"195 213 OFFCURVE",
"165 226 CURVE",
"127 26 LINE"
);
}
);
};
layerId = "BFFFD157-90D3-4B85-B99D-9A2F366F03CA";
paths = (
{
closed = 1;
nodes = (
"125 261 LINE",
"553 261 LINE",
"541 424 LINE",
"-10 424 LINE",
"84 521 LINE",
"54 464 OFFCURVE",
"35 379 OFFCURVE",
"35 295 CURVE SMOOTH",
"35 118 OFFCURVE",
"111 -13 OFFCURVE",
"344 -13 CURVE SMOOTH",
"591 -13 OFFCURVE",
"664 151 OFFCURVE",
"664 352 CURVE SMOOTH",
"664 626 OFFCURVE",
"517 711 OFFCURVE",
"299 711 CURVE SMOOTH",
"211 711 OFFCURVE",
"131 698 OFFCURVE",
"53 667 CURVE",
"83 480 LINE",
"143 496 OFFCURVE",
"198 503 OFFCURVE",
"250 503 CURVE SMOOTH",
"329 503 OFFCURVE",
"439 488 OFFCURVE",
"439 328 CURVE SMOOTH",
"439 232 OFFCURVE",
"424 188 OFFCURVE",
"348 188 CURVE SMOOTH",
"286 188 OFFCURVE",
"260 219 OFFCURVE",
"260 284 CURVE SMOOTH",
"260 301 OFFCURVE",
"263 320 OFFCURVE",
"267 341 CURVE"
);
}
);
width = 694;
},
{
associatedMasterId = "3E7589AA-8194-470F-8E2F-13C1C581BE24";
background = {
paths = (
{
closed = 1;
nodes = (
"117 270 LINE",
"562 270 LINE",
"555 396 LINE",
"13 396 LINE",
"93 501 LINE",
"64 431 OFFCURVE",
"50 358 OFFCURVE",
"50 290 CURVE SMOOTH",
"50 118 OFFCURVE",
"121 -12 OFFCURVE",
"336 -12 CURVE SMOOTH",
"556 -12 OFFCURVE",
"642 137 OFFCURVE",
"642 354 CURVE SMOOTH",
"642 617 OFFCURVE",
"511 711 OFFCURVE",
"299 711 CURVE SMOOTH",
"215 711 OFFCURVE",
"136 696 OFFCURVE",
"61 665 CURVE",
"85 529 LINE",
"147 550 OFFCURVE",
"214 561 OFFCURVE",
"275 561 CURVE SMOOTH",
"385 561 OFFCURVE",
"483 524 OFFCURVE",
"483 336 CURVE SMOOTH",
"483 207 OFFCURVE",
"450 135 OFFCURVE",
"342 135 CURVE SMOOTH",
"250 135 OFFCURVE",
"209 187 OFFCURVE",
"209 275 CURVE SMOOTH",
"209 294 OFFCURVE",
"211 315 OFFCURVE",
"216 337 CURVE"
);
}
);
};
layerId = "8FFEE83F-4D5F-43AE-9670-509FF659BDB9";
name = "{155, 100}";
paths = (
{
closed = 1;
nodes = (
"116 263 LINE",
"561 263 LINE",
"554 405 LINE",
"12 405 LINE",
"92 501 LINE",
"62 431 OFFCURVE",
"48 358 OFFCURVE",
"48 290 CURVE SMOOTH",
"48 118 OFFCURVE",
"120 -12 OFFCURVE",
"334 -12 CURVE SMOOTH",
"551 -12 OFFCURVE",
"641 137 OFFCURVE",
"641 354 CURVE SMOOTH",
"641 617 OFFCURVE",
"505 711 OFFCURVE",
"299 711 CURVE SMOOTH",
"213 711 OFFCURVE",
"135 696 OFFCURVE",
"59 665 CURVE",
"84 521 LINE",
"146 541 OFFCURVE",
"213 551 OFFCURVE",
"268 551 CURVE SMOOTH",
"384 551 OFFCURVE",
"483 506 OFFCURVE",
"483 336 CURVE SMOOTH",
"483 214 OFFCURVE",
"441 146 OFFCURVE",
"338 146 CURVE SMOOTH",
"252 146 OFFCURVE",
"207 195 OFFCURVE",
"207 278 CURVE SMOOTH",
"207 296 OFFCURVE",
"210 316 OFFCURVE",
"215 337 CURVE"
);
}
);
width = 684;
},
{
layerId = "FA91A8E1-7324-47F6-AE85-AED49CFCD01C";
paths = (
{
closed = 1;
nodes = (
"105 323 LINE",
"601 323 LINE",
"601 331 LINE",
"78 331 LINE",
"105 346 LINE",
"97 303 OFFCURVE",
"94 278 OFFCURVE",
"94 248 CURVE SMOOTH",
"94 103 OFFCURVE",
"164 -7 OFFCURVE",
"336 -7 CURVE SMOOTH",
"505 -7 OFFCURVE",
"606 97 OFFCURVE",
"606 352 CURVE SMOOTH",
"606 582 OFFCURVE",
"519 707 OFFCURVE",
"321 707 CURVE SMOOTH",
"236 707 OFFCURVE",
"173 685 OFFCURVE",
"121 663 CURVE",
"122 655 LINE",
"179 680 OFFCURVE",
"247 699 OFFCURVE",
"322 699 CURVE SMOOTH",
"513 699 OFFCURVE",
"598 573 OFFCURVE",
"598 352 CURVE SMOOTH",
"598 101 OFFCURVE",
"499 1 OFFCURVE",
"337 1 CURVE SMOOTH",
"169 1 OFFCURVE",
"102 110 OFFCURVE",
"102 246 CURVE SMOOTH",
"102 273 OFFCURVE",
"105 299 OFFCURVE",
"110 328 CURVE"
);
}
);
width = 689;
}
);
leftKerningGroup = Schwa;
leftMetricsKey = "=|G";
rightKerningGroup = O;
rightMetricsKey = O;
unicode = 018F;
},
{
glyphname = T;
lastChange = "2017-07-13 13:52:36 +0000";
layers = (
{
anchors = (
{
name = bottom;
position = "{321, 0}";
},
{
name = center;
position = "{321, 350}";
},
{
name = stroke;
position = "{321, 269}";
},
{
name = top;
position = "{321, 700}";
},
{
name = topright;
position = "{632, 700}";
}
);
layerId = "BFFFD157-90D3-4B85-B99D-9A2F366F03CA";
paths = (
{
closed = 1;
nodes = (
"434 626 LINE",
"209 626 LINE",
"209 0 LINE",
"434 0 LINE"
);
},
{
closed = 1;
nodes = (
"25 700 LINE",
"25 485 LINE",
"617 485 LINE",
"617 700 LINE"
);
}
);
width = 642;
},
{
anchors = (
{
name = bottom;
position = "{312, 0}";
},
{
name = center;
position = "{312, 350}";
},
{
name = stroke;
position = "{311, 319}";
},
{
name = top;
position = "{312, 700}";
},
{
name = topright;
position = "{618, 700}";
}
);
background = {
paths = (
{
closed = 1;
nodes = (
"155 700 LINE",
"62 700 LINE",
"62 0 LINE",
"155 0 LINE"
);
},
{
closed = 1;
nodes = (
"562 700 LINE",
"469 700 LINE",
"469 0 LINE",
"562 0 LINE"
);
},
{
closed = 1;
nodes = (
"116 369 LINE",
"114 278 LINE",
"526 278 LINE",
"530 369 LINE"
);
}
);
};
hints = (
{
horizontal = 1;
origin = "{0, 2}";
type = Anchor;
},
{
horizontal = 1;
origin = "{1, 0}";
target = "{1, 1}";
type = TTStem;
stem = 2;
options = 4;
},
{
horizontal = 1;
origin = "{1, 1}";
target = "{1, 2}";
type = Align;
options = 4;
}
);
layerId = "3E7589AA-8194-470F-8E2F-13C1C581BE24";
paths = (
{
closed = 1;
nodes = (
"358 700 LINE",
"265 700 LINE",
"265 0 LINE",
"358 0 LINE"
);
},
{
closed = 1;
nodes = (
"35 700 LINE",
"35 609 LINE",
"588 609 LINE",
"588 700 LINE"
);
}
);
width = 623;
},
{
anchors = (
{
name = bottom;
position = "{306, 0}";
},
{
name = center;
position = "{306, 350}";
},
{
name = stroke;
position = "{306, 319}";
},
{
name = top;
position = "{306, 700}";
},
{
name = topright;
position = "{611, 700}";
}
);
layerId = "FA91A8E1-7324-47F6-AE85-AED49CFCD01C";
paths = (
{
closed = 1;
nodes = (
"310 696 LINE",
"302 696 LINE",
"302 0 LINE",
"310 0 LINE"
);
},
{
closed = 1;
nodes = (
"42 700 LINE",
"42 692 LINE",
"569 692 LINE",
"569 700 LINE"
);
}
);
width = 611;
}
);
leftKerningGroup = T;
rightKerningGroup = T;
unicode = 0054;
},
{
glyphname = U;
lastChange = "2017-07-13 13:52:08 +0000";
layers = (
{
anchors = (
{
name = bottom;
position = "{351, 0}";
},
{
name = horn;
position = "{663, 630}";
},
{
name = ogonek;
position = "{449, 0}";
},
{
name = top;
position = "{353, 700}";
},
{
name = topright;
position = "{690, 700}";
}
);
layerId = "BFFFD157-90D3-4B85-B99D-9A2F366F03CA";
paths = (
{
closed = 1;
nodes = (
"36 300 LINE SMOOTH",
"36 91 OFFCURVE",
"154 -15 OFFCURVE",
"350 -15 CURVE SMOOTH",
"564 -15 OFFCURVE",
"665 100 OFFCURVE",
"665 300 CURVE SMOOTH",
"665 700 LINE",
"429 700 LINE",
"429 292 LINE SMOOTH",
"429 239 OFFCURVE",
"416 200 OFFCURVE",
"356 200 CURVE SMOOTH",
"299 200 OFFCURVE",
"282 239 OFFCURVE",
"282 292 CURVE SMOOTH",
"282 700 LINE",
"36 700 LINE"
);
}
);
width = 701;
},
{
anchors = (
{
name = bottom;
position = "{339, 0}";
},
{
name = horn;
position = "{600, 630}";
},
{
name = ogonek;
position = "{422, 0}";
},
{
name = top;
position = "{339, 700}";
},
{
name = topright;
position = "{662, 700}";
}
);
background = {
paths = (
{
closed = 1;
nodes = (
"260 0 LINE",
"410 0 LINE",
"624 700 LINE",
"530 700 LINE",
"345 90 LINE",
"330 90 LINE",
"143 700 LINE",
"47 700 LINE"
);
}
);
};
hints = (
{
horizontal = 1;
origin = "{0, 3}";
target = "{0, 12}";
type = TTStem;
stem = 2;
options = 4;
},
{
horizontal = 1;
origin = "{0, 17}";
type = Anchor;
},
{
horizontal = 1;
origin = "{0, 17}";
target = "{0, 8}";
type = Align;
options = 4;
}
);
layerId = "3E7589AA-8194-470F-8E2F-13C1C581BE24";
paths = (
{
closed = 1;
nodes = (
"77 290 LINE SMOOTH",
"77 84 OFFCURVE",
"167 -12 OFFCURVE",
"339 -12 CURVE SMOOTH",
"523 -12 OFFCURVE",
"601 92 OFFCURVE",
"601 290 CURVE SMOOTH",
"601 700 LINE",
"510 700 LINE",
"510 280 LINE SMOOTH",
"510 164 OFFCURVE",
"481 79 OFFCURVE",
"345 79 CURVE SMOOTH",
"214 79 OFFCURVE",
"170 164 OFFCURVE",
"170 280 CURVE SMOOTH",
"170 700 LINE",
"77 700 LINE"
);
}
);
width = 678;
},
{
anchors = (
{
name = bottom;
position = "{334, 0}";
},
{
name = horn;
position = "{562, 630}";
},
{
name = ogonek;
position = "{406, 0}";
},
{
name = top;
position = "{341, 700}";
},
{
name = topright;
position = "{640, 700}";
}
);
layerId = "FA91A8E1-7324-47F6-AE85-AED49CFCD01C";
paths = (
{
closed = 1;
nodes = (
"98 247 LINE SMOOTH",
"98 75 OFFCURVE",
"176 -7 OFFCURVE",
"333 -7 CURVE SMOOTH",
"494 -7 OFFCURVE",
"562 75 OFFCURVE",
"562 247 CURVE SMOOTH",
"562 700 LINE",
"554 700 LINE",
"554 249 LINE SMOOTH",
"554 79 OFFCURVE",
"488 1 OFFCURVE",
"335 1 CURVE SMOOTH",
"182 1 OFFCURVE",
"106 79 OFFCURVE",
"106 249 CURVE SMOOTH",
"106 700 LINE",
"98 700 LINE"
);
}
);
width = 660;
}
);
leftKerningGroup = U;
leftMetricsKey = "=H*.9";
rightKerningGroup = U;
rightMetricsKey = "=H*.9";
unicode = 0055;
},
{
glyphname = Ubreve;
lastChange = "2016-12-02 12:12:12 +0000";
layers = (
{
background = {
paths = (
{
closed = 1;
nodes = (
"588 712 LINE",
"534 712 LINE",
"534 238 LINE SMOOTH",
"534 120 OFFCURVE",
"459 42 OFFCURVE",
"344 42 CURVE SMOOTH",
"229 42 OFFCURVE",
"154 120 OFFCURVE",
"154 238 CURVE SMOOTH",
"154 712 LINE",
"100 712 LINE",
"100 231 LINE SMOOTH",
"100 92 OFFCURVE",
"201 -6 OFFCURVE",
"344 -6 CURVE SMOOTH",
"487 -6 OFFCURVE",
"588 92 OFFCURVE",
"588 231 CURVE SMOOTH"
);
},
{
closed = 1;
nodes = (
"464 927 LINE",
"456 871 OFFCURVE",
"413 837 OFFCURVE",
"344 837 CURVE SMOOTH",
"275 837 OFFCURVE",
"232 871 OFFCURVE",
"224 927 CURVE",
"179 927 LINE",
"188 842 OFFCURVE",
"236 792 OFFCURVE",
"344 792 CURVE SMOOTH",
"452 792 OFFCURVE",
"500 842 OFFCURVE",
"509 927 CURVE"
);
}
);
};
components = (
{
name = U;
},
{
name = breve;
transform = "{1, 0, 0, 1, 142, 220}";
}
);
layerId = "3E7589AA-8194-470F-8E2F-13C1C581BE24";
width = 678;
},
{
background = {
paths = (
{
closed = 1;
nodes = (
"600 712 LINE",
"425 712 LINE",
"425 254 LINE SMOOTH",
"425 188 OFFCURVE",
"387 150 OFFCURVE",
"329 150 CURVE SMOOTH",
"271 150 OFFCURVE",
"235 188 OFFCURVE",
"235 254 CURVE SMOOTH",
"235 712 LINE",
"60 712 LINE",
"60 250 LINE SMOOTH",
"60 94 OFFCURVE",
"181 -6 OFFCURVE",
"329 -6 CURVE SMOOTH",
"477 -6 OFFCURVE",
"600 94 OFFCURVE",
"600 250 CURVE"
);
},
{
closed = 1;
nodes = (
"387 931 LINE",
"384 894 OFFCURVE",
"354 884 OFFCURVE",
"329 884 CURVE SMOOTH",
"304 884 OFFCURVE",
"274 894 OFFCURVE",
"271 931 CURVE",
"165 931 LINE",
"168 813 OFFCURVE",
"252 774 OFFCURVE",
"329 774 CURVE SMOOTH",
"406 774 OFFCURVE",
"490 813 OFFCURVE",
"493 931 CURVE"
);
}
);
};
components = (
{
name = U;
},
{
name = breve;
transform = "{1, 0, 0, 1, 99, 210}";
}
);
layerId = "BFFFD157-90D3-4B85-B99D-9A2F366F03CA";
width = 701;
},
{
components = (
{
name = U;
},
{
name = breve;
transform = "{1, 0, 0, 1, 167, 232}";
}
);
layerId = "FA91A8E1-7324-47F6-AE85-AED49CFCD01C";
width = 660;
}
);
leftKerningGroup = U;
rightKerningGroup = U;
unicode = 016C;
},
{
glyphname = V;
lastChange = "2017-01-26 20:11:11 +0000";
layers = (
{
anchors = (
{
name = bottom;
position = "{360, 0}";
},
{
name = top;
position = "{360, 700}";
}
);
background = {
paths = (
{
closed = 1;
nodes = (
"183 0 LINE",
"533 0 LINE",
"718 700 LINE",
"485 700 LINE",
"382 230 LINE",
"353 230 LINE",
"247 700 LINE",
"5 700 LINE"
);
}
);
};
layerId = "BFFFD157-90D3-4B85-B99D-9A2F366F03CA";
paths = (
{
closed = 1;
nodes = (
"176 0 LINE",
"540 0 LINE",
"716 700 LINE",
"480 700 LINE",
"378 210 LINE",
"354 210 LINE",
"255 700 LINE",
"5 700 LINE"
);
}
);
width = 721;
},
{
anchors = (
{
name = bottom;
position = "{324, 0}";
},
{
name = top;
position = "{324, 700}";
}
);
background = {
paths = (
{
closed = 1;
nodes = (
"240 0 LINE",
"404 0 LINE",
"612 700 LINE",
"518 700 LINE",
"339 90 LINE",
"310 90 LINE",
"131 700 LINE",
"35 700 LINE"
);
},
{
closed = 1;
nodes = (
"502 431 LINE",
"504 522 LINE",
"142 522 LINE",
"138 431 LINE"
);
}
);
};
hints = (
{
horizontal = 1;
origin = "{0, 0}";
target = "{0, 5}";
type = TTStem;
stem = 2;
options = 4;
},
{
horizontal = 1;
origin = "{0, 7}";
type = Anchor;
},
{
horizontal = 1;
origin = "{0, 7}";
target = "{0, 3}";
type = Align;
options = 4;
}
);
layerId = "3E7589AA-8194-470F-8E2F-13C1C581BE24";
paths = (
{
closed = 1;
nodes = (
"244 0 LINE",
"402 0 LINE",
"622 700 LINE",
"528 700 LINE",
"337 93 LINE",
"314 93 LINE",
"121 700 LINE",
"25 700 LINE"
);
}
);
width = 647;
},
{
anchors = (
{
name = bottom;
position = "{307, 0}";
},
{
name = top;
position = "{307, 700}";
}
);
layerId = "FA91A8E1-7324-47F6-AE85-AED49CFCD01C";
paths = (
{
closed = 1;
nodes = (
"293 0 LINE",
"316 0 LINE",
"572 700 LINE",
"563 700 LINE",
"310 8 LINE",
"299 8 LINE",
"49 700 LINE",
"40 700 LINE"
);
}
);
width = 612;
}
);
leftKerningGroup = V;
leftMetricsKey = A;
rightKerningGroup = V;
rightMetricsKey = A;
unicode = 0056;
},
{
glyphname = W;
lastChange = "2017-07-13 13:08:07 +0000";
layers = (
{
anchors = (
{
name = bottom;
position = "{537, 0}";
},
{
name = top;
position = "{537, 700}";
},
{
name = topright;
position = "{1074, 700}";
}
);
layerId = "BFFFD157-90D3-4B85-B99D-9A2F366F03CA";
paths = (
{
closed = 1;
nodes = (
"775 210 LINE",
"751 210 LINE",
"687 690 LINE",
"388 690 LINE",
"319 210 LINE",
"295 210 LINE",
"252 700 LINE",
"10 700 LINE",
"103 0 LINE",
"479 0 LINE",
"525 355 LINE",
"540 355 LINE",
"585 0 LINE",
"970 0 LINE",
"1064 700 LINE",
"818 700 LINE"
);
}
);
width = 1074;
},
{
anchors = (
{
name = bottom;
position = "{469, 0}";
},
{
name = top;
position = "{469, 700}";
},
{
name = topright;
position = "{937, 700}";
}
);
hints = (
{
horizontal = 1;
origin = "{0, 8}";
target = "{0, 5}";
type = TTStem;
stem = 2;
options = 4;
},
{
horizontal = 1;
origin = "{0, 7}";
type = Anchor;
},
{
horizontal = 1;
origin = "{0, 10}";
target = "{0, 3}";
type = TTStem;
options = 4;
},
{
horizontal = 1;
origin = "{0, 5}";
target = "{0, 1}";
type = Align;
options = 4;
},
{
horizontal = 1;
origin = "{0, 8}";
target = "{0, 12}";
type = Align;
options = 4;
},
{
horizontal = 1;
origin = "{0, 7}";
target = "{0, 15}";
type = Align;
options = 4;
},
{
horizontal = 1;
origin = "{0, 7}";
target = "{0, 3}";
type = Align;
options = 4;
}
);
layerId = "3E7589AA-8194-470F-8E2F-13C1C581BE24";
paths = (
{
closed = 1;
nodes = (
"698 93 LINE",
"682 93 LINE",
"522 690 LINE",
"414 690 LINE",
"259 93 LINE",
"243 93 LINE",
"126 700 LINE",
"30 700 LINE",
"176 0 LINE",
"321 0 LINE",
"462 545 LINE",
"468 545 LINE",
"615 0 LINE",
"760 0 LINE",
"907 700 LINE",
"813 700 LINE"
);
}
);
width = 937;
},
{
anchors = (
{
name = bottom;
position = "{448, 0}";
},
{
name = top;
position = "{448, 700}";
},
{
name = topright;
position = "{877, 700}";
}
);
layerId = "FA91A8E1-7324-47F6-AE85-AED49CFCD01C";
paths = (
{
closed = 1;
nodes = (
"653 8 LINE",
"646 8 LINE",
"460 678 LINE",
"443 678 LINE",
"255 8 LINE",
"248 8 LINE",
"54 700 LINE",
"45 700 LINE",
"241 0 LINE",
"261 0 LINE",
"449 669 LINE",
"453 669 LINE",
"639 0 LINE",
"659 0 LINE",
"851 700 LINE",
"843 700 LINE"
);
}
);
width = 896;
}
);
leftKerningGroup = W;
rightKerningGroup = W;
unicode = 0057;
},
{
glyphname = X;
lastChange = "2017-06-22 10:18:05 +0000";
layers = (
{
anchors = (
{
name = bottom;
position = "{335, 0}";
},
{
name = top;
position = "{355, 700}";
}
);
background = {
paths = (
{
closed = 1;
nodes = (
"702 700 LINE",
"462 700 LINE",
"378 432 LINE",
"363 432 LINE",
"278 700 LINE",
"15 700 LINE",
"141 359 LINE",
"1 0 LINE",
"257 0 LINE",
"319 217 LINE",
"334 217 LINE",
"412 0 LINE",
"690 0 LINE",
"568 329 LINE"
);
}
);
};
layerId = "BFFFD157-90D3-4B85-B99D-9A2F366F03CA";
paths = (
{
closed = 1;
nodes = (
"682 700 LINE",
"432 700 LINE",
"357 502 LINE",
"347 502 LINE",
"263 700 LINE",
"13 700 LINE",
"178 354 LINE",
"5 0 LINE",
"255 0 LINE",
"329 188 LINE",
"339 188 LINE",
"422 0 LINE",
"682 0 LINE",
"506 331 LINE"
);
}
);
width = 687;
},
{
anchors = (
{
name = bottom;
position = "{300, 0}";
},
{
name = top;
position = "{300, 700}";
}
);
background = {
paths = (
{
closed = 1;
nodes = (
"554 700 LINE",
"453 700 LINE",
"318 401 LINE",
"303 401 LINE",
"157 700 LINE",
"49 700 LINE",
"231 356 LINE",
"35 0 LINE",
"141 0 LINE",
"281 272 LINE",
"296 272 LINE",
"450 0 LINE",
"564 0 LINE",
"365 328 LINE"
);
}
);
};
backgroundImage = {
crop = "{{0, 0}, {345, 241}}";
imagePath = "/Users/yanone/Desktop/Bildschirmfoto 2016-12-06 um 14.28.14.png";
locked = "1";
transform = "{3.5985, 0, 0, 3.9138, -577, -140}";
};
hints = (
{
horizontal = 1;
origin = "{0, 7}";
type = Anchor;
},
{
horizontal = 1;
origin = "{0, 5}";
type = Anchor;
},
{
horizontal = 1;
origin = "{0, 5}";
target = "{0, 1}";
type = Align;
options = 4;
},
{
horizontal = 1;
origin = "{0, 7}";
target = "{0, 11}";
type = Align;
options = 4;
}
);
layerId = "3E7589AA-8194-470F-8E2F-13C1C581BE24";
paths = (
{
closed = 1;
nodes = (
"564 700 LINE",
"463 700 LINE",
"307 408 LINE",
"301 408 LINE",
"147 700 LINE",
"39 700 LINE",
"234 351 LINE",
"25 0 LINE",
"131 0 LINE",
"290 278 LINE",
"296 278 LINE",
"460 0 LINE",
"574 0 LINE",
"366 339 LINE"
);
}
);
width = 599;
},
{
anchors = (
{
name = bottom;
position = "{277, 0}";
},
{
name = top;
position = "{277, 700}";
}
);
layerId = "FA91A8E1-7324-47F6-AE85-AED49CFCD01C";
paths = (
{
closed = 1;
nodes = (
"493 700 LINE",
"483 700 LINE",
"279 359 LINE",
"278 359 LINE",
"62 700 LINE",
"53 700 LINE",
"272 353 LINE",
"40 0 LINE",
"49 0 LINE",
"277 346 LINE",
"278 346 LINE",
"507 0 LINE",
"517 0 LINE",
"283 352 LINE"
);
}
);
width = 557;
}
);
leftKerningGroup = X;
leftMetricsKey = A;
rightKerningGroup = X;
rightMetricsKey = A;
unicode = 0058;
},
{
glyphname = Xdotaccent;
lastChange = "2016-12-09 21:58:16 +0000";
layers = (
{
background = {
paths = (
{
closed = 1;
nodes = (
"514 0 LINE",
"294 365 LINE",
"498 712 LINE",
"436 712 LINE",
"265 413 LINE",
"95 712 LINE",
"32 712 LINE",
"236 365 LINE",
"18 0 LINE",
"79 0 LINE",
"265 317 LINE",
"451 0 LINE"
);
},
{
closed = 1;
nodes = (
"296 800 LINE",
"296 863 LINE",
"234 863 LINE",
"234 800 LINE"
);
}
);
};
components = (
{
name = X;
},
{
name = dotaccent;
transform = "{1, 0, 0, 1, 202, 220}";
}
);
layerId = "3E7589AA-8194-470F-8E2F-13C1C581BE24";
width = 599;
},
{
background = {
paths = (
{
closed = 1;
nodes = (
"634 0 LINE",
"412 365 LINE",
"620 712 LINE",
"421 712 LINE",
"317 511 LINE",
"213 712 LINE",
"14 712 LINE",
"222 365 LINE",
"0 0 LINE",
"200 0 LINE",
"317 219 LINE",
"434 0 LINE"
);
},
{
closed = 1;
nodes = (
"387 785 LINE",
"387 923 LINE",
"249 923 LINE",
"249 785 LINE"
);
}
);
};
components = (
{
name = X;
},
{
name = dotaccent;
transform = "{1, 0, 0, 1, 194, 210}";
}
);
layerId = "BFFFD157-90D3-4B85-B99D-9A2F366F03CA";
width = 687;
},
{
components = (
{
name = X;
},
{
name = dotaccent;
transform = "{1, 0, 0, 1, 217, 232}";
}
);
layerId = "FA91A8E1-7324-47F6-AE85-AED49CFCD01C";
width = 557;
}
);
leftKerningGroup = X;
rightKerningGroup = X;
unicode = 1E8A;
},
{
glyphname = Y;
lastChange = "2017-07-13 13:03:27 +0000";
layers = (
{
anchors = (
{
name = bottom;
position = "{333, 0}";
},
{
name = top;
position = "{353, 700}";
},
{
name = topright;
position = "{662, 700}";
}
);
background = {
paths = (
{
closed = 1;
nodes = (
"159 0 LINE",
"515 0 LINE",
"682 700 LINE",
"456 700 LINE",
"362 210 LINE",
"347 210 LINE",
"249 700 LINE",
"-7 700 LINE"
);
}
);
};
layerId = "BFFFD157-90D3-4B85-B99D-9A2F366F03CA";
paths = (
{
closed = 1;
nodes = (
"237 170 LINE",
"458 170 LINE",
"679 700 LINE",
"443 700 LINE",
"356 415 LINE",
"346 415 LINE",
"259 700 LINE",
"3 700 LINE"
);
},
{
closed = 1;
nodes = (
"458 205 LINE",
"237 205 LINE",
"229 0 LINE",
"466 0 LINE"
);
}
);
width = 682;
},
{
anchors = (
{
name = bottom;
position = "{302, 0}";
},
{
name = top;
position = "{302, 700}";
},
{
name = topright;
position = "{610, 700}";
}
);
hints = (
{
horizontal = 1;
origin = "{1, 2}";
type = Anchor;
},
{
horizontal = 1;
origin = "{0, 7}";
type = Anchor;
},
{
horizontal = 1;
origin = "{0, 7}";
target = "{0, 3}";
type = Align;
options = 4;
}
);
layerId = "3E7589AA-8194-470F-8E2F-13C1C581BE24";
paths = (
{
closed = 1;
nodes = (
"269 179 LINE",
"337 179 LINE",
"590 700 LINE",
"491 700 LINE",
"313 324 LINE",
"298 324 LINE",
"115 700 LINE",
"13 700 LINE"
);
},
{
closed = 1;
nodes = (
"344 280 LINE",
"261 280 LINE",
"256 0 LINE",
"349 0 LINE"
);
}
);
width = 603;
},
{
anchors = (
{
name = bottom;
position = "{276, 0}";
},
{
name = top;
position = "{275, 700}";
},
{
name = topright;
position = "{546, 700}";
}
);
layerId = "FA91A8E1-7324-47F6-AE85-AED49CFCD01C";
paths = (
{
closed = 1;
nodes = (
"279 207 LINE",
"276 207 LINE",
"535 700 LINE",
"526 700 LINE",
"280 230 LINE",
"276 230 LINE",
"29 700 LINE",
"20 700 LINE"
);
},
{
closed = 1;
nodes = (
"281 226 LINE",
"274 226 LINE",
"273 0 LINE",
"281 0 LINE"
);
}
);
width = 555;
}
);
leftKerningGroup = Y;
leftMetricsKey = "=A*.5";
rightKerningGroup = Y;
rightMetricsKey = "=A*.5";
unicode = 0059;
},
{
glyphname = Z;
lastChange = "2017-04-23 11:59:23 +0000";
layers = (
{
anchors = (
{
name = bottom;
position = "{293, 0}";
},
{
name = stroke;
position = "{296, 356}";
},
{
name = top;
position = "{293, 700}";
},
{
name = topright;
position = "{578, 700}";
}
);
background = {
paths = (
{
closed = 1;
nodes = (
"231 210 LINE",
"274 129 LINE",
"603 604 LINE",
"547 424 LINE",
"547 700 LINE",
"44 700 LINE",
"44 490 LINE",
"350 490 LINE",
"308 571 LINE",
"-29 91 LINE",
"28 271 LINE",
"28 0 LINE",
"558 0 LINE",
"558 210 LINE"
);
}
);
};
layerId = "BFFFD157-90D3-4B85-B99D-9A2F366F03CA";
paths = (
{
closed = 1;
nodes = (
"231 200 LINE",
"251 110 LINE",
"583 588 LINE",
"547 424 LINE",
"547 700 LINE",
"44 700 LINE",
"44 490 LINE",
"350 490 LINE",
"329 588 LINE",
"-7 110 LINE",
"28 271 LINE",
"28 0 LINE",
"558 0 LINE",
"558 200 LINE"
);
}
);
width = 586;
},
{
anchors = (
{
name = bottom;
position = "{300, 0}";
},
{
name = stroke;
position = "{306, 344}";
},
{
name = top;
position = "{300, 700}";
},
{
name = topright;
position = "{590, 700}";
}
);
background = {
paths = (
{
closed = 1;
nodes = (
"148 700 LINE",
"54 700 LINE",
"54 0 LINE",
"148 0 LINE"
);
},
{
closed = 1;
nodes = (
"555 700 LINE",
"462 700 LINE",
"462 0 LINE",
"555 0 LINE"
);
},
{
closed = 1;
nodes = (
"109 369 LINE",
"107 278 LINE",
"519 278 LINE",
"523 369 LINE"
);
}
);
};
hints = (
{
horizontal = 1;
origin = "{0, 11}";
target = "{0, 1}";
type = TTStem;
stem = 2;
options = 4;
},
{
horizontal = 1;
origin = "{0, 5}";
target = "{0, 6}";
type = TTStem;
stem = 2;
options = 4;
}
);
layerId = "3E7589AA-8194-470F-8E2F-13C1C581BE24";
paths = (
{
closed = 1;
nodes = (
"142 92 LINE",
"159 58 LINE",
"558 650 LINE",
"535 576 LINE",
"535 700 LINE",
"77 700 LINE",
"77 608 LINE",
"459 608 LINE",
"442 642 LINE",
"37 44 LINE",
"60 118 LINE",
"60 0 LINE",
"538 0 LINE",
"538 92 LINE"
);
}
);
width = 588;
},
{
anchors = (
{
name = bottom;
position = "{297, 0}";
},
{
name = stroke;
position = "{295, 352}";
},
{
name = top;
position = "{297, 700}";
},
{
name = topright;
position = "{579, 700}";
}
);
layerId = "FA91A8E1-7324-47F6-AE85-AED49CFCD01C";
paths = (
{
closed = 1;
nodes = (
"90 8 LINE",
"91 5 LINE",
"509 695 LINE",
"507 689 LINE",
"507 700 LINE",
"97 700 LINE",
"97 692 LINE",
"500 692 LINE",
"499 695 LINE",
"82 5 LINE",
"84 11 LINE",
"84 0 LINE",
"513 0 LINE",
"513 8 LINE"
);
}
);
width = 579;
}
);
leftKerningGroup = Z;
rightKerningGroup = Z;
unicode = 005A;
},
{
glyphname = Zstroke;
lastChange = "2017-06-22 09:29:24 +0000";
layers = (
{
background = {
paths = (
{
closed = 1;
nodes = (
"496 0 LINE",
"496 48 LINE",
"118 48 LINE",
"296 338 LINE",
"436 338 LINE",
"436 380 LINE",
"322 380 LINE",
"496 664 LINE",
"496 712 LINE",
"78 712 LINE",
"78 664 LINE",
"438 664 LINE",
"262 380 LINE",
"123 380 LINE",
"123 338 LINE",
"236 338 LINE",
"63 57 LINE",
"63 0 LINE"
);
}
);
};
components = (
{
name = Z;
},
{
name = strokelongcomb;
transform = "{0.604, 0, 0, 1, 55, 80}";
}
);
layerId = "3E7589AA-8194-470F-8E2F-13C1C581BE24";
width = 588;
},
{
background = {
paths = (
{
closed = 1;
nodes = (
"513 0 LINE",
"513 156 LINE",
"239 156 LINE",
"328 293 LINE",
"439 293 LINE",
"439 427 LINE",
"416 427 LINE",
"513 576 LINE",
"513 712 LINE",
"42 712 LINE",
"42 556 LINE",
"303 556 LINE",
"219 427 LINE",
"109 427 LINE",
"109 293 LINE",
"132 293 LINE",
"30 136 LINE",
"30 0 LINE"
);
}
);
};
components = (
{
name = Z;
},
{
name = strokelongcomb;
transform = "{0.675, 0, 0, 1, 6, 90}";
}
);
guideLines = (
{
position = "{219, 427}";
}
);
layerId = "BFFFD157-90D3-4B85-B99D-9A2F366F03CA";
width = 586;
},
{
components = (
{
name = Z;
},
{
name = strokelongcomb;
transform = "{0.554, 0, 0, 1, 84, 90}";
}
);
layerId = "FA91A8E1-7324-47F6-AE85-AED49CFCD01C";
width = 579;
}
);
leftKerningGroup = Z;
leftMetricsKey = Z;
rightKerningGroup = Z;
rightMetricsKey = Z;
unicode = 01B5;
},
{
glyphname = Aringacute.ss17.001;
lastChange = "2017-04-22 14:09:58 +0000";
layers = (
{
background = {
components = (
{
name = Aacute;
}
);
guideLines = (
{
angle = 90;
position = "{288, 966}";
}
);
paths = (
{
closed = 1;
nodes = (
"587 0 LINE",
"325 712 LINE",
"277 712 LINE",
"15 0 LINE",
"73 0 LINE",
"135 173 LINE",
"467 173 LINE",
"529 0 LINE"
);
},
{
closed = 1;
nodes = (
"301 640 LINE",
"450 221 LINE",
"152 221 LINE"
);
},
{
closed = 1;
nodes = (
"415 924 OFFCURVE",
"364 975 OFFCURVE",
"301 975 CURVE SMOOTH",
"238 975 OFFCURVE",
"187 924 OFFCURVE",
"187 861 CURVE SMOOTH",
"187 798 OFFCURVE",
"238 746 OFFCURVE",
"301 746 CURVE SMOOTH",
"364 746 OFFCURVE",
"415 798 OFFCURVE",
"415 861 CURVE SMOOTH"
);
},
{
closed = 1;
nodes = (
"374 821 OFFCURVE",
"341 788 OFFCURVE",
"301 788 CURVE SMOOTH",
"261 788 OFFCURVE",
"228 821 OFFCURVE",
"228 861 CURVE SMOOTH",
"228 901 OFFCURVE",
"261 933 OFFCURVE",
"301 933 CURVE SMOOTH",
"341 933 OFFCURVE",
"374 901 OFFCURVE",
"374 861 CURVE SMOOTH"
);
},
{
closed = 1;
nodes = (
"418 1132 LINE",
"351 1132 LINE",
"254 985 LINE",
"312 985 LINE"
);
}
);
};
components = (
{
name = A;
},
{
name = ring;
transform = "{1, 0, 0, 1, 148, 220}";
},
{
name = acutecomb;
transform = "{1, 0, 0, 1, 187, 455}";
}
);
guideLines = (
{
angle = 90;
position = "{288, 966}";
}
);
layerId = "3E7589AA-8194-470F-8E2F-13C1C581BE24";
width = 627;
},
{
background = {
components = (
{
name = Aacute;
}
);
};
components = (
{
name = A;
},
{
name = ring;
transform = "{1, 0, 0, 1, 167, 210}";
},
{
name = acutecomb;
transform = "{1, 0, 0, 1, 201, 514}";
}
);
guideLines = (
{
angle = 90;
position = "{273, 1115}";
}
);
layerId = "BFFFD157-90D3-4B85-B99D-9A2F366F03CA";
width = 723;
},
{
components = (
{
name = A;
},
{
name = ring;
transform = "{1, 0, 0, 1, 180, 232}";
},
{
name = acutecomb;
transform = "{1, 0, 0, 1, 233, 429}";
}
);
layerId = "FA91A8E1-7324-47F6-AE85-AED49CFCD01C";
width = 612;
}
);
leftKerningGroup = A;
leftMetricsKey = A;
rightKerningGroup = A;
rightMetricsKey = A;
},
{
glyphname = Aringacute.ss17.002;
lastChange = "2017-04-22 14:09:58 +0000";
layers = (
{
background = {
components = (
{
name = Aacute;
}
);
guideLines = (
{
angle = 90;
position = "{288, 966}";
}
);
paths = (
{
closed = 1;
nodes = (
"587 0 LINE",
"325 712 LINE",
"277 712 LINE",
"15 0 LINE",
"73 0 LINE",
"135 173 LINE",
"467 173 LINE",
"529 0 LINE"
);
},
{
closed = 1;
nodes = (
"301 640 LINE",
"450 221 LINE",
"152 221 LINE"
);
},
{
closed = 1;
nodes = (
"415 924 OFFCURVE",
"364 975 OFFCURVE",
"301 975 CURVE SMOOTH",
"238 975 OFFCURVE",
"187 924 OFFCURVE",
"187 861 CURVE SMOOTH",
"187 798 OFFCURVE",
"238 746 OFFCURVE",
"301 746 CURVE SMOOTH",
"364 746 OFFCURVE",
"415 798 OFFCURVE",
"415 861 CURVE SMOOTH"
);
},
{
closed = 1;
nodes = (
"374 821 OFFCURVE",
"341 788 OFFCURVE",
"301 788 CURVE SMOOTH",
"261 788 OFFCURVE",
"228 821 OFFCURVE",
"228 861 CURVE SMOOTH",
"228 901 OFFCURVE",
"261 933 OFFCURVE",
"301 933 CURVE SMOOTH",
"341 933 OFFCURVE",
"374 901 OFFCURVE",
"374 861 CURVE SMOOTH"
);
},
{
closed = 1;
nodes = (
"418 1132 LINE",
"351 1132 LINE",
"254 985 LINE",
"312 985 LINE"
);
}
);
};
components = (
{
name = A;
},
{
name = ring;
transform = "{1, 0, 0, 1, 148, 220}";
},
{
name = acutecomb;
transform = "{1, 0, 0, 1, 187, 455}";
}
);
guideLines = (
{
angle = 90;
position = "{288, 966}";
}
);
layerId = "3E7589AA-8194-470F-8E2F-13C1C581BE24";
width = 627;
},
{
background = {
components = (
{
name = Aacute;
}
);
};
components = (
{
name = A;
},
{
name = ring;
transform = "{1, 0, 0, 1, 167, 210}";
},
{
name = acutecomb;
transform = "{1, 0, 0, 1, 201, 514}";
}
);
guideLines = (
{
angle = 90;
position = "{273, 1115}";
}
);
layerId = "BFFFD157-90D3-4B85-B99D-9A2F366F03CA";
width = 723;
},
{
components = (
{
name = A;
},
{
name = ring;
transform = "{1, 0, 0, 1, 180, 232}";
},
{
name = acutecomb;
transform = "{1, 0, 0, 1, 233, 429}";
}
);
layerId = "FA91A8E1-7324-47F6-AE85-AED49CFCD01C";
width = 612;
}
);
leftKerningGroup = A;
leftMetricsKey = A;
rightKerningGroup = A;
rightMetricsKey = A;
},
{
color = 10;
glyphname = Germandbls.c2sc;
lastChange = "2017-07-13 10:04:28 +0000";
layers = (
{
layerId = "BFFFD157-90D3-4B85-B99D-9A2F366F03CA";
paths = (
{
closed = 1;
nodes = (
"250 0 LINE",
"250 365 LINE",
"414 365 LINE",
"384 417 LINE",
"303 285 LINE",
"303 202 LINE",
"346 198 OFFCURVE",
"391 186 OFFCURVE",
"413 178 CURVE SMOOTH",
"432 171 OFFCURVE",
"440 163 OFFCURVE",
"440 153 CURVE SMOOTH",
"440 142 OFFCURVE",
"428 140 OFFCURVE",
"413 140 CURVE SMOOTH",
"372 140 OFFCURVE",
"332 154 OFFCURVE",
"302 170 CURVE",
"280 13 LINE",
"328 -6 OFFCURVE",
"378 -15 OFFCURVE",
"449 -15 CURVE SMOOTH",
"545 -15 OFFCURVE",
"634 27 OFFCURVE",
"634 146 CURVE SMOOTH",
"634 229 OFFCURVE",
"589 274 OFFCURVE",
"512 304 CURVE SMOOTH",
"488 312 OFFCURVE",
"446 317 OFFCURVE",
"411 321 CURVE",
"480 236 LINE",
"580 395 LINE",
"580 550 LINE",
"34 550 LINE",
"34 0 LINE"
);
}
);
width = 642;
},
{
hints = (
{
horizontal = 1;
origin = "{0, 21}";
target = "{0, 14}";
type = TTStem;
stem = 1;
options = 4;
},
{
horizontal = 1;
origin = "{0, 34}";
target = "{0, 1}";
type = TTStem;
stem = 1;
options = 4;
},
{
horizontal = 1;
origin = "{0, 35}";
type = Anchor;
},
{
horizontal = 1;
origin = "{0, 14}";
target = "{0, 34}";
other1 = "{0, 27}";
type = Interpolate;
},
{
horizontal = 1;
origin = "{0, 21}";
target = "{0, 1}";
other1 = "{0, 8}";
type = Interpolate;
}
);
layerId = "3E7589AA-8194-470F-8E2F-13C1C581BE24";
paths = (
{
closed = 1;
nodes = (
"162 0 LINE",
"162 452 LINE",
"420 452 LINE",
"382 503 LINE",
"274 283 LINE",
"274 224 LINE",
"311 218 OFFCURVE",
"352 210 OFFCURVE",
"378 198 CURVE SMOOTH",
"422 178 OFFCURVE",
"431 155 OFFCURVE",
"431 134 CURVE SMOOTH",
"431 100 OFFCURVE",
"409 78 OFFCURVE",
"363 78 CURVE SMOOTH",
"327 78 OFFCURVE",
"285 89 OFFCURVE",
"250 107 CURVE",
"228 27 LINE",
"273 -1 OFFCURVE",
"319 -11 OFFCURVE",
"365 -11 CURVE SMOOTH",
"461 -11 OFFCURVE",
"523 42 OFFCURVE",
"523 134 CURVE SMOOTH",
"523 201 OFFCURVE",
"488 251 OFFCURVE",
"414 281 CURVE SMOOTH",
"387 292 OFFCURVE",
"359 301 OFFCURVE",
"329 306 CURVE",
"360 264 LINE",
"467 475 LINE",
"467 540 LINE",
"72 540 LINE",
"72 0 LINE"
);
}
);
width = 560;
},
{
layerId = "FA91A8E1-7324-47F6-AE85-AED49CFCD01C";
paths = (
{
closed = 1;
nodes = (
"98 0 LINE",
"98 520 LINE",
"418 520 LINE",
"417 525 LINE",
"248 274 LINE",
"248 265 LINE",
"296 257 OFFCURVE",
"323 249 OFFCURVE",
"354 236 CURVE SMOOTH",
"422 207 OFFCURVE",
"439 164 OFFCURVE",
"439 118 CURVE SMOOTH",
"439 46 OFFCURVE",
"383 2 OFFCURVE",
"292 2 CURVE SMOOTH",
"267 2 OFFCURVE",
"226 5 OFFCURVE",
"186 15 CURVE",
"184 7 LINE",
"229 -4 OFFCURVE",
"264 -6 OFFCURVE",
"295 -6 CURVE SMOOTH",
"391 -6 OFFCURVE",
"447 41 OFFCURVE",
"447 119 CURVE SMOOTH",
"447 167 OFFCURVE",
"428 214 OFFCURVE",
"356 244 CURVE SMOOTH",
"327 256 OFFCURVE",
"297 265 OFFCURVE",
"253 273 CURVE",
"254 269 LINE",
"425 523 LINE",
"425 528 LINE",
"90 528 LINE",
"90 0 LINE"
);
}
);
width = 495;
},
{
associatedMasterId = "3E7589AA-8194-470F-8E2F-13C1C581BE24";
layerId = "CC472259-7609-4BFC-805A-3B3425DA85D3";
name = "{155, 100}";
paths = (
{
closed = 1;
nodes = (
"206 0 LINE",
"206 409 LINE",
"417 409 LINE",
"383 460 LINE",
"289 310 LINE",
"289 198 LINE",
"329 194 OFFCURVE",
"372 187 OFFCURVE",
"396 180 CURVE SMOOTH",
"427 171 OFFCURVE",
"436 160 OFFCURVE",
"436 148 CURVE SMOOTH",
"436 132 OFFCURVE",
"419 124 OFFCURVE",
"388 124 CURVE SMOOTH",
"350 124 OFFCURVE",
"309 135 OFFCURVE",
"276 150 CURVE",
"254 20 LINE",
"301 -4 OFFCURVE",
"355 -13 OFFCURVE",
"397 -13 CURVE SMOOTH",
"503 -13 OFFCURVE",
"579 38 OFFCURVE",
"579 148 CURVE SMOOTH",
"579 225 OFFCURVE",
"539 269 OFFCURVE",
"479 292 CURVE SMOOTH",
"441 306 OFFCURVE",
"403 312 OFFCURVE",
"370 315 CURVE",
"420 250 LINE",
"524 435 LINE",
"524 545 LINE",
"53 545 LINE",
"53 0 LINE"
);
}
);
width = 602;
}
);
leftKerningGroup = longs.sc;
leftMetricsKey = h.sc;
rightKerningGroup = germandbls.sc;
},
{
glyphname = Aringacute.ss17;
lastChange = "2017-04-22 14:09:58 +0000";
layers = (
{
background = {
components = (
{
name = Aacute;
}
);
guideLines = (
{
angle = 90;
position = "{288, 966}";
}
);
paths = (
{
closed = 1;
nodes = (
"587 0 LINE",
"325 712 LINE",
"277 712 LINE",
"15 0 LINE",
"73 0 LINE",
"135 173 LINE",
"467 173 LINE",
"529 0 LINE"
);
},
{
closed = 1;
nodes = (
"301 640 LINE",
"450 221 LINE",
"152 221 LINE"
);
},
{
closed = 1;
nodes = (
"415 924 OFFCURVE",
"364 975 OFFCURVE",
"301 975 CURVE SMOOTH",
"238 975 OFFCURVE",
"187 924 OFFCURVE",
"187 861 CURVE SMOOTH",
"187 798 OFFCURVE",
"238 746 OFFCURVE",
"301 746 CURVE SMOOTH",
"364 746 OFFCURVE",
"415 798 OFFCURVE",
"415 861 CURVE SMOOTH"
);
},
{
closed = 1;
nodes = (
"374 821 OFFCURVE",
"341 788 OFFCURVE",
"301 788 CURVE SMOOTH",
"261 788 OFFCURVE",
"228 821 OFFCURVE",
"228 861 CURVE SMOOTH",
"228 901 OFFCURVE",
"261 933 OFFCURVE",
"301 933 CURVE SMOOTH",
"341 933 OFFCURVE",
"374 901 OFFCURVE",
"374 861 CURVE SMOOTH"
);
},
{
closed = 1;
nodes = (
"418 1132 LINE",
"351 1132 LINE",
"254 985 LINE",
"312 985 LINE"
);
}
);
};
components = (
{
name = A;
},
{
name = ring;
transform = "{1, 0, 0, 1, 148, 220}";
},
{
name = acutecomb;
transform = "{1, 0, 0, 1, 187, 455}";
}
);
guideLines = (
{
angle = 90;
position = "{288, 966}";
}
);
layerId = "3E7589AA-8194-470F-8E2F-13C1C581BE24";
width = 627;
},
{
background = {
components = (
{
name = Aacute;
}
);
};
components = (
{
name = A;
},
{
name = ring;
transform = "{1, 0, 0, 1, 167, 210}";
},
{
name = acutecomb;
transform = "{1, 0, 0, 1, 201, 514}";
}
);
guideLines = (
{
angle = 90;
position = "{273, 1115}";
}
);
layerId = "BFFFD157-90D3-4B85-B99D-9A2F366F03CA";
width = 723;
},
{
components = (
{
name = A;
},
{
name = ring;
transform = "{1, 0, 0, 1, 180, 232}";
},
{
name = acutecomb;
transform = "{1, 0, 0, 1, 233, 429}";
}
);
layerId = "FA91A8E1-7324-47F6-AE85-AED49CFCD01C";
width = 612;
}
);
leftKerningGroup = A;
leftMetricsKey = A;
rightKerningGroup = A;
rightMetricsKey = A;
},
{
glyphname = a;
lastChange = "2017-07-15 14:56:08 +0000";
layers = (
{
anchors = (
{
name = bottom;
position = "{225, 0}";
},
{
name = ogonek;
position = "{461, 0}";
},
{
name = top;
position = "{237, 490}";
}
);
background = {
paths = (
{
closed = 1;
nodes = (
"461 750 LINE",
"240 750 LINE",
"240 240 LINE SMOOTH",
"240 185 OFFCURVE",
"224 159 OFFCURVE",
"192 159 CURVE SMOOTH",
"159 159 OFFCURVE",
"146 185 OFFCURVE",
"146 231 CURVE SMOOTH",
"146 285 OFFCURVE",
"164 311 OFFCURVE",
"205 311 CURVE SMOOTH",
"220 311 OFFCURVE",
"237 307 OFFCURVE",
"248 301 CURVE",
"276 466 LINE",
"245 490 OFFCURVE",
"202 503 OFFCURVE",
"150 503 CURVE SMOOTH",
"5 503 OFFCURVE",
"-63 400 OFFCURVE",
"-63 233 CURVE SMOOTH",
"-63 89 OFFCURVE",
"-15 -10 OFFCURVE",
"142 -10 CURVE SMOOTH",
"219 -10 OFFCURVE",
"261 15 OFFCURVE",
"290 46 CURVE",
"300 46 LINE",
"328 0 LINE",
"461 0 LINE"
);
}
);
};
layerId = "BFFFD157-90D3-4B85-B99D-9A2F366F03CA";
paths = (
{
closed = 1;
nodes = (
"251 153 LINE SMOOTH",
"251 120 OFFCURVE",
"237 111 OFFCURVE",
"219 111 CURVE SMOOTH",
"197 111 OFFCURVE",
"188 124 OFFCURVE",
"188 142 CURVE SMOOTH",
"188 152 OFFCURVE",
"191 163 OFFCURVE",
"201 169 CURVE SMOOTH",
"215 178 OFFCURVE",
"233 181 OFFCURVE",
"294 181 CURVE",
"304 296 LINE",
"181 299 OFFCURVE",
"111 283 OFFCURVE",
"69 252 CURVE SMOOTH",
"29 222 OFFCURVE",
"14 178 OFFCURVE",
"14 130 CURVE SMOOTH",
"14 45 OFFCURVE",
"60 -12 OFFCURVE",
"155 -12 CURVE SMOOTH",
"227 -12 OFFCURVE",
"272 20 OFFCURVE",
"292 41 CURVE",
"302 41 LINE",
"328 0 LINE",
"461 0 LINE",
"461 314 LINE SMOOTH",
"461 448 OFFCURVE",
"375 501 OFFCURVE",
"234 501 CURVE SMOOTH",
"152 501 OFFCURVE",
"78 488 OFFCURVE",
"23 472 CURVE",
"36 307 LINE",
"83 318 OFFCURVE",
"133 327 OFFCURVE",
"184 327 CURVE SMOOTH",
"240 327 OFFCURVE",
"251 315 OFFCURVE",
"251 289 CURVE SMOOTH"
);
}
);
width = 484;
},
{
anchors = (
{
name = bottom;
position = "{234, 0}";
},
{
name = ogonek;
position = "{409, 0}";
},
{
name = top;
position = "{236, 480}";
}
);
background = {
paths = (
{
closed = 1;
nodes = (
"384 204 LINE",
"379 287 LINE",
"20 287 LINE",
"66 317 LINE",
"56 281 OFFCURVE",
"48 241 OFFCURVE",
"48 193 CURVE SMOOTH",
"48 77 OFFCURVE",
"95 -13 OFFCURVE",
"234 -13 CURVE SMOOTH",
"371 -13 OFFCURVE",
"441 80 OFFCURVE",
"441 242 CURVE SMOOTH",
"441 419 OFFCURVE",
"362 490 OFFCURVE",
"219 490 CURVE SMOOTH",
"155 490 OFFCURVE",
"104 476 OFFCURVE",
"57 454 CURVE",
"68 370 LINE",
"107 391 OFFCURVE",
"159 405 OFFCURVE",
"212 405 CURVE SMOOTH",
"290 405 OFFCURVE",
"353 375 OFFCURVE",
"353 235 CURVE SMOOTH",
"353 135 OFFCURVE",
"319 71 OFFCURVE",
"238 71 CURVE SMOOTH",
"168 71 OFFCURVE",
"138 118 OFFCURVE",
"138 186 CURVE SMOOTH",
"138 203 OFFCURVE",
"140 217 OFFCURVE",
"142 225 CURVE",
"100 204 LINE"
);
}
);
};
hints = (
{
horizontal = 1;
origin = "{0, 22}";
target = "{0, 3}";
type = TTStem;
stem = 1;
options = 4;
},
{
horizontal = 1;
origin = "{0, 13}";
target = "{0, 12}";
type = TTStem;
stem = 1;
},
{
horizontal = 1;
origin = "{0, 32}";
target = "{0, 39}";
type = TTStem;
stem = 1;
options = 4;
},
{
horizontal = 1;
origin = "{0, 27}";
type = Anchor;
}
);
layerId = "3E7589AA-8194-470F-8E2F-13C1C581BE24";
paths = (
{
closed = 1;
nodes = (
"319 176 LINE SMOOTH",
"319 119 OFFCURVE",
"291 68 OFFCURVE",
"213 68 CURVE SMOOTH",
"152 68 OFFCURVE",
"139 98 OFFCURVE",
"139 125 CURVE SMOOTH",
"139 151 OFFCURVE",
"152 167 OFFCURVE",
"169 177 CURVE SMOOTH",
"205 198 OFFCURVE",
"270 204 OFFCURVE",
"324 204 CURVE",
"324 283 LINE",
"238 281 OFFCURVE",
"173 270 OFFCURVE",
"132 251 CURVE SMOOTH",
"74 225 OFFCURVE",
"51 178 OFFCURVE",
"51 124 CURVE SMOOTH",
"51 38 OFFCURVE",
"103 -10 OFFCURVE",
"195 -10 CURVE SMOOTH",
"260 -10 OFFCURVE",
"301 15 OFFCURVE",
"324 47 CURVE",
"332 47 LINE",
"343 0 LINE",
"409 0 LINE",
"409 340 LINE SMOOTH",
"409 460 OFFCURVE",
"326 489 OFFCURVE",
"233 489 CURVE SMOOTH",
"167 489 OFFCURVE",
"104 477 OFFCURVE",
"56 454 CURVE",
"69 369 LINE",
"109 387 OFFCURVE",
"159 401 OFFCURVE",
"215 401 CURVE SMOOTH",
"306 401 OFFCURVE",
"319 364 OFFCURVE",
"319 316 CURVE SMOOTH"
);
}
);
width = 471;
},
{
anchors = (
{
name = bottom;
position = "{228, 0}";
},
{
name = ogonek;
position = "{434, 0}";
},
{
name = top;
position = "{235, 485}";
}
);
associatedMasterId = "3E7589AA-8194-470F-8E2F-13C1C581BE24";
background = {
paths = (
{
closed = 1;
nodes = (
"282 159 LINE SMOOTH",
"282 126 OFFCURVE",
"267 102 OFFCURVE",
"219 102 CURVE SMOOTH",
"178 102 OFFCURVE",
"167 119 OFFCURVE",
"167 135 CURVE SMOOTH",
"167 150 OFFCURVE",
"176 160 OFFCURVE",
"188 165 CURVE SMOOTH",
"214 176 OFFCURVE",
"251 180 OFFCURVE",
"288 180 CURVE",
"293 295 LINE",
"210 294 OFFCURVE",
"139 278 OFFCURVE",
"95 249 CURVE SMOOTH",
"48 218 OFFCURVE",
"31 176 OFFCURVE",
"31 127 CURVE SMOOTH",
"31 38 OFFCURVE",
"83 -11 OFFCURVE",
"181 -11 CURVE SMOOTH",
"246 -11 OFFCURVE",
"286 12 OFFCURVE",
"308 46 CURVE",
"317 46 LINE",
"331 0 LINE",
"432 0 LINE",
"432 337 LINE SMOOTH",
"432 460 OFFCURVE",
"348 495 OFFCURVE",
"234 495 CURVE SMOOTH",
"158 495 OFFCURVE",
"80 479 OFFCURVE",
"26 458 CURVE",
"55 325 LINE",
"95 340 OFFCURVE",
"148 355 OFFCURVE",
"203 355 CURVE SMOOTH",
"270 355 OFFCURVE",
"282 333 OFFCURVE",
"282 301 CURVE SMOOTH"
);
}
);
};
hints = (
{
horizontal = 1;
place = "{-10, 78}";
type = TTStem;
stem = 1;
options = 4;
},
{
horizontal = 1;
place = "{283, -79}";
type = TTStem;
stem = 1;
},
{
horizontal = 1;
place = "{489, -86}";
type = TTStem;
stem = 1;
options = 4;
},
{
horizontal = 1;
place = "{0, 0}";
type = Anchor;
}
);
layerId = "1FA54028-AD2E-4209-AA7B-72DF2DF16264";
name = "{155, 100}";
paths = (
{
closed = 1;
nodes = (
"282 159 LINE SMOOTH",
"282 126 OFFCURVE",
"267 102 OFFCURVE",
"219 102 CURVE SMOOTH",
"178 102 OFFCURVE",
"167 119 OFFCURVE",
"167 135 CURVE SMOOTH",
"167 150 OFFCURVE",
"176 160 OFFCURVE",
"188 165 CURVE SMOOTH",
"214 176 OFFCURVE",
"251 180 OFFCURVE",
"288 180 CURVE",
"293 295 LINE",
"210 294 OFFCURVE",
"139 278 OFFCURVE",
"95 249 CURVE SMOOTH",
"48 218 OFFCURVE",
"31 176 OFFCURVE",
"31 127 CURVE SMOOTH",
"31 38 OFFCURVE",
"83 -11 OFFCURVE",
"181 -11 CURVE SMOOTH",
"246 -11 OFFCURVE",
"286 12 OFFCURVE",
"308 46 CURVE",
"317 46 LINE",
"331 0 LINE",
"432 0 LINE",
"432 337 LINE SMOOTH",
"432 460 OFFCURVE",
"348 495 OFFCURVE",
"234 495 CURVE SMOOTH",
"158 495 OFFCURVE",
"81 479 OFFCURVE",
"34 461 CURVE",
"55 325 LINE",
"95 340 OFFCURVE",
"148 355 OFFCURVE",
"203 355 CURVE SMOOTH",
"270 355 OFFCURVE",
"282 333 OFFCURVE",
"282 301 CURVE SMOOTH"
);
}
);
width = 478;
},
{
anchors = (
{
name = bottom;
position = "{196, 0}";
},
{
name = ogonek;
position = "{344, 0}";
},
{
name = top;
position = "{209, 470}";
}
);
background = {
paths = (
{
closed = 1;
nodes = (
"346 146 LINE SMOOTH",
"346 52 OFFCURVE",
"284 0 OFFCURVE",
"193 0 CURVE SMOOTH",
"108 0 OFFCURVE",
"72 46 OFFCURVE",
"72 106 CURVE SMOOTH",
"72 137 OFFCURVE",
"83 162 OFFCURVE",
"98 178 CURVE SMOOTH",
"141 223 OFFCURVE",
"232 229 OFFCURVE",
"349 229 CURVE",
"349 236 LINE",
"230 236 OFFCURVE",
"137 229 OFFCURVE",
"94 184 CURVE SMOOTH",
"75 164 OFFCURVE",
"65 139 OFFCURVE",
"65 106 CURVE SMOOTH",
"65 42 OFFCURVE",
"103 -7 OFFCURVE",
"193 -7 CURVE SMOOTH",
"266 -7 OFFCURVE",
"326 27 OFFCURVE",
"345 94 CURVE",
"347 94 LINE",
"348 0 LINE",
"353 0 LINE",
"353 347 LINE SMOOTH",
"353 435 OFFCURVE",
"311 475 OFFCURVE",
"215 475 CURVE SMOOTH",
"151 475 OFFCURVE",
"101 457 OFFCURVE",
"67 435 CURVE",
"70 429 LINE",
"102 450 OFFCURVE",
"153 468 OFFCURVE",
"214 468 CURVE SMOOTH",
"307 468 OFFCURVE",
"346 430 OFFCURVE",
"346 348 CURVE SMOOTH"
);
}
);
};
layerId = "FA91A8E1-7324-47F6-AE85-AED49CFCD01C";
paths = (
{
closed = 1;
nodes = (
"346 146 LINE SMOOTH",
"346 52 OFFCURVE",
"284 0 OFFCURVE",
"193 0 CURVE SMOOTH",
"108 0 OFFCURVE",
"72 46 OFFCURVE",
"72 106 CURVE SMOOTH",
"72 137 OFFCURVE",
"83 162 OFFCURVE",
"98 178 CURVE SMOOTH",
"141 223 OFFCURVE",
"232 229 OFFCURVE",
"349 229 CURVE",
"349 236 LINE",
"230 236 OFFCURVE",
"137 229 OFFCURVE",
"94 184 CURVE SMOOTH",
"75 164 OFFCURVE",
"65 139 OFFCURVE",
"65 106 CURVE SMOOTH",
"65 42 OFFCURVE",
"103 -7 OFFCURVE",
"193 -7 CURVE SMOOTH",
"266 -7 OFFCURVE",
"326 27 OFFCURVE",
"345 94 CURVE",
"347 94 LINE",
"348 0 LINE",
"353 0 LINE",
"353 347 LINE SMOOTH",
"353 435 OFFCURVE",
"311 475 OFFCURVE",
"215 475 CURVE SMOOTH",
"151 475 OFFCURVE",
"101 457 OFFCURVE",
"68 436 CURVE",
"70 429 LINE",
"102 450 OFFCURVE",
"153 468 OFFCURVE",
"214 468 CURVE SMOOTH",
"307 468 OFFCURVE",
"346 430 OFFCURVE",
"346 348 CURVE SMOOTH"
);
}
);
width = 438;
}
);
leftKerningGroup = a;
rightKerningGroup = a;
rightMetricsKey = "=m*.9";
unicode = 0061;
},
{
glyphname = aringacute;
lastChange = "2017-07-15 08:22:08 +0000";
layers = (
{
background = {
components = (
{
name = aacute;
}
);
guideLines = (
{
angle = 90;
position = "{220, 565}";
}
);
paths = (
{
closed = 1;
nodes = (
"431 0 LINE",
"431 330 LINE SMOOTH",
"431 431 OFFCURVE",
"372 488 OFFCURVE",
"244 488 CURVE SMOOTH",
"165 488 OFFCURVE",
"115 471 OFFCURVE",
"74 414 CURVE",
"111 382 LINE",
"142 426 OFFCURVE",
"176 443 OFFCURVE",
"244 443 CURVE SMOOTH",
"343 443 OFFCURVE",
"380 402 OFFCURVE",
"380 325 CURVE SMOOTH",
"380 271 LINE",
"224 271 LINE SMOOTH",
"119 271 OFFCURVE",
"56 220 OFFCURVE",
"56 132 CURVE SMOOTH",
"56 96 OFFCURVE",
"68 61 OFFCURVE",
"91 38 CURVE SMOOTH",
"122 6 OFFCURVE",
"161 -6 OFFCURVE",
"233 -6 CURVE SMOOTH",
"301 -6 OFFCURVE",
"339 7 OFFCURVE",
"380 48 CURVE",
"380 0 LINE"
);
},
{
closed = 1;
nodes = (
"380 168 LINE SMOOTH",
"380 124 OFFCURVE",
"371 93 OFFCURVE",
"353 76 CURVE SMOOTH",
"318 43 OFFCURVE",
"277 39 OFFCURVE",
"233 39 CURVE SMOOTH",
"145 39 OFFCURVE",
"107 69 OFFCURVE",
"107 133 CURVE SMOOTH",
"107 198 OFFCURVE",
"148 230 OFFCURVE",
"230 230 CURVE SMOOTH",
"380 230 LINE"
);
},
{
closed = 1;
nodes = (
"363 740 OFFCURVE",
"312 791 OFFCURVE",
"249 791 CURVE SMOOTH",
"186 791 OFFCURVE",
"135 740 OFFCURVE",
"135 677 CURVE SMOOTH",
"135 614 OFFCURVE",
"186 562 OFFCURVE",
"249 562 CURVE SMOOTH",
"312 562 OFFCURVE",
"363 614 OFFCURVE",
"363 677 CURVE SMOOTH"
);
},
{
closed = 1;
nodes = (
"322 637 OFFCURVE",
"289 604 OFFCURVE",
"249 604 CURVE SMOOTH",
"209 604 OFFCURVE",
"176 637 OFFCURVE",
"176 677 CURVE SMOOTH",
"176 717 OFFCURVE",
"209 749 OFFCURVE",
"249 749 CURVE SMOOTH",
"289 749 OFFCURVE",
"322 717 OFFCURVE",
"322 677 CURVE SMOOTH"
);
},
{
closed = 1;
nodes = (
"366 948 LINE",
"299 948 LINE",
"202 801 LINE",
"260 801 LINE"
);
}
);
};
components = (
{
name = aring;
},
{
name = acute;
transform = "{1, 0, 0, 1, 109, 235}";
}
);
guideLines = (
{
angle = 90;
position = "{220, 889}";
},
{
position = "{452, -39}";
},
{
position = "{452, -39}";
}
);
layerId = "3E7589AA-8194-470F-8E2F-13C1C581BE24";
width = 471;
},
{
background = {
paths = (
{
closed = 1;
nodes = (
"483 0 LINE",
"483 349 LINE SMOOTH",
"483 480 OFFCURVE",
"400 544 OFFCURVE",
"246 544 CURVE SMOOTH",
"155 544 OFFCURVE",
"106 525 OFFCURVE",
"51 470 CURVE",
"153 368 LINE",
"179 394 OFFCURVE",
"201 406 OFFCURVE",
"238 406 CURVE SMOOTH",
"295 406 OFFCURVE",
"319 388 OFFCURVE",
"319 339 CURVE SMOOTH",
"319 325 LINE",
"213 325 LINE SMOOTH",
"82 325 OFFCURVE",
"27 250 OFFCURVE",
"27 169 CURVE SMOOTH",
"27 119 OFFCURVE",
"43 74 OFFCURVE",
"74 43 CURVE SMOOTH",
"104 13 OFFCURVE",
"149 -5 OFFCURVE",
"203 -5 CURVE SMOOTH",
"260 -5 OFFCURVE",
"290 11 OFFCURVE",
"323 44 CURVE",
"323 0 LINE"
);
},
{
closed = 1;
nodes = (
"319 202 LINE SMOOTH",
"319 174 OFFCURVE",
"315 159 OFFCURVE",
"302 147 CURVE SMOOTH",
"285 132 OFFCURVE",
"270 128 OFFCURVE",
"243 128 CURVE SMOOTH",
"203 128 OFFCURVE",
"184 147 OFFCURVE",
"184 172 CURVE SMOOTH",
"184 199 OFFCURVE",
"203 216 OFFCURVE",
"241 216 CURVE SMOOTH",
"319 216 LINE"
);
},
{
closed = 1;
nodes = (
"404 808 OFFCURVE",
"342 869 OFFCURVE",
"266 869 CURVE SMOOTH",
"190 869 OFFCURVE",
"128 807 OFFCURVE",
"128 731 CURVE SMOOTH",
"128 655 OFFCURVE",
"190 593 OFFCURVE",
"266 593 CURVE SMOOTH",
"342 593 OFFCURVE",
"404 655 OFFCURVE",
"404 731 CURVE SMOOTH"
);
},
{
closed = 1;
nodes = (
"318 703 OFFCURVE",
"294 679 OFFCURVE",
"266 679 CURVE SMOOTH",
"238 679 OFFCURVE",
"214 703 OFFCURVE",
"214 731 CURVE SMOOTH",
"214 759 OFFCURVE",
"238 783 OFFCURVE",
"266 783 CURVE SMOOTH",
"294 783 OFFCURVE",
"318 759 OFFCURVE",
"318 731 CURVE SMOOTH"
);
},
{
closed = 1;
nodes = (
"418 1059 LINE",
"265 1059 LINE",
"200 879 LINE",
"317 879 LINE"
);
}
);
};
components = (
{
name = aring;
},
{
name = acute;
transform = "{1, 0, 0, 1, 76, 304}";
}
);
guideLines = (
{
angle = 90;
position = "{201, 889}";
}
);
layerId = "BFFFD157-90D3-4B85-B99D-9A2F366F03CA";
width = 485;
},
{
components = (
{
name = aring;
},
{
name = acute;
transform = "{1, 0, 0, 1, 135, 199}";
}
);
layerId = "FA91A8E1-7324-47F6-AE85-AED49CFCD01C";
width = 438;
}
);
leftKerningGroup = a;
leftMetricsKey = a;
rightKerningGroup = a;
rightMetricsKey = a;
unicode = 01FB;
},
{
glyphname = ae;
lastChange = "2017-07-13 12:38:46 +0000";
layers = (
{
anchors = (
{
name = bottom;
position = "{354, 0}";
},
{
name = top;
position = "{364, 480}";
}
);
background = {
paths = (
{
closed = 1;
nodes = (
"362 274 LINE",
"367 194 LINE",
"726 194 LINE",
"680 161 LINE",
"690 197 OFFCURVE",
"698 237 OFFCURVE",
"698 285 CURVE SMOOTH",
"698 401 OFFCURVE",
"651 491 OFFCURVE",
"512 491 CURVE SMOOTH",
"375 491 OFFCURVE",
"305 398 OFFCURVE",
"305 236 CURVE SMOOTH",
"305 59 OFFCURVE",
"384 -12 OFFCURVE",
"527 -12 CURVE SMOOTH",
"591 -12 OFFCURVE",
"642 2 OFFCURVE",
"693 27 CURVE",
"678 108 LINE",
"639 87 OFFCURVE",
"587 73 OFFCURVE",
"534 73 CURVE SMOOTH",
"456 73 OFFCURVE",
"393 103 OFFCURVE",
"393 243 CURVE SMOOTH",
"393 343 OFFCURVE",
"427 407 OFFCURVE",
"508 407 CURVE SMOOTH",
"578 407 OFFCURVE",
"608 360 OFFCURVE",
"608 292 CURVE SMOOTH",
"608 275 OFFCURVE",
"606 261 OFFCURVE",
"604 253 CURVE",
"646 274 LINE"
);
}
);
};
guideLines = (
{
angle = 90;
position = "{403, 667}";
}
);
hints = (
{
horizontal = 1;
origin = "{0, 3}";
target = "{0, 10}";
type = TTStem;
stem = 1;
options = 4;
},
{
horizontal = 1;
origin = "{0, 79}";
target = "{0, 62}";
type = TTStem;
stem = 1;
options = 4;
},
{
horizontal = 1;
origin = "{0, 27}";
target = "{0, 26}";
type = TTStem;
stem = 1;
},
{
horizontal = 1;
origin = "{0, 70}";
target = "{0, 71}";
type = TTStem;
stem = 1;
},
{
horizontal = 1;
origin = "{0, 43}";
target = "{0, 50}";
type = TTStem;
stem = 1;
options = 4;
},
{
horizontal = 1;
origin = "{0, 36}";
target = "{0, 17}";
type = TTStem;
stem = 1;
options = 4;
}
);
layerId = "3E7589AA-8194-470F-8E2F-13C1C581BE24";
paths = (
{
closed = 1;
nodes = (
"388 421 LINE",
"359 475 OFFCURVE",
"297 492 OFFCURVE",
"230 492 CURVE SMOOTH",
"154 492 OFFCURVE",
"90 473 OFFCURVE",
"45 450 CURVE",
"71 370 LINE",
"107 386 OFFCURVE",
"156 403 OFFCURVE",
"218 403 CURVE SMOOTH",
"303 403 OFFCURVE",
"316 364 OFFCURVE",
"316 316 CURVE SMOOTH",
"316 176 LINE SMOOTH",
"316 119 OFFCURVE",
"288 67 OFFCURVE",
"210 67 CURVE SMOOTH",
"155 67 OFFCURVE",
"136 91 OFFCURVE",
"136 118 CURVE SMOOTH",
"136 141 OFFCURVE",
"149 159 OFFCURVE",
"169 169 CURVE SMOOTH",
"203 186 OFFCURVE",
"267 191 OFFCURVE",
"321 191 CURVE",
"321 271 LINE",
"235 269 OFFCURVE",
"175 260 OFFCURVE",
"134 243 CURVE SMOOTH",
"76 220 OFFCURVE",
"48 175 OFFCURVE",
"48 117 CURVE SMOOTH",
"48 39 OFFCURVE",
"100 -10 OFFCURVE",
"198 -10 CURVE SMOOTH",
"279 -10 OFFCURVE",
"321 23 OFFCURVE",
"353 67 CURVE",
"359 67 LINE",
"396 14 OFFCURVE",
"448 -12 OFFCURVE",
"533 -12 CURVE SMOOTH",
"591 -12 OFFCURVE",
"642 2 OFFCURVE",
"693 27 CURVE",
"678 108 LINE",
"639 87 OFFCURVE",
"587 73 OFFCURVE",
"540 73 CURVE SMOOTH",
"492 73 OFFCURVE",
"447 84 OFFCURVE",
"422 126 CURVE SMOOTH",
"406 152 OFFCURVE",
"399 190 OFFCURVE",
"399 243 CURVE SMOOTH",
"399 287 OFFCURVE",
"403 326 OFFCURVE",
"418 354 CURVE SMOOTH",
"436 388 OFFCURVE",
"469 407 OFFCURVE",
"514 407 CURVE SMOOTH",
"578 407 OFFCURVE",
"608 360 OFFCURVE",
"608 293 CURVE SMOOTH",
"608 281 OFFCURVE",
"607 264 OFFCURVE",
"604 250 CURVE",
"630 274 LINE",
"391 274 LINE",
"391 194 LINE",
"726 194 LINE",
"680 161 LINE",
"690 203 OFFCURVE",
"698 237 OFFCURVE",
"698 285 CURVE SMOOTH",
"698 401 OFFCURVE",
"651 491 OFFCURVE",
"518 491 CURVE SMOOTH",
"446 491 OFFCURVE",
"393 466 OFFCURVE",
"358 418 CURVE"
);
}
);
width = 750;
},
{
anchors = (
{
name = bottom;
position = "{344, 0}";
},
{
name = top;
position = "{344, 490}";
}
);
background = {
paths = (
{
closed = 1;
nodes = (
"251 153 LINE SMOOTH",
"251 117 OFFCURVE",
"237 107 OFFCURVE",
"219 107 CURVE SMOOTH",
"197 107 OFFCURVE",
"188 121 OFFCURVE",
"188 137 CURVE SMOOTH",
"188 152 OFFCURVE",
"193 164 OFFCURVE",
"201 170 CURVE SMOOTH",
"216 181 OFFCURVE",
"233 183 OFFCURVE",
"294 183 CURVE",
"304 290 LINE",
"172 290 OFFCURVE",
"112 276 OFFCURVE",
"65 241 CURVE SMOOTH",
"27 213 OFFCURVE",
"14 172 OFFCURVE",
"14 127 CURVE SMOOTH",
"14 39 OFFCURVE",
"61 -14 OFFCURVE",
"163 -14 CURVE SMOOTH",
"232 -14 OFFCURVE",
"270 11 OFFCURVE",
"293 44 CURVE",
"303 44 LINE",
"323 0 LINE",
"461 0 LINE",
"461 314 LINE SMOOTH",
"461 448 OFFCURVE",
"375 505 OFFCURVE",
"234 505 CURVE SMOOTH",
"152 505 OFFCURVE",
"68 487 OFFCURVE",
"8 461 CURVE",
"39 298 LINE",
"86 313 OFFCURVE",
"133 324 OFFCURVE",
"190 324 CURVE SMOOTH",
"240 324 OFFCURVE",
"251 316 OFFCURVE",
"251 295 CURVE SMOOTH"
);
}
);
};
layerId = "BFFFD157-90D3-4B85-B99D-9A2F366F03CA";
paths = (
{
closed = 1;
nodes = (
"397 417 LINE",
"362 472 OFFCURVE",
"310 505 OFFCURVE",
"215 505 CURVE SMOOTH",
"143 505 OFFCURVE",
"64 487 OFFCURVE",
"8 461 CURVE",
"39 298 LINE",
"86 313 OFFCURVE",
"129 324 OFFCURVE",
"179 324 CURVE SMOOTH",
"226 324 OFFCURVE",
"251 316 OFFCURVE",
"251 295 CURVE SMOOTH",
"251 153 LINE SMOOTH",
"251 123 OFFCURVE",
"237 113 OFFCURVE",
"219 113 CURVE SMOOTH",
"197 113 OFFCURVE",
"188 127 OFFCURVE",
"188 143 CURVE SMOOTH",
"188 155 OFFCURVE",
"193 164 OFFCURVE",
"201 170 CURVE SMOOTH",
"216 181 OFFCURVE",
"237 182 OFFCURVE",
"258 182 CURVE",
"268 289 LINE",
"176 289 OFFCURVE",
"112 276 OFFCURVE",
"65 241 CURVE SMOOTH",
"27 213 OFFCURVE",
"14 172 OFFCURVE",
"14 125 CURVE SMOOTH",
"14 39 OFFCURVE",
"64 -13 OFFCURVE",
"176 -13 CURVE SMOOTH",
"232 -13 OFFCURVE",
"298 2 OFFCURVE",
"331 54 CURVE",
"344 54 LINE",
"366 20 OFFCURVE",
"420 -14 OFFCURVE",
"515 -14 CURVE SMOOTH",
"568 -14 OFFCURVE",
"624 -5 OFFCURVE",
"681 19 CURVE",
"670 158 LINE",
"627 147 OFFCURVE",
"583 141 OFFCURVE",
"544 141 CURVE SMOOTH",
"496 141 OFFCURVE",
"468 152 OFFCURVE",
"451 172 CURVE SMOOTH",
"434 193 OFFCURVE",
"429 222 OFFCURVE",
"429 258 CURVE SMOOTH",
"429 299 OFFCURVE",
"432 326 OFFCURVE",
"440 341 CURVE SMOOTH",
"446 352 OFFCURVE",
"455 357 OFFCURVE",
"469 357 CURVE SMOOTH",
"492 357 OFFCURVE",
"503 343 OFFCURVE",
"503 304 CURVE SMOOTH",
"503 293 OFFCURVE",
"502 281 OFFCURVE",
"499 271 CURVE",
"551 283 LINE",
"331 283 LINE",
"336 183 LINE",
"775 183 LINE",
"658 105 LINE",
"678 175 OFFCURVE",
"688 228 OFFCURVE",
"688 288 CURVE SMOOTH",
"688 424 OFFCURVE",
"615 505 OFFCURVE",
"481 505 CURVE SMOOTH",
"380 505 OFFCURVE",
"326 460 OFFCURVE",
"310 417 CURVE"
);
}
);
width = 697;
},
{
anchors = (
{
name = bottom;
position = "{348, 0}";
},
{
name = top;
position = "{353, 485}";
}
);
associatedMasterId = "3E7589AA-8194-470F-8E2F-13C1C581BE24";
background = {
paths = (
{
closed = 1;
nodes = (
"349 290 LINE",
"354 189 LINE",
"723 189 LINE",
"678 156 LINE",
"687 199 OFFCURVE",
"695 253 OFFCURVE",
"695 298 CURVE SMOOTH",
"695 423 OFFCURVE",
"640 498 OFFCURVE",
"498 498 CURVE SMOOTH",
"347 498 OFFCURVE",
"268 404 OFFCURVE",
"268 240 CURVE SMOOTH",
"268 60 OFFCURVE",
"365 -13 OFFCURVE",
"524 -13 CURVE SMOOTH",
"586 -13 OFFCURVE",
"637 -2 OFFCURVE",
"691 23 CURVE",
"679 144 LINE",
"637 126 OFFCURVE",
"587 119 OFFCURVE",
"540 119 CURVE SMOOTH",
"455 119 OFFCURVE",
"414 149 OFFCURVE",
"414 252 CURVE SMOOTH",
"414 324 OFFCURVE",
"434 363 OFFCURVE",
"491 363 CURVE SMOOTH",
"536 363 OFFCURVE",
"558 340 OFFCURVE",
"558 284 CURVE SMOOTH",
"558 272 OFFCURVE",
"557 256 OFFCURVE",
"554 238 CURVE",
"598 290 LINE"
);
}
);
};
guideLines = (
{
angle = 90;
position = "{414, 667}";
}
);
layerId = "A051C424-9A36-41EB-9F1A-71CE68D03AF0";
name = "{155, 100}";
paths = (
{
closed = 1;
nodes = (
"392 419 LINE",
"360 474 OFFCURVE",
"303 499 OFFCURVE",
"222 499 CURVE SMOOTH",
"148 499 OFFCURVE",
"76 480 OFFCURVE",
"26 456 CURVE",
"54 325 LINE",
"96 341 OFFCURVE",
"146 355 OFFCURVE",
"198 355 CURVE SMOOTH",
"264 355 OFFCURVE",
"283 333 OFFCURVE",
"283 299 CURVE SMOOTH",
"283 171 LINE SMOOTH",
"283 131 OFFCURVE",
"261 100 OFFCURVE",
"214 100 CURVE SMOOTH",
"178 100 OFFCURVE",
"167 117 OFFCURVE",
"167 134 CURVE SMOOTH",
"167 148 OFFCURVE",
"175 160 OFFCURVE",
"188 166 CURVE SMOOTH",
"212 178 OFFCURVE",
"253 181 OFFCURVE",
"289 181 CURVE",
"294 286 LINE",
"205 285 OFFCURVE",
"143 271 OFFCURVE",
"99 246 CURVE SMOOTH",
"51 219 OFFCURVE",
"30 178 OFFCURVE",
"30 120 CURVE SMOOTH",
"30 34 OFFCURVE",
"84 -12 OFFCURVE",
"188 -12 CURVE SMOOTH",
"255 -12 OFFCURVE",
"313 10 OFFCURVE",
"345 55 CURVE",
"355 55 LINE",
"384 16 OFFCURVE",
"433 -13 OFFCURVE",
"523 -13 CURVE SMOOTH",
"582 -13 OFFCURVE",
"636 -2 OFFCURVE",
"690 23 CURVE",
"679 143 LINE",
"638 128 OFFCURVE",
"586 119 OFFCURVE",
"537 119 CURVE SMOOTH",
"492 119 OFFCURVE",
"459 127 OFFCURVE",
"438 155 CURVE SMOOTH",
"421 177 OFFCURVE",
"413 207 OFFCURVE",
"413 248 CURVE SMOOTH",
"413 285 OFFCURVE",
"418 312 OFFCURVE",
"429 332 CURVE SMOOTH",
"441 351 OFFCURVE",
"460 363 OFFCURVE",
"490 363 CURVE SMOOTH",
"536 363 OFFCURVE",
"558 337 OFFCURVE",
"558 290 CURVE SMOOTH",
"558 280 OFFCURVE",
"557 267 OFFCURVE",
"554 257 CURVE",
"593 290 LINE",
"349 290 LINE",
"354 189 LINE",
"723 189 LINE",
"676 154 LINE",
"687 199 OFFCURVE",
"695 241 OFFCURVE",
"695 292 CURVE SMOOTH",
"695 428 OFFCURVE",
"635 498 OFFCURVE",
"499 498 CURVE SMOOTH",
"412 498 OFFCURVE",
"359 463 OFFCURVE",
"333 418 CURVE"
);
}
);
width = 726;
},
{
anchors = (
{
name = bottom;
position = "{348, 0}";
},
{
name = top;
position = "{347, 468}";
}
);
background = {
paths = (
{
closed = 1;
nodes = (
"346 143 LINE SMOOTH",
"346 49 OFFCURVE",
"284 -3 OFFCURVE",
"193 -3 CURVE SMOOTH",
"108 -3 OFFCURVE",
"72 43 OFFCURVE",
"72 103 CURVE SMOOTH",
"72 134 OFFCURVE",
"83 159 OFFCURVE",
"98 175 CURVE SMOOTH",
"140 221 OFFCURVE",
"232 226 OFFCURVE",
"349 226 CURVE",
"349 233 LINE",
"230 233 OFFCURVE",
"136 227 OFFCURVE",
"94 181 CURVE SMOOTH",
"75 161 OFFCURVE",
"65 136 OFFCURVE",
"65 103 CURVE SMOOTH",
"65 39 OFFCURVE",
"103 -10 OFFCURVE",
"193 -10 CURVE SMOOTH",
"266 -10 OFFCURVE",
"326 24 OFFCURVE",
"345 91 CURVE",
"347 91 LINE",
"348 0 LINE",
"353 0 LINE",
"353 350 LINE SMOOTH",
"353 438 OFFCURVE",
"311 478 OFFCURVE",
"215 478 CURVE SMOOTH",
"151 478 OFFCURVE",
"101 460 OFFCURVE",
"67 438 CURVE",
"70 432 LINE",
"102 453 OFFCURVE",
"153 471 OFFCURVE",
"214 471 CURVE SMOOTH",
"307 471 OFFCURVE",
"346 430 OFFCURVE",
"346 351 CURVE SMOOTH"
);
}
);
};
layerId = "FA91A8E1-7324-47F6-AE85-AED49CFCD01C";
paths = (
{
closed = 1;
nodes = (
"345 342 LINE",
"345 437 OFFCURVE",
"292 475 OFFCURVE",
"208 475 CURVE SMOOTH",
"146 475 OFFCURVE",
"104 457 OFFCURVE",
"67 435 CURVE",
"70 429 LINE",
"107 451 OFFCURVE",
"149 468 OFFCURVE",
"208 468 CURVE SMOOTH",
"286 468 OFFCURVE",
"337 432 OFFCURVE",
"337 353 CURVE SMOOTH",
"337 143 LINE SMOOTH",
"337 56 OFFCURVE",
"287 0 OFFCURVE",
"193 0 CURVE SMOOTH",
"110 0 OFFCURVE",
"72 41 OFFCURVE",
"72 103 CURVE SMOOTH",
"72 135 OFFCURVE",
"81 159 OFFCURVE",
"98 178 CURVE SMOOTH",
"139 223 OFFCURVE",
"221 237 OFFCURVE",
"340 237 CURVE",
"340 244 LINE",
"220 244 OFFCURVE",
"133 229 OFFCURVE",
"91 180 CURVE SMOOTH",
"73 160 OFFCURVE",
"65 136 OFFCURVE",
"65 103 CURVE SMOOTH",
"65 39 OFFCURVE",
"101 -7 OFFCURVE",
"194 -7 CURVE SMOOTH",
"294 -7 OFFCURVE",
"333 53 OFFCURVE",
"340 109 CURVE",
"342 109 LINE",
"356 38 OFFCURVE",
"418 -7 OFFCURVE",
"516 -7 CURVE SMOOTH",
"561 -7 OFFCURVE",
"604 0 OFFCURVE",
"645 22 CURVE",
"640 29 LINE",
"601 7 OFFCURVE",
"555 0 OFFCURVE",
"515 0 CURVE SMOOTH",
"426 0 OFFCURVE",
"357 44 OFFCURVE",
"348 114 CURVE SMOOTH",
"344 146 OFFCURVE",
"343 184 OFFCURVE",
"343 228 CURVE SMOOTH",
"343 277 OFFCURVE",
"343 316 OFFCURVE",
"349 349 CURVE SMOOTH",
"366 436 OFFCURVE",
"430 468 OFFCURVE",
"503 468 CURVE SMOOTH",
"618 468 OFFCURVE",
"653 377 OFFCURVE",
"653 305 CURVE SMOOTH",
"653 279 OFFCURVE",
"651 260 OFFCURVE",
"648 239 CURVE",
"651 244 LINE",
"340 244 LINE",
"341 237 LINE",
"658 237 LINE",
"655 235 LINE",
"658 259 OFFCURVE",
"660 279 OFFCURVE",
"660 306 CURVE SMOOTH",
"660 382 OFFCURVE",
"622 475 OFFCURVE",
"502 475 CURVE SMOOTH",
"425 475 OFFCURVE",
"355 437 OFFCURVE",
"341 343 CURVE"
);
}
);
width = 720;
}
);
leftKerningGroup = a;
leftMetricsKey = a;
rightKerningGroup = e;
rightMetricsKey = e;
unicode = 00E6;
},
{
glyphname = aeacute;
lastChange = "2017-04-22 16:21:19 +0000";
layers = (
{
background = {
paths = (
{
closed = 1;
nodes = (
"766 230 LINE",
"766 253 LINE SMOOTH",
"766 401 OFFCURVE",
"694 488 OFFCURVE",
"573 488 CURVE SMOOTH",
"504 488 OFFCURVE",
"450 459 OFFCURVE",
"417 403 CURVE",
"392 460 OFFCURVE",
"335 488 OFFCURVE",
"244 488 CURVE SMOOTH",
"165 488 OFFCURVE",
"115 471 OFFCURVE",
"74 414 CURVE",
"111 382 LINE",
"142 426 OFFCURVE",
"176 443 OFFCURVE",
"244 443 CURVE SMOOTH",
"343 443 OFFCURVE",
"380 402 OFFCURVE",
"380 325 CURVE SMOOTH",
"380 271 LINE",
"224 271 LINE SMOOTH",
"119 271 OFFCURVE",
"56 220 OFFCURVE",
"56 132 CURVE SMOOTH",
"56 96 OFFCURVE",
"68 61 OFFCURVE",
"91 38 CURVE SMOOTH",
"122 6 OFFCURVE",
"161 -6 OFFCURVE",
"233 -6 CURVE SMOOTH",
"322 -6 OFFCURVE",
"372 19 OFFCURVE",
"412 84 CURVE",
"445 24 OFFCURVE",
"503 -6 OFFCURVE",
"584 -6 CURVE SMOOTH",
"664 -6 OFFCURVE",
"710 19 OFFCURVE",
"759 68 CURVE",
"721 98 LINE",
"680 57 OFFCURVE",
"645 40 OFFCURVE",
"588 40 CURVE SMOOTH",
"485 40 OFFCURVE",
"431 107 OFFCURVE",
"431 230 CURVE"
);
},
{
closed = 1;
nodes = (
"380 230 LINE",
"380 168 LINE SMOOTH",
"380 124 OFFCURVE",
"371 93 OFFCURVE",
"353 76 CURVE SMOOTH",
"318 43 OFFCURVE",
"277 39 OFFCURVE",
"233 39 CURVE SMOOTH",
"145 39 OFFCURVE",
"107 69 OFFCURVE",
"107 133 CURVE SMOOTH",
"107 198 OFFCURVE",
"148 230 OFFCURVE",
"230 230 CURVE SMOOTH"
);
},
{
closed = 1;
nodes = (
"431 271 LINE",
"434 318 OFFCURVE",
"436 331 OFFCURVE",
"448 362 CURVE SMOOTH",
"468 414 OFFCURVE",
"517 443 OFFCURVE",
"573 443 CURVE SMOOTH",
"629 443 OFFCURVE",
"677 413 OFFCURVE",
"698 362 CURVE SMOOTH",
"711 333 OFFCURVE",
"712 317 OFFCURVE",
"715 271 CURVE"
);
},
{
closed = 1;
nodes = (
"544 737 LINE",
"477 737 LINE",
"380 590 LINE",
"438 590 LINE"
);
}
);
};
components = (
{
name = ae;
},
{
name = acute;
transform = "{1, 0, 0, 1, 237, 0}";
}
);
layerId = "3E7589AA-8194-470F-8E2F-13C1C581BE24";
width = 750;
},
{
background = {
paths = (
{
closed = 1;
nodes = (
"802 216 LINE",
"802 284 LINE SMOOTH",
"802 432 OFFCURVE",
"716 544 OFFCURVE",
"560 544 CURVE SMOOTH",
"504 544 OFFCURVE",
"455 529 OFFCURVE",
"416 499 CURVE",
"377 529 OFFCURVE",
"320 544 OFFCURVE",
"246 544 CURVE SMOOTH",
"155 544 OFFCURVE",
"106 525 OFFCURVE",
"51 470 CURVE",
"153 368 LINE",
"179 394 OFFCURVE",
"201 406 OFFCURVE",
"238 406 CURVE SMOOTH",
"295 406 OFFCURVE",
"319 388 OFFCURVE",
"319 339 CURVE SMOOTH",
"319 325 LINE",
"213 325 LINE SMOOTH",
"82 325 OFFCURVE",
"27 250 OFFCURVE",
"27 169 CURVE SMOOTH",
"27 119 OFFCURVE",
"43 74 OFFCURVE",
"74 43 CURVE SMOOTH",
"105 12 OFFCURVE",
"149 -6 OFFCURVE",
"203 -6 CURVE SMOOTH",
"269 -6 OFFCURVE",
"322 -1 OFFCURVE",
"387 59 CURVE",
"438 8 OFFCURVE",
"509 -6 OFFCURVE",
"575 -6 CURVE SMOOTH",
"675 -6 OFFCURVE",
"729 24 OFFCURVE",
"784 79 CURVE",
"686 177 LINE",
"657 148 OFFCURVE",
"632 132 OFFCURVE",
"575 132 CURVE SMOOTH",
"514 132 OFFCURVE",
"480 172 OFFCURVE",
"480 216 CURVE"
);
},
{
closed = 1;
nodes = (
"480 325 LINE",
"480 338 OFFCURVE",
"482 352 OFFCURVE",
"489 367 CURVE SMOOTH",
"499 389 OFFCURVE",
"521 409 OFFCURVE",
"560 409 CURVE SMOOTH",
"599 409 OFFCURVE",
"621 389 OFFCURVE",
"631 367 CURVE SMOOTH",
"638 352 OFFCURVE",
"640 338 OFFCURVE",
"640 325 CURVE"
);
},
{
closed = 1;
nodes = (
"319 202 LINE SMOOTH",
"319 174 OFFCURVE",
"315 159 OFFCURVE",
"302 147 CURVE SMOOTH",
"285 132 OFFCURVE",
"270 128 OFFCURVE",
"243 128 CURVE SMOOTH",
"203 128 OFFCURVE",
"184 147 OFFCURVE",
"184 172 CURVE SMOOTH",
"184 199 OFFCURVE",
"203 216 OFFCURVE",
"241 216 CURVE SMOOTH",
"319 216 LINE"
);
},
{
closed = 1;
nodes = (
"536 790 LINE",
"383 790 LINE",
"318 610 LINE",
"435 610 LINE"
);
}
);
};
components = (
{
name = ae;
},
{
name = acute;
transform = "{1, 0, 0, 1, 183, 0}";
}
);
layerId = "BFFFD157-90D3-4B85-B99D-9A2F366F03CA";
width = 697;
},
{
components = (
{
name = ae;
},
{
name = acute;
transform = "{1, 0, 0, 1, 273, 0}";
}
);
layerId = "FA91A8E1-7324-47F6-AE85-AED49CFCD01C";
width = 720;
}
);
leftKerningGroup = a;
rightKerningGroup = e;
unicode = 01FD;
},
{
glyphname = b;
lastChange = "2017-07-15 14:38:40 +0000";
layers = (
{
anchors = (
{
name = bottom;
position = "{263, 0}";
},
{
name = top;
position = "{140, 750}";
}
);
background = {
paths = (
{
closed = 1;
nodes = (
"432 -14 OFFCURVE",
"521 77 OFFCURVE",
"521 248 CURVE SMOOTH",
"521 412 OFFCURVE",
"439 505 OFFCURVE",
"275 505 CURVE SMOOTH",
"110 505 OFFCURVE",
"18 410 OFFCURVE",
"18 239 CURVE SMOOTH",
"18 75 OFFCURVE",
"102 -14 OFFCURVE",
"265 -14 CURVE SMOOTH"
);
},
{
closed = 1;
nodes = (
"236 159 OFFCURVE",
"219 184 OFFCURVE",
"219 238 CURVE SMOOTH",
"219 288 OFFCURVE",
"235 311 OFFCURVE",
"269 311 CURVE SMOOTH",
"303 311 OFFCURVE",
"320 287 OFFCURVE",
"320 233 CURVE SMOOTH",
"320 183 OFFCURVE",
"304 159 OFFCURVE",
"271 159 CURVE SMOOTH"
);
}
);
};
layerId = "BFFFD157-90D3-4B85-B99D-9A2F366F03CA";
paths = (
{
closed = 1;
nodes = (
"248 450 LINE",
"248 750 LINE",
"28 750 LINE",
"28 27 LINE",
"249 116 LINE",
"249 234 LINE SMOOTH",
"249 283 OFFCURVE",
"263 308 OFFCURVE",
"297 308 CURVE SMOOTH",
"329 308 OFFCURVE",
"340 286 OFFCURVE",
"340 241 CURVE SMOOTH",
"340 184 OFFCURVE",
"321 156 OFFCURVE",
"284 156 CURVE SMOOTH",
"268 156 OFFCURVE",
"251 161 OFFCURVE",
"238 171 CURVE",
"28 27 LINE",
"95 4 OFFCURVE",
"169 -11 OFFCURVE",
"259 -11 CURVE SMOOTH",
"488 -11 OFFCURVE",
"555 102 OFFCURVE",
"555 283 CURVE SMOOTH",
"555 434 OFFCURVE",
"510 502 OFFCURVE",
"391 502 CURVE SMOOTH",
"320 502 OFFCURVE",
"281 475 OFFCURVE",
"259 450 CURVE"
);
}
);
width = 571;
},
{
anchors = (
{
name = bottom;
position = "{236, 0}";
},
{
name = top;
position = "{116, 750}";
}
);
background = {
paths = (
{
closed = 1;
nodes = (
"158 0 LINE",
"158 264 LINE SMOOTH",
"158 355 OFFCURVE",
"197 402 OFFCURVE",
"275 402 CURVE SMOOTH",
"342 402 OFFCURVE",
"371 368 OFFCURVE",
"371 297 CURVE SMOOTH",
"371 0 LINE",
"461 0 LINE",
"461 316 LINE SMOOTH",
"461 439 OFFCURVE",
"400 490 OFFCURVE",
"302 490 CURVE SMOOTH",
"241 490 OFFCURVE",
"194 470 OFFCURVE",
"166 437 CURVE",
"158 437 LINE",
"158 750 LINE",
"68 750 LINE",
"68 0 LINE"
);
}
);
};
hints = (
{
horizontal = 1;
origin = "{0, 27}";
target = "{0, 8}";
type = TTStem;
stem = 1;
options = 4;
},
{
horizontal = 1;
origin = "{0, 21}";
target = "{0, 14}";
type = TTStem;
stem = 1;
options = 4;
},
{
horizontal = 1;
origin = "{0, 2}";
type = Anchor;
}
);
layerId = "3E7589AA-8194-470F-8E2F-13C1C581BE24";
paths = (
{
closed = 1;
nodes = (
"162 426 LINE",
"162 750 LINE",
"72 750 LINE",
"72 19 LINE",
"162 28 LINE",
"162 241 LINE SMOOTH",
"162 359 OFFCURVE",
"211 396 OFFCURVE",
"283 396 CURVE SMOOTH",
"354 396 OFFCURVE",
"391 356 OFFCURVE",
"391 254 CURVE SMOOTH",
"391 137 OFFCURVE",
"346 77 OFFCURVE",
"246 77 CURVE SMOOTH",
"217 77 OFFCURVE",
"181 82 OFFCURVE",
"142 98 CURVE",
"72 19 LINE",
"122 0 OFFCURVE",
"177 -11 OFFCURVE",
"230 -11 CURVE SMOOTH",
"398 -11 OFFCURVE",
"481 100 OFFCURVE",
"481 267 CURVE SMOOTH",
"481 404 OFFCURVE",
"431 489 OFFCURVE",
"311 489 CURVE SMOOTH",
"241 489 OFFCURVE",
"194 459 OFFCURVE",
"170 426 CURVE"
);
}
);
width = 524;
},
{
anchors = (
{
name = bottom;
position = "{225, 0}";
},
{
name = top;
position = "{95, 750}";
}
);
layerId = "FA91A8E1-7324-47F6-AE85-AED49CFCD01C";
paths = (
{
closed = 1;
nodes = (
"100 348 LINE",
"100 750 LINE",
"93 750 LINE",
"93 19 LINE",
"100 19 LINE",
"100 285 LINE SMOOTH",
"100 417 OFFCURVE",
"178 468 OFFCURVE",
"266 468 CURVE SMOOTH",
"369 468 OFFCURVE",
"414 404 OFFCURVE",
"414 261 CURVE SMOOTH",
"414 91 OFFCURVE",
"347 0 OFFCURVE",
"221 0 CURVE SMOOTH",
"183 0 OFFCURVE",
"139 8 OFFCURVE",
"96 26 CURVE",
"93 19 LINE",
"136 1 OFFCURVE",
"181 -7 OFFCURVE",
"220 -7 CURVE SMOOTH",
"351 -7 OFFCURVE",
"421 87 OFFCURVE",
"421 261 CURVE SMOOTH",
"421 408 OFFCURVE",
"373 475 OFFCURVE",
"266 475 CURVE SMOOTH",
"176 475 OFFCURVE",
"116 424 OFFCURVE",
"101 348 CURVE"
);
}
);
width = 485;
}
);
leftKerningGroup = h;
leftMetricsKey = "=m*.95";
rightKerningGroup = o;
rightMetricsKey = o;
unicode = 0062;
},
{
glyphname = c;
lastChange = "2017-07-15 14:38:37 +0000";
layers = (
{
anchors = (
{
name = bottom;
position = "{261, 0}";
},
{
name = top;
position = "{218, 490}";
},
{
name = topright;
position = "{400, 490}";
}
);
background = {
paths = (
{
closed = 1;
nodes = (
"430 -14 OFFCURVE",
"519 77 OFFCURVE",
"519 248 CURVE SMOOTH",
"519 412 OFFCURVE",
"437 505 OFFCURVE",
"273 505 CURVE SMOOTH",
"108 505 OFFCURVE",
"16 410 OFFCURVE",
"16 239 CURVE SMOOTH",
"16 75 OFFCURVE",
"100 -14 OFFCURVE",
"263 -14 CURVE SMOOTH"
);
},
{
closed = 1;
nodes = (
"234 159 OFFCURVE",
"217 184 OFFCURVE",
"217 238 CURVE SMOOTH",
"217 288 OFFCURVE",
"233 311 OFFCURVE",
"267 311 CURVE SMOOTH",
"301 311 OFFCURVE",
"318 287 OFFCURVE",
"318 233 CURVE SMOOTH",
"318 183 OFFCURVE",
"302 159 OFFCURVE",
"269 159 CURVE SMOOTH"
);
}
);
};
layerId = "BFFFD157-90D3-4B85-B99D-9A2F366F03CA";
paths = (
{
closed = 1;
nodes = (
"370 179 LINE",
"350 171 OFFCURVE",
"325 165 OFFCURVE",
"300 165 CURVE SMOOTH",
"252 165 OFFCURVE",
"227 185 OFFCURVE",
"227 238 CURVE SMOOTH",
"227 290 OFFCURVE",
"252 308 OFFCURVE",
"302 308 CURVE SMOOTH",
"328 308 OFFCURVE",
"351 303 OFFCURVE",
"368 297 CURVE",
"388 483 LINE",
"356 495 OFFCURVE",
"309 502 OFFCURVE",
"263 502 CURVE SMOOTH",
"97 502 OFFCURVE",
"16 412 OFFCURVE",
"16 239 CURVE SMOOTH",
"16 77 OFFCURVE",
"93 -13 OFFCURVE",
"258 -13 CURVE SMOOTH",
"302 -13 OFFCURVE",
"352 -6 OFFCURVE",
"387 9 CURVE"
);
}
);
width = 404;
},
{
anchors = (
{
name = bottom;
position = "{240, 0}";
},
{
name = top;
position = "{229, 468}";
},
{
name = topright;
position = "{389, 468}";
}
);
layerId = "FA91A8E1-7324-47F6-AE85-AED49CFCD01C";
paths = (
{
closed = 1;
nodes = (
"360 38 LINE",
"329 14 OFFCURVE",
"286 0 OFFCURVE",
"239 0 CURVE SMOOTH",
"124 0 OFFCURVE",
"71 76 OFFCURVE",
"71 230 CURVE SMOOTH",
"71 379 OFFCURVE",
"113 468 OFFCURVE",
"237 468 CURVE SMOOTH",
"293 468 OFFCURVE",
"328 449 OFFCURVE",
"355 426 CURVE",
"359 432 LINE",
"333 454 OFFCURVE",
"297 475 OFFCURVE",
"237 475 CURVE SMOOTH",
"109 475 OFFCURVE",
"64 384 OFFCURVE",
"64 231 CURVE SMOOTH",
"64 71 OFFCURVE",
"118 -7 OFFCURVE",
"239 -7 CURVE SMOOTH",
"290 -7 OFFCURVE",
"331 8 OFFCURVE",
"363 32 CURVE"
);
}
);
width = 412;
},
{
anchors = (
{
name = bottom;
position = "{236, 0}";
},
{
name = top;
position = "{225, 468}";
},
{
name = topright;
position = "{385, 468}";
}
);
associatedMasterId = "FA91A8E1-7324-47F6-AE85-AED49CFCD01C";
layerId = "D078C88F-0BCD-47FA-BC5E-88E2D34377F0";
name = "Jul 15 17, 10:24";
paths = (
{
closed = 1;
nodes = (
"356 38 LINE",
"325 14 OFFCURVE",
"282 0 OFFCURVE",
"235 0 CURVE SMOOTH",
"120 0 OFFCURVE",
"67 76 OFFCURVE",
"67 230 CURVE SMOOTH",
"67 379 OFFCURVE",
"109 468 OFFCURVE",
"233 468 CURVE SMOOTH",
"289 468 OFFCURVE",
"324 449 OFFCURVE",
"351 426 CURVE",
"355 432 LINE",
"329 454 OFFCURVE",
"293 475 OFFCURVE",
"233 475 CURVE SMOOTH",
"105 475 OFFCURVE",
"60 384 OFFCURVE",
"60 231 CURVE SMOOTH",
"60 71 OFFCURVE",
"114 -7 OFFCURVE",
"235 -7 CURVE SMOOTH",
"286 -7 OFFCURVE",
"327 8 OFFCURVE",
"359 32 CURVE"
);
}
);
width = 408;
},
{
anchors = (
{
name = bottom;
position = "{261, 0}";
},
{
name = top;
position = "{218, 490}";
},
{
name = topright;
position = "{400, 490}";
}
);
associatedMasterId = "BFFFD157-90D3-4B85-B99D-9A2F366F03CA";
background = {
paths = (
{
closed = 1;
nodes = (
"430 -14 OFFCURVE",
"519 77 OFFCURVE",
"519 248 CURVE SMOOTH",
"519 412 OFFCURVE",
"437 505 OFFCURVE",
"273 505 CURVE SMOOTH",
"108 505 OFFCURVE",
"16 410 OFFCURVE",
"16 239 CURVE SMOOTH",
"16 75 OFFCURVE",
"100 -14 OFFCURVE",
"263 -14 CURVE SMOOTH"
);
},
{
closed = 1;
nodes = (
"234 159 OFFCURVE",
"217 184 OFFCURVE",
"217 238 CURVE SMOOTH",
"217 288 OFFCURVE",
"233 311 OFFCURVE",
"267 311 CURVE SMOOTH",
"301 311 OFFCURVE",
"318 287 OFFCURVE",
"318 233 CURVE SMOOTH",
"318 183 OFFCURVE",
"302 159 OFFCURVE",
"269 159 CURVE SMOOTH"
);
}
);
};
layerId = "43CDB287-E436-41C3-B7BF-648940BC688C";
name = "Jul 15 17, 10:24";
paths = (
{
closed = 1;
nodes = (
"370 179 LINE",
"350 171 OFFCURVE",
"325 165 OFFCURVE",
"300 165 CURVE SMOOTH",
"252 165 OFFCURVE",
"227 185 OFFCURVE",
"227 238 CURVE SMOOTH",
"227 290 OFFCURVE",
"252 308 OFFCURVE",
"302 308 CURVE SMOOTH",
"328 308 OFFCURVE",
"351 303 OFFCURVE",
"368 297 CURVE",
"388 483 LINE",
"356 495 OFFCURVE",
"309 502 OFFCURVE",
"263 502 CURVE SMOOTH",
"97 502 OFFCURVE",
"16 412 OFFCURVE",
"16 239 CURVE SMOOTH",
"16 77 OFFCURVE",
"93 -13 OFFCURVE",
"258 -13 CURVE SMOOTH",
"302 -13 OFFCURVE",
"352 -6 OFFCURVE",
"387 9 CURVE"
);
}
);
width = 404;
},
{
anchors = (
{
name = bottom;
position = "{267, 0}";
},
{
name = top;
position = "{236, 480}";
},
{
name = topright;
position = "{416, 480}";
}
);
associatedMasterId = "3E7589AA-8194-470F-8E2F-13C1C581BE24";
background = {
paths = (
{
closed = 1;
nodes = (
"365 101 LINE",
"332 86 OFFCURVE",
"296 78 OFFCURVE",
"261 78 CURVE SMOOTH",
"182 78 OFFCURVE",
"133 122 OFFCURVE",
"133 243 CURVE SMOOTH",
"133 354 OFFCURVE",
"175 400 OFFCURVE",
"257 400 CURVE SMOOTH",
"291 400 OFFCURVE",
"324 392 OFFCURVE",
"355 376 CURVE",
"374 463 LINE",
"341 481 OFFCURVE",
"305 489 OFFCURVE",
"261 489 CURVE SMOOTH",
"117 489 OFFCURVE",
"43 401 OFFCURVE",
"43 237 CURVE SMOOTH",
"43 73 OFFCURVE",
"120 -11 OFFCURVE",
"257 -11 CURVE SMOOTH",
"302 -11 OFFCURVE",
"339 -4 OFFCURVE",
"376 13 CURVE"
);
}
);
};
hints = (
{
horizontal = 1;
origin = "{0, 16}";
target = "{0, 9}";
type = TTStem;
stem = 1;
options = 4;
},
{
horizontal = 1;
origin = "{0, 22}";
target = "{0, 3}";
type = TTStem;
stem = 1;
options = 4;
}
);
layerId = "4B5F4F68-199D-4AA6-9274-76D7A0161A2A";
name = "Jul 15 17, 10:25";
paths = (
{
closed = 1;
nodes = (
"365 101 LINE",
"332 86 OFFCURVE",
"296 78 OFFCURVE",
"261 78 CURVE SMOOTH",
"182 78 OFFCURVE",
"133 122 OFFCURVE",
"133 243 CURVE SMOOTH",
"133 354 OFFCURVE",
"175 400 OFFCURVE",
"257 400 CURVE SMOOTH",
"291 400 OFFCURVE",
"324 392 OFFCURVE",
"362 376 CURVE",
"362 468 LINE",
"341 481 OFFCURVE",
"305 489 OFFCURVE",
"261 489 CURVE SMOOTH",
"117 489 OFFCURVE",
"43 401 OFFCURVE",
"43 237 CURVE SMOOTH",
"43 73 OFFCURVE",
"120 -11 OFFCURVE",
"257 -11 CURVE SMOOTH",
"302 -11 OFFCURVE",
"339 -4 OFFCURVE",
"376 13 CURVE"
);
}
);
width = 411;
},
{
anchors = (
{
name = bottom;
position = "{267, 0}";
},
{
name = top;
position = "{236, 480}";
},
{
name = topright;
position = "{416, 480}";
}
);
background = {
paths = (
{
closed = 1;
nodes = (
"365 101 LINE",
"332 86 OFFCURVE",
"296 78 OFFCURVE",
"261 78 CURVE SMOOTH",
"182 78 OFFCURVE",
"133 122 OFFCURVE",
"133 243 CURVE SMOOTH",
"133 354 OFFCURVE",
"175 400 OFFCURVE",
"257 400 CURVE SMOOTH",
"291 400 OFFCURVE",
"324 392 OFFCURVE",
"355 376 CURVE",
"374 463 LINE",
"341 481 OFFCURVE",
"305 489 OFFCURVE",
"261 489 CURVE SMOOTH",
"117 489 OFFCURVE",
"43 401 OFFCURVE",
"43 237 CURVE SMOOTH",
"43 73 OFFCURVE",
"120 -11 OFFCURVE",
"257 -11 CURVE SMOOTH",
"302 -11 OFFCURVE",
"339 -4 OFFCURVE",
"376 13 CURVE"
);
}
);
};
hints = (
{
horizontal = 1;
origin = "{0, 16}";
target = "{0, 9}";
type = TTStem;
stem = 1;
options = 4;
},
{
horizontal = 1;
origin = "{0, 22}";
target = "{0, 3}";
type = TTStem;
stem = 1;
options = 4;
}
);
layerId = "3E7589AA-8194-470F-8E2F-13C1C581BE24";
paths = (
{
closed = 1;
nodes = (
"365 101 LINE",
"332 86 OFFCURVE",
"296 78 OFFCURVE",
"261 78 CURVE SMOOTH",
"182 78 OFFCURVE",
"133 122 OFFCURVE",
"133 243 CURVE SMOOTH",
"133 354 OFFCURVE",
"175 400 OFFCURVE",
"257 400 CURVE SMOOTH",
"291 400 OFFCURVE",
"324 392 OFFCURVE",
"355 376 CURVE",
"374 463 LINE",
"341 481 OFFCURVE",
"305 489 OFFCURVE",
"261 489 CURVE SMOOTH",
"117 489 OFFCURVE",
"43 401 OFFCURVE",
"43 237 CURVE SMOOTH",
"43 73 OFFCURVE",
"120 -11 OFFCURVE",
"257 -11 CURVE SMOOTH",
"302 -11 OFFCURVE",
"339 -4 OFFCURVE",
"376 13 CURVE"
);
}
);
width = 411;
}
);
leftKerningGroup = o;
leftMetricsKey = o;
rightKerningGroup = c;
unicode = 0063;
},
{
glyphname = ccircumflex;
lastChange = "2017-07-13 10:16:38 +0000";
layers = (
{
background = {
paths = (
{
closed = 1;
nodes = (
"405 100 LINE",
"364 55 OFFCURVE",
"332 39 OFFCURVE",
"281 39 CURVE SMOOTH",
"226 39 OFFCURVE",
"182 60 OFFCURVE",
"153 103 CURVE SMOOTH",
"129 138 OFFCURVE",
"120 176 OFFCURVE",
"120 241 CURVE SMOOTH",
"120 306 OFFCURVE",
"129 344 OFFCURVE",
"153 379 CURVE SMOOTH",
"182 422 OFFCURVE",
"226 443 OFFCURVE",
"281 443 CURVE SMOOTH",
"332 443 OFFCURVE",
"364 428 OFFCURVE",
"405 382 CURVE",
"440 414 LINE",
"389 471 OFFCURVE",
"347 488 OFFCURVE",
"281 488 CURVE SMOOTH",
"149 488 OFFCURVE",
"69 394 OFFCURVE",
"69 241 CURVE SMOOTH",
"69 88 OFFCURVE",
"149 -6 OFFCURVE",
"281 -6 CURVE SMOOTH",
"347 -6 OFFCURVE",
"389 11 OFFCURVE",
"440 68 CURVE"
);
},
{
closed = 1;
nodes = (
"431 590 LINE",
"308 737 LINE",
"254 737 LINE",
"131 590 LINE",
"188 590 LINE",
"281 699 LINE",
"374 590 LINE"
);
}
);
};
components = (
{
name = c;
},
{
name = circumflex;
transform = "{1, 0, 0, 1, 13, 0}";
}
);
layerId = "3E7589AA-8194-470F-8E2F-13C1C581BE24";
width = 411;
},
{
background = {
paths = (
{
closed = 1;
nodes = (
"346 174 LINE",
"325 153 OFFCURVE",
"307 142 OFFCURVE",
"280 142 CURVE SMOOTH",
"258 142 OFFCURVE",
"243 149 OFFCURVE",
"229 163 CURVE SMOOTH",
"210 183 OFFCURVE",
"202 218 OFFCURVE",
"202 269 CURVE SMOOTH",
"202 320 OFFCURVE",
"210 355 OFFCURVE",
"229 375 CURVE SMOOTH",
"243 389 OFFCURVE",
"258 396 OFFCURVE",
"280 396 CURVE SMOOTH",
"307 396 OFFCURVE",
"325 385 OFFCURVE",
"346 364 CURVE",
"457 475 LINE",
"413 519 OFFCURVE",
"355 544 OFFCURVE",
"280 544 CURVE SMOOTH",
"187 544 OFFCURVE",
"38 504 OFFCURVE",
"38 269 CURVE SMOOTH",
"38 34 OFFCURVE",
"187 -6 OFFCURVE",
"280 -6 CURVE SMOOTH",
"355 -6 OFFCURVE",
"413 19 OFFCURVE",
"457 63 CURVE"
);
},
{
closed = 1;
nodes = (
"481 610 LINE",
"345 789 LINE",
"215 789 LINE",
"79 610 LINE",
"201 610 LINE",
"280 693 LINE",
"359 610 LINE"
);
}
);
};
components = (
{
name = c;
},
{
name = circumflex;
transform = "{1, 0, 0, 1, -29, 0}";
}
);
layerId = "BFFFD157-90D3-4B85-B99D-9A2F366F03CA";
width = 402;
},
{
components = (
{
name = c;
},
{
name = circumflex;
transform = "{1, 0, 0, 1, 38, 0}";
}
);
layerId = "FA91A8E1-7324-47F6-AE85-AED49CFCD01C";
width = 408;
}
);
leftKerningGroup = o;
rightKerningGroup = c;
unicode = 0109;
},
{
glyphname = d;
lastChange = "2017-07-15 14:38:39 +0000";
layers = (
{
anchors = (
{
name = bottom;
position = "{286, 0}";
},
{
name = cedilla;
position = "{176, 1}";
},
{
name = center;
position = "{282, 245}";
},
{
name = stroke;
position = "{393, 637}";
},
{
name = top;
position = "{427, 750}";
},
{
name = topright;
position = "{540, 490}";
}
);
background = {
paths = (
{
closed = 1;
nodes = (
"329 153 LINE SMOOTH",
"329 120 OFFCURVE",
"315 111 OFFCURVE",
"297 111 CURVE SMOOTH",
"275 111 OFFCURVE",
"266 124 OFFCURVE",
"266 142 CURVE SMOOTH",
"266 152 OFFCURVE",
"269 163 OFFCURVE",
"279 169 CURVE SMOOTH",
"293 178 OFFCURVE",
"311 181 OFFCURVE",
"372 181 CURVE",
"382 298 LINE",
"250 298 OFFCURVE",
"190 284 OFFCURVE",
"143 249 CURVE SMOOTH",
"105 221 OFFCURVE",
"92 176 OFFCURVE",
"92 131 CURVE SMOOTH",
"92 45 OFFCURVE",
"139 -12 OFFCURVE",
"241 -12 CURVE SMOOTH",
"310 -12 OFFCURVE",
"351 11 OFFCURVE",
"374 41 CURVE",
"384 41 LINE",
"401 0 LINE",
"539 0 LINE",
"539 314 LINE SMOOTH",
"539 448 OFFCURVE",
"453 501 OFFCURVE",
"312 501 CURVE SMOOTH",
"230 501 OFFCURVE",
"148 486 OFFCURVE",
"98 468 CURVE",
"114 307 LINE",
"161 318 OFFCURVE",
"211 327 OFFCURVE",
"262 327 CURVE SMOOTH",
"318 327 OFFCURVE",
"329 315 OFFCURVE",
"329 289 CURVE SMOOTH"
);
}
);
};
layerId = "BFFFD157-90D3-4B85-B99D-9A2F366F03CA";
paths = (
{
closed = 1;
nodes = (
"540 750 LINE",
"319 750 LINE",
"319 240 LINE SMOOTH",
"319 185 OFFCURVE",
"303 159 OFFCURVE",
"271 159 CURVE SMOOTH",
"238 159 OFFCURVE",
"225 185 OFFCURVE",
"225 231 CURVE SMOOTH",
"225 285 OFFCURVE",
"243 311 OFFCURVE",
"284 311 CURVE SMOOTH",
"299 311 OFFCURVE",
"316 307 OFFCURVE",
"327 301 CURVE",
"355 466 LINE",
"324 490 OFFCURVE",
"281 503 OFFCURVE",
"229 503 CURVE SMOOTH",
"84 503 OFFCURVE",
"16 400 OFFCURVE",
"16 226 CURVE SMOOTH",
"16 89 OFFCURVE",
"59 -10 OFFCURVE",
"213 -10 CURVE SMOOTH",
"293 -10 OFFCURVE",
"339 16 OFFCURVE",
"369 46 CURVE",
"379 46 LINE",
"407 0 LINE",
"540 0 LINE"
);
}
);
width = 567;
},
{
anchors = (
{
name = bottom;
position = "{255, 0}";
},
{
name = cedilla;
position = "{196, 1}";
},
{
name = center;
position = "{261, 240}";
},
{
name = stroke;
position = "{353, 637}";
},
{
name = top;
position = "{406, 750}";
},
{
name = topright;
position = "{452, 480}";
}
);
background = {
paths = (
{
closed = 1;
nodes = (
"382 61 LINE",
"390 0 LINE",
"452 0 LINE",
"452 670 LINE",
"362 670 LINE",
"362 237 LINE SMOOTH",
"362 123 OFFCURVE",
"312 84 OFFCURVE",
"242 84 CURVE SMOOTH",
"169 84 OFFCURVE",
"133 125 OFFCURVE",
"133 232 CURVE SMOOTH",
"133 345 OFFCURVE",
"179 403 OFFCURVE",
"275 403 CURVE SMOOTH",
"310 403 OFFCURVE",
"347 395 OFFCURVE",
"381 367 CURVE",
"409 445 LINE",
"364 478 OFFCURVE",
"316 489 OFFCURVE",
"267 489 CURVE SMOOTH",
"119 489 OFFCURVE",
"43 390 OFFCURVE",
"43 224 CURVE SMOOTH",
"43 86 OFFCURVE",
"90 -9 OFFCURVE",
"226 -9 CURVE SMOOTH",
"295 -9 OFFCURVE",
"348 16 OFFCURVE",
"374 61 CURVE"
);
}
);
};
hints = (
{
horizontal = 1;
origin = "{0, 18}";
target = "{0, 11}";
type = TTStem;
stem = 1;
options = 4;
},
{
horizontal = 1;
origin = "{0, 24}";
target = "{0, 5}";
type = TTStem;
stem = 1;
options = 4;
},
{
horizontal = 1;
origin = "{0, 1}";
type = Anchor;
},
{
horizontal = 1;
origin = "{0, 29}";
type = Anchor;
}
);
layerId = "3E7589AA-8194-470F-8E2F-13C1C581BE24";
paths = (
{
closed = 1;
nodes = (
"452 750 LINE",
"362 750 LINE",
"362 249 LINE SMOOTH",
"362 116 OFFCURVE",
"314 80 OFFCURVE",
"248 80 CURVE SMOOTH",
"171 80 OFFCURVE",
"133 129 OFFCURVE",
"133 230 CURVE SMOOTH",
"133 337 OFFCURVE",
"177 399 OFFCURVE",
"273 399 CURVE SMOOTH",
"311 399 OFFCURVE",
"346 389 OFFCURVE",
"374 372 CURVE",
"400 454 LINE",
"364 476 OFFCURVE",
"322 489 OFFCURVE",
"268 489 CURVE SMOOTH",
"115 489 OFFCURVE",
"43 383 OFFCURVE",
"43 216 CURVE SMOOTH",
"43 84 OFFCURVE",
"97 -11 OFFCURVE",
"222 -11 CURVE SMOOTH",
"283 -11 OFFCURVE",
"328 12 OFFCURVE",
"358 51 CURVE",
"366 51 LINE",
"380 0 LINE",
"452 0 LINE"
);
}
);
width = 520;
},
{
anchors = (
{
name = bottom;
position = "{236, 0}";
},
{
name = cedilla;
position = "{201, 1}";
},
{
name = center;
position = "{247, 234}";
},
{
name = stroke;
position = "{323, 637}";
},
{
name = top;
position = "{386, 750}";
},
{
name = topright;
position = "{391, 468}";
}
);
layerId = "FA91A8E1-7324-47F6-AE85-AED49CFCD01C";
paths = (
{
closed = 1;
nodes = (
"391 750 LINE",
"384 750 LINE",
"384 176 LINE SMOOTH",
"384 59 OFFCURVE",
"330 0 OFFCURVE",
"237 0 CURVE SMOOTH",
"130 0 OFFCURVE",
"71 72 OFFCURVE",
"71 224 CURVE SMOOTH",
"71 377 OFFCURVE",
"131 468 OFFCURVE",
"253 468 CURVE SMOOTH",
"292 468 OFFCURVE",
"344 460 OFFCURVE",
"386 414 CURVE",
"387 421 LINE",
"348 466 OFFCURVE",
"296 475 OFFCURVE",
"253 475 CURVE SMOOTH",
"127 475 OFFCURVE",
"64 384 OFFCURVE",
"64 224 CURVE SMOOTH",
"64 67 OFFCURVE",
"124 -7 OFFCURVE",
"236 -7 CURVE SMOOTH",
"316 -7 OFFCURVE",
"368 35 OFFCURVE",
"382 108 CURVE",
"383 108 LINE",
"385 0 LINE",
"391 0 LINE"
);
}
);
width = 479;
}
);
leftKerningGroup = o;
leftMetricsKey = o;
rightKerningGroup = d;
rightMetricsKey = "=|m*.9";
unicode = 0064;
},
{
glyphname = eth;
lastChange = "2017-07-13 09:29:49 +0000";
layers = (
{
anchors = (
{
name = _stroke;
position = "{373, 637}";
},
{
name = bottom;
position = "{256, 0}";
},
{
name = center;
position = "{254, 240}";
},
{
name = horn;
position = "{379, 456}";
},
{
name = ogonek;
position = "{466, 10}";
},
{
name = top;
position = "{256, 480}";
},
{
name = topright;
position = "{499, 480}";
}
);
hints = (
{
horizontal = 1;
origin = "{0, 6}";
type = Anchor;
},
{
horizontal = 1;
origin = "{2, 0}";
target = "{2, 1}";
type = TTStem;
stem = 0;
},
{
horizontal = 1;
origin = "{0, 19}";
target = "{1, 11}";
type = TTStem;
stem = 1;
options = 4;
},
{
horizontal = 1;
origin = "{0, 13}";
target = "{1, 5}";
type = TTStem;
stem = 1;
options = 4;
}
);
layerId = "3E7589AA-8194-470F-8E2F-13C1C581BE24";
paths = (
{
closed = 1;
nodes = (
"469 336 OFFCURVE",
"463 405 OFFCURVE",
"449 473 CURVE SMOOTH",
"423 594 OFFCURVE",
"375 708 OFFCURVE",
"322 800 CURVE",
"218 800 LINE SMOOTH",
"279 705 OFFCURVE",
"331 582 OFFCURVE",
"361 462 CURVE",
"355 458 LINE",
"329 479 OFFCURVE",
"296 492 OFFCURVE",
"247 492 CURVE SMOOTH",
"118 492 OFFCURVE",
"43 404 OFFCURVE",
"43 239 CURVE SMOOTH",
"43 79 OFFCURVE",
"117 -12 OFFCURVE",
"255 -12 CURVE SMOOTH",
"392 -12 OFFCURVE",
"468 69 OFFCURVE",
"469 268 CURVE SMOOTH"
);
},
{
closed = 1;
nodes = (
"178 72 OFFCURVE",
"132 123 OFFCURVE",
"132 240 CURVE SMOOTH",
"132 357 OFFCURVE",
"175 403 OFFCURVE",
"255 403 CURVE SMOOTH",
"336 403 OFFCURVE",
"380 360 OFFCURVE",
"380 238 CURVE SMOOTH",
"380 119 OFFCURVE",
"339 72 OFFCURVE",
"259 72 CURVE SMOOTH"
);
},
{
closed = 1;
nodes = (
"140 680 LINE",
"140 597 LINE",
"470 597 LINE",
"470 680 LINE"
);
}
);
width = 513;
},
{
anchors = (
{
name = _stroke;
position = "{406, 637}";
},
{
name = bottom;
position = "{261, 0}";
},
{
name = center;
position = "{260, 239}";
},
{
name = horn;
position = "{356, 460}";
},
{
name = ogonek;
position = "{484, 10}";
},
{
name = top;
position = "{265, 490}";
},
{
name = topright;
position = "{520, 490}";
}
);
background = {
paths = (
{
closed = 1;
nodes = (
"423 -15 OFFCURVE",
"507 77 OFFCURVE",
"507 248 CURVE SMOOTH",
"507 412 OFFCURVE",
"430 505 OFFCURVE",
"266 505 CURVE SMOOTH",
"101 505 OFFCURVE",
"14 410 OFFCURVE",
"14 239 CURVE SMOOTH",
"14 75 OFFCURVE",
"93 -15 OFFCURVE",
"256 -15 CURVE SMOOTH"
);
},
{
closed = 1;
nodes = (
"227 162 OFFCURVE",
"215 187 OFFCURVE",
"215 241 CURVE SMOOTH",
"215 291 OFFCURVE",
"226 314 OFFCURVE",
"259 314 CURVE SMOOTH",
"294 314 OFFCURVE",
"306 290 OFFCURVE",
"306 236 CURVE SMOOTH",
"306 186 OFFCURVE",
"295 162 OFFCURVE",
"262 162 CURVE SMOOTH"
);
}
);
};
layerId = "BFFFD157-90D3-4B85-B99D-9A2F366F03CA";
paths = (
{
closed = 1;
nodes = (
"505 333 OFFCURVE",
"499 393 OFFCURVE",
"489 451 CURVE SMOOTH",
"466 583 OFFCURVE",
"421 707 OFFCURVE",
"375 800 CURVE",
"166 800 LINE",
"218 700 OFFCURVE",
"272 575 OFFCURVE",
"298 470 CURVE",
"292 466 LINE",
"268 489 OFFCURVE",
"239 503 OFFCURVE",
"200 503 CURVE SMOOTH",
"83 503 OFFCURVE",
"14 413 OFFCURVE",
"14 244 CURVE SMOOTH",
"14 81 OFFCURVE",
"100 -12 OFFCURVE",
"259 -12 CURVE SMOOTH",
"416 -12 OFFCURVE",
"504 71 OFFCURVE",
"505 274 CURVE SMOOTH"
);
},
{
closed = 1;
nodes = (
"227 162 OFFCURVE",
"215 187 OFFCURVE",
"215 241 CURVE SMOOTH",
"215 291 OFFCURVE",
"226 314 OFFCURVE",
"259 314 CURVE SMOOTH",
"294 314 OFFCURVE",
"306 290 OFFCURVE",
"306 236 CURVE SMOOTH",
"306 186 OFFCURVE",
"295 162 OFFCURVE",
"262 162 CURVE SMOOTH"
);
},
{
closed = 1;
nodes = (
"123 722 LINE",
"123 552 LINE",
"503 552 LINE",
"503 722 LINE"
);
}
);
width = 519;
},
{
anchors = (
{
name = _stroke;
position = "{356, 637}";
},
{
name = bottom;
position = "{256, 0}";
},
{
name = center;
position = "{253, 241}";
},
{
name = horn;
position = "{398, 454}";
},
{
name = ogonek;
position = "{458, 10}";
},
{
name = top;
position = "{254, 473}";
},
{
name = topright;
position = "{489, 473}";
}
);
layerId = "FA91A8E1-7324-47F6-AE85-AED49CFCD01C";
paths = (
{
closed = 1;
nodes = (
"423 285 OFFCURVE",
"420 330 OFFCURVE",
"414 376 CURVE SMOOTH",
"392 533 OFFCURVE",
"348 687 OFFCURVE",
"269 800 CURVE",
"260 800 LINE",
"346 684 OFFCURVE",
"389 520 OFFCURVE",
"410 356 CURVE",
"407 355 LINE",
"382 455 OFFCURVE",
"307 475 OFFCURVE",
"244 475 CURVE SMOOTH",
"127 475 OFFCURVE",
"60 404 OFFCURVE",
"60 233 CURVE SMOOTH",
"60 73 OFFCURVE",
"125 -7 OFFCURVE",
"247 -7 CURVE SMOOTH",
"361 -7 OFFCURVE",
"423 67 OFFCURVE",
"423 233 CURVE SMOOTH"
);
},
{
closed = 1;
nodes = (
"129 0 OFFCURVE",
"67 77 OFFCURVE",
"67 233 CURVE SMOOTH",
"67 400 OFFCURVE",
"130 468 OFFCURVE",
"244 468 CURVE SMOOTH",
"355 468 OFFCURVE",
"416 403 OFFCURVE",
"416 235 CURVE SMOOTH",
"416 71 OFFCURVE",
"358 0 OFFCURVE",
"247 0 CURVE SMOOTH"
);
},
{
closed = 1;
nodes = (
"139 641 LINE",
"139 634 LINE",
"447 634 LINE",
"447 641 LINE"
);
}
);
width = 507;
}
);
leftKerningGroup = o;
leftMetricsKey = o;
rightKerningGroup = eth;
rightMetricsKey = o;
unicode = 00F0;
},
